<svg width="56" height="56" viewBox="0 0 56 56" fill="none" xmlns="http://www.w3.org/2000/svg">
<g clip-path="url(#clip0)">
<path d="M28.0002 0C33.5381 0 38.9517 1.64218 43.5563 4.71889C48.1609 7.79559 51.7498 12.1686 53.8691 17.285C55.9883 22.4014 56.5428 28.0313 55.4624 33.4628C54.382 38.8943 51.7153 43.8835 47.7994 47.7994C43.8835 51.7153 38.8943 54.382 33.4628 55.4624C28.0313 56.5428 22.4014 55.9883 17.285 53.8691C12.1686 51.7498 7.79559 48.1609 4.71889 43.5563C1.64218 38.9517 0 33.5381 0 28.0002C0 20.5741 2.95001 13.4521 8.20107 8.20107C13.4521 2.95001 20.5741 0 28.0002 0Z" fill="#6BDAC6"/>
<path d="M55.5652 33.0581L42.0011 19.494L36.8168 23.3293L26.533 13.0454L13.6777 36.1669L33.0746 55.5637C38.6623 54.5332 43.8051 51.8293 47.8215 47.8102C51.8379 43.7911 54.5384 38.6465 55.5652 33.0581Z" fill="#3FA18F"/>
<path d="M23.7734 18.9402H40.4918C41.1114 18.9402 41.7057 19.1863 42.1439 19.6245C42.582 20.0627 42.8282 20.657 42.8282 21.2766V40.6426C42.8282 41.2623 42.582 41.8565 42.1439 42.2947C41.7057 42.7329 41.1114 42.979 40.4918 42.979H29.4862L23.7734 18.9402Z" fill="#E6E6E6"/>
<path d="M34.3553 37.0797L29.4876 42.975L27.2715 36.1667L34.3553 37.0797Z" fill="#4254B7"/>
<path d="M38.5152 27.1718H40.9654V25.9229H35.447V24.3562H33.5672V25.9243H30.5352V27.1732H37.075C36.8815 27.8904 36.2705 29.8076 35.0529 30.7651C34.4727 30.1357 33.9736 29.436 33.5672 28.6826H32.2447C32.6736 29.834 33.3168 30.8936 34.1403 31.8055L32.6243 33.3819L33.3217 34.6555C33.962 34.0819 34.5505 33.4529 35.0802 32.7758C35.0802 32.7758 37.839 35.6557 38.5972 36.2923L39.4158 35.292C39.4158 35.292 36.6751 32.7652 36.0505 31.5934C36.0531 31.5917 38.237 29.4637 38.5152 27.1718Z" fill="#627D88"/>
<path d="M34.3547 37.0791H15.5278C14.9082 37.0791 14.3139 36.833 13.8757 36.3948C13.4376 35.9566 13.1914 35.3624 13.1914 34.7427V15.3767C13.1914 14.7571 13.4376 14.1628 13.8757 13.7246C14.3139 13.2864 14.9082 13.0403 15.5278 13.0403H26.5329L34.3547 37.0791Z" fill="#4F8FF5"/>
<path d="M21.6256 24.4152V26.0551H24.1904C24.007 26.6523 23.6348 27.1739 23.1296 27.5414C22.6245 27.909 22.0137 28.1028 21.3891 28.0936C20.7644 28.0844 20.1596 27.8728 19.6654 27.4905C19.1713 27.1083 18.8146 26.576 18.6488 25.9736C18.483 25.3713 18.5171 24.7314 18.746 24.1502C18.975 23.5689 19.3863 23.0776 19.9183 22.75C20.4503 22.4225 21.0742 22.2764 21.6963 22.3338C22.3184 22.3911 22.9051 22.6487 23.3683 23.068L24.5718 21.7794C23.7581 21.0308 22.705 20.5954 21.6002 20.5509C20.4954 20.5064 19.4107 20.8557 18.5394 21.5364C17.6681 22.2172 17.0669 23.1852 16.8429 24.268C16.6189 25.3508 16.7866 26.4779 17.3162 27.4485C17.8459 28.4191 18.7029 29.1701 19.7347 29.5676C20.7665 29.9652 21.9059 29.9834 22.9498 29.6191C23.9938 29.2548 24.8744 28.5316 25.4349 27.5784C25.9953 26.6253 26.199 25.5041 26.0098 24.4147L21.6256 24.4152Z" fill="#EEEEEE"/>
</g>
<defs>
<clipPath id="clip0">
<rect width="56" height="56" fill="white"/>
</clipPath>
</defs>
</svg>
