<svg width="56" height="56" viewBox="0 0 56 56" fill="none" xmlns="http://www.w3.org/2000/svg">
<g clip-path="url(#clip0)">
<path d="M56.0005 27.9998C56.0005 33.5376 54.3583 38.9511 51.2816 43.5556C48.2049 48.1602 43.8318 51.749 38.7155 53.8682C33.5991 55.9874 27.9692 56.5419 22.5377 55.4616C17.1062 54.3812 12.117 51.7145 8.20109 47.7986C4.28519 43.8828 1.61842 38.8937 0.538029 33.4623C-0.542366 28.0308 0.0121319 22.401 2.1314 17.2847C4.25067 12.1684 7.83953 7.79547 12.4441 4.71881C17.0488 1.64216 22.4623 3.47067e-09 28.0002 3.47066e-09C31.6773 -5.78888e-05 35.3184 0.724138 38.7155 2.13124C42.1127 3.53834 45.1994 5.60079 47.7995 8.20082C50.3996 10.8008 52.4621 13.8875 53.8692 17.2847C55.2763 20.6818 56.0005 24.3228 56.0005 27.9998Z" fill="#6BBFDA"/>
<path d="M56.0008 27.9999C56.0008 27.3532 55.977 26.7122 55.9338 26.0766C50.3351 20.4811 42.8025 12.9561 42.8025 12.9561C39.2388 9.13504 34.3123 6.87302 29.0916 6.6607C23.8709 6.44838 18.777 8.30289 14.9148 11.822C11.0526 15.3411 8.73355 20.2409 8.4607 25.4587C8.18786 30.6766 9.98321 35.7916 13.4573 39.6942L11.31 45.4691L20.9401 55.0991C25.0807 56.1737 29.4123 56.286 33.603 55.4275C37.7937 54.569 41.7323 52.7625 45.1167 50.1463C48.5012 47.5302 51.2418 44.1739 53.1284 40.3347C55.015 36.4955 55.9976 32.2754 56.0008 27.9977V27.9999Z" fill="#3F84A1"/>
<path d="M28.2726 6.6295C24.4427 6.62923 20.6944 7.73688 17.4798 9.81889C14.2651 11.9009 11.7214 14.8683 10.1554 18.3634C8.58928 21.8585 8.06771 25.732 8.65353 29.5169C9.23935 33.3017 10.9075 36.8363 13.457 39.6944L11.3097 45.4693L19.2337 44.16C21.9073 45.5269 24.8561 46.2695 27.8582 46.3321C30.8602 46.3946 33.8374 45.7755 36.5656 44.5211C39.2938 43.2668 41.7019 41.41 43.6088 39.0905C45.5157 36.771 46.8716 34.0492 47.5745 31.13C48.2774 28.2107 48.309 25.1701 47.667 22.2368C47.0249 19.3036 45.7258 16.5542 43.8676 14.1956C42.0093 11.8369 39.6403 9.9305 36.9388 8.61974C34.2373 7.30898 31.2736 6.62804 28.2709 6.62817L28.2726 6.6295Z" fill="white"/>
<path d="M48.1258 26.4816C48.1258 31.7464 46.0345 36.7956 42.3119 40.5187C38.5893 44.2417 33.5403 46.3336 28.2754 46.3343V6.62964C33.5402 6.63034 38.5891 8.72216 42.3116 12.445C46.0342 16.1679 48.1256 21.2169 48.1258 26.4816Z" fill="#FFF5CB"/>
<path d="M21.3058 18.126L16.5757 28.9294L13.6921 24.0252L11.4531 25.2436L16.8657 34.0973L22.9965 20.6727H42.2804V18.1238L21.3058 18.126Z" fill="#FF328E"/>
<path d="M28.2754 18.126H42.2817V20.6727H28.2754V18.126Z" fill="#C50A5B"/>
<path d="M23.9956 33.0406C23.689 33.0431 23.3845 32.9895 23.0972 32.8824C22.8302 32.7843 22.5851 32.6345 22.376 32.4416C22.1752 32.2539 22.0139 32.0281 21.9017 31.7772C21.7855 31.5142 21.7272 31.2293 21.7306 30.9419C21.7281 30.6403 21.7999 30.3428 21.9396 30.0756C22.0794 29.8085 22.2785 29.577 22.5215 29.3985C22.7914 29.2026 23.0933 29.0549 23.4137 28.9621C23.7833 28.8532 24.1671 28.7998 24.5524 28.8038C24.843 28.8034 25.133 28.829 25.4191 28.8801C25.6773 28.9235 25.9298 28.9955 26.172 29.0948V28.7152C26.1843 28.5295 26.1574 28.3433 26.093 28.1686C26.0287 27.9939 25.9284 27.8347 25.7987 27.7013C25.4892 27.4449 25.0924 27.3185 24.6917 27.3486C24.3373 27.3486 23.9859 27.4128 23.6544 27.5382C23.2871 27.6809 22.9387 27.8678 22.6167 28.095L22.0978 27.0198C22.9113 26.4663 23.8727 26.1709 24.8566 26.1721C25.6583 26.122 26.45 26.3723 27.0771 26.8743C27.3495 27.1343 27.5615 27.4508 27.6981 27.8017C27.8348 28.1525 27.8927 28.5291 27.8679 28.9048V30.967C27.8559 31.1007 27.8893 31.2346 27.9627 31.347C28.0026 31.3883 28.0506 31.4209 28.1037 31.4426C28.1568 31.4644 28.2139 31.4749 28.2713 31.4735V32.9159C28.0259 32.97 27.7758 32.9995 27.5245 33.0041C27.2602 33.0214 26.9982 32.9452 26.7844 32.7889C26.6108 32.6451 26.496 32.4426 26.4617 32.2198L26.4238 31.8526C26.1414 32.2296 25.7727 32.5333 25.3486 32.7382C24.9262 32.94 24.4637 33.0434 23.9956 33.0406ZM24.4766 31.8006C24.7557 31.8019 25.0326 31.7504 25.2926 31.6489C25.5234 31.5657 25.73 31.4265 25.8939 31.2438C25.9751 31.1914 26.0426 31.1205 26.091 31.0369C26.1393 30.9533 26.1671 30.8594 26.172 30.7629V30.0038C25.958 29.9249 25.7379 29.8635 25.5139 29.8204C25.2889 29.7752 25.0601 29.7519 24.8306 29.7507C24.4498 29.7344 24.0736 29.8386 23.7554 30.0483C23.6279 30.1284 23.5227 30.2394 23.4497 30.3711C23.3766 30.5027 23.338 30.6507 23.3375 30.8012C23.3349 30.9375 23.3632 31.0725 23.4201 31.1963C23.4771 31.3201 23.5612 31.4295 23.6663 31.5163C23.8919 31.7083 24.1809 31.8097 24.477 31.8006H24.4766Z" fill="#9331B2"/>
<path d="M33.7256 27.7391V29.1057H32.4225V30.5358H30.891V29.1057H29.5879V27.7391H30.891V26.3091H32.4225V27.7391H33.7256Z" fill="#5C1B6F"/>
<path d="M39.1787 33.0412C38.7051 33.0496 38.2379 32.9318 37.8249 32.7C37.434 32.478 37.1105 32.1545 36.8885 31.7636V32.9151H35.4082V23.6775H37.1037V27.4484C37.3257 27.0579 37.6465 26.7328 38.0338 26.5054C38.445 26.2751 38.9103 26.1593 39.3815 26.1699C39.7907 26.1651 40.1949 26.2607 40.5585 26.4486C40.9113 26.6332 41.2233 26.8871 41.4759 27.1949C41.741 27.522 41.9427 27.8958 42.0706 28.297C42.211 28.7258 42.2815 29.1744 42.2795 29.6256C42.2836 30.0831 42.2042 30.5375 42.0454 30.9666C41.8984 31.3652 41.6773 31.7324 41.3939 32.0489C41.1172 32.3553 40.7815 32.6027 40.4068 32.7762C40.0221 32.9543 39.6026 33.0448 39.1787 33.0412ZM38.7105 31.5988C38.9679 31.6014 39.2227 31.5474 39.4568 31.4405C39.6775 31.3401 39.8754 31.196 40.0388 31.0169C40.2015 30.8357 40.3282 30.6252 40.4121 30.3966C40.5017 30.1536 40.5465 29.8965 40.5444 29.6375C40.5455 29.3751 40.5027 29.1144 40.4179 28.8661C40.3384 28.6306 40.2162 28.4118 40.0573 28.2207C39.9046 28.0389 39.7174 27.8891 39.5067 27.7799C39.2914 27.6693 39.0525 27.6129 38.8106 27.6154C38.4373 27.6132 38.0758 27.7456 37.7922 27.9884C37.4938 28.2362 37.2576 28.5505 37.1028 28.9062V30.4879C37.1606 30.6543 37.2484 30.8086 37.362 30.9433C37.4739 31.0766 37.6039 31.1937 37.7482 31.2911C37.8925 31.3888 38.05 31.4655 38.2159 31.519C38.3755 31.5716 38.5425 31.5985 38.7105 31.5988Z" fill="#5C1B6F"/>
</g>
<defs>
<clipPath id="clip0">
<rect width="56" height="56" fill="white"/>
</clipPath>
</defs>
</svg>
