<svg width="56" height="56" fill="none" xmlns="http://www.w3.org/2000/svg"><rect width="56" height="56" rx="12" fill="#DF640E"/><path d="M28 48c11.044 0 19.998-8.954 19.998-20S39.044 8 28 8C16.954 8 8 16.954 8 28s8.954 20 20 20z" fill="#FFA700"/><path d="M48 27.944a20 20 0 00-.323-3.597l-6.242-6.242a1.982 1.982 0 00-1.419-.601H16.1a1.992 1.992 0 00-1.987 1.987v16.908a1.984 1.984 0 00.667 1.482l9.705 9.685a19.955 19.955 0 0023.516-19.622z" fill="#FF6900"/><path d="M40.014 38.383H16.1a1.993 1.993 0 01-1.987-1.984V19.49a1.993 1.993 0 011.987-1.987h23.914a1.992 1.992 0 011.987 1.987v16.908a1.993 1.993 0 01-1.987 1.984z" fill="#006EF5"/><path d="M41.998 19.49v16.908a1.992 1.992 0 01-1.986 1.987H28.055V17.504h11.957a1.992 1.992 0 011.986 1.987z" fill="#0043A3"/><path d="M18.799 20.176h-2.494v2.494h2.494v-2.494zm0 4.347h-2.494v2.493h2.494v-2.493zm0 4.347h-2.494v2.494h2.494V28.87zm0 4.348h-2.494v2.494h2.494v-2.494z" fill="#fff"/><path d="M39.806 20.176h-2.493v2.494h2.493v-2.494zm0 4.347h-2.493v2.493h2.493v-2.493zm0 4.347h-2.493v2.494h2.493V28.87zm0 4.348h-2.493v2.494h2.493v-2.494z" fill="#FFF4AA"/><path d="M24.355 23.033v9.815l8.414-4.908-8.413-4.907z" fill="#fff"/><path d="M32.768 27.944l-4.713 2.748v-5.5l4.713 2.752z" fill="#FFF4AA"/></svg>