<svg width="56" height="56" fill="none" xmlns="http://www.w3.org/2000/svg"><rect width="56" height="56" rx="12" fill="#4DBF54"/><path d="M48 28a20 20 0 11-39.999 0 20 20 0 0140 0z" fill="#0EB221"/><path d="M47.999 28a19.977 19.977 0 00-.95-6.103l-4.54-4.54-29.02 2.595 9.818 9.819-8.493 5.963 8.123 8.123-1.437.47 3.44 3.44A20.017 20.017 0 0047.998 28H48z" fill="#109018"/><path d="M34.499 44.327l-5.404-5.404V32.4h-2.187v6.524l-5.404 5.404h3.095l2.31-2.311v2.31h2.188v-2.31l2.31 2.31H34.5z" fill="#DCE1EB"/><path d="M29.092 38.924V32.4H27.98v11.927h1.11v-2.31l2.311 2.31h3.093l-5.403-5.403z" fill="#CDD2E1"/><path d="M14.816 19.016h26.369v16.718H14.816V19.016z" fill="#fff"/><path d="M27.98 19.016h13.203v16.718H27.98V19.016z" fill="#E9EDF5"/><path d="M13.488 17.357h29.02v2.595h-29.02v-2.595z" fill="#DCE1EB"/><path d="M27.98 17.357h14.53v2.595H27.98v-2.595z" fill="#CDD2E1"/></svg>