<svg width="24" height="24" fill="none" xmlns="http://www.w3.org/2000/svg"><path d="M24 7.922V5.156c0-1.163-.946-2.11-2.11-2.11h-.28v2.579a.703.703 0 01-1.407 0v-3.75a.703.703 0 00-1.406 0v1.172h-4.688v2.578a.703.703 0 01-1.406 0v-3.75a.703.703 0 00-1.406 0v1.172H6.609v2.578a.703.703 0 01-1.406 0v-3.75a.703.703 0 00-1.406 0v1.172H2.109A2.111 2.111 0 000 5.157v2.765h24zM0 9.328v11.39c0 1.164.946 2.11 2.11 2.11h19.78c1.164 0 2.11-.946 2.11-2.11V9.329H0zm6.75 9.75h-1.5a.703.703 0 010-1.406h1.5a.703.703 0 010 1.406zm0-3h-1.5a.703.703 0 010-1.406h1.5a.703.703 0 010 1.406zm0-3h-1.5a.703.703 0 010-1.406h1.5a.703.703 0 010 1.406zm6 6h-1.5a.703.703 0 010-1.406h1.5a.703.703 0 010 1.406zm0-3h-1.5a.703.703 0 010-1.406h1.5a.703.703 0 010 1.406zm0-3h-1.5a.703.703 0 010-1.406h1.5a.703.703 0 010 1.406zm6 6h-1.5a.703.703 0 010-1.406h1.5a.703.703 0 010 1.406zm0-3h-1.5a.703.703 0 010-1.406h1.5a.703.703 0 010 1.406zm0-3h-1.5a.703.703 0 010-1.406h1.5a.703.703 0 010 1.406z" fill="#fff"/></svg>