<svg width="24" height="24" fill="none" xmlns="http://www.w3.org/2000/svg"><g clip-path="url(#clip0)"><path d="M23.353 10.439l-.002-.002-9.79-9.79A2.194 2.194 0 0012 0a2.2 2.2 0 00-1.563.647L.652 10.432l-.01.01a2.212 2.212 0 00.004 3.12 2.197 2.197 0 001.534.648h.39v7.204A2.589 2.589 0 005.156 24h3.83a.703.703 0 00.704-.703v-5.649c0-.65.529-1.18 1.18-1.18h2.259c.65 0 1.18.53 1.18 1.18v5.649c0 .388.314.703.702.703h3.83a2.589 2.589 0 002.587-2.586V14.21h.361c.59 0 1.145-.23 1.563-.648.86-.86.86-2.261 0-3.123z" fill="#fff"/></g><defs><clipPath id="clip0"><path fill="#fff" d="M0 0h24v24H0z"/></clipPath></defs></svg>