<svg width="24" height="24" fill="none" xmlns="http://www.w3.org/2000/svg"><path d="M23.466 9.966l-2.808-.69a9.063 9.063 0 00-.59-1.434l1.434-2.39a.7.7 0 00-.099-.858l-1.997-1.997a.7.7 0 00-.858-.099l-2.39 1.435a9.054 9.054 0 00-1.435-.59l-.675-2.81A.721.721 0 0013.36 0h-2.812a.722.722 0 00-.69.534l-.674 2.808c-.492.155-.97.352-1.435.59l-2.39-1.434a.7.7 0 00-.858.099L2.503 4.594a.7.7 0 00-.098.858l1.434 2.39a8.968 8.968 0 00-.59 1.435l-2.715.689A.693.693 0 000 10.64v2.812c0 .324.225.605.534.675l2.714.69c.155.491.352.97.591 1.434l-1.434 2.39a.7.7 0 00.098.858L4.5 21.497a.7.7 0 00.858.098l2.39-1.434c.465.239.943.436 1.435.59l.675 2.715a.72.72 0 00.689.534h2.812a.721.721 0 00.69-.534l.674-2.714c.493-.155.97-.352 1.435-.591l2.39 1.434a.7.7 0 00.858-.098l1.997-1.997a.7.7 0 00.099-.858l-1.435-2.39c.24-.464.436-.943.59-1.435l2.809-.689a.693.693 0 00.534-.675v-2.812a.693.693 0 00-.534-.675zm-11.513 5.597a3.517 3.517 0 01-3.515-3.516 3.517 3.517 0 017.03 0 3.517 3.517 0 01-3.515 3.515z" fill="#fff"/></svg>