<svg width="16" height="12" viewBox="0 0 16 12" fill="none" xmlns="http://www.w3.org/2000/svg">
<path d="M8.01068 6.70689C8.31687 6.70689 8.58745 6.57029 8.90788 6.26295L15.117 0.355151C14.8393 0.116107 14.348 0 13.6573 0H2.17178C1.55941 0 1.12506 0.109277 0.875834 0.327832L7.11348 6.26295C7.42679 6.57029 7.70449 6.70689 8.01068 6.70689ZM0.192256 10.8389L5.31197 5.9761L0.199377 1.13375C0.0712061 1.35231 0 1.71429 0 2.22652V9.77348C0 10.2721 0.0640854 10.6272 0.192256 10.8389ZM15.8149 10.8321C15.9359 10.6204 16 10.2652 16 9.77348V2.22652C16 1.72795 15.9288 1.36596 15.8006 1.15424L10.7094 5.9761L15.8149 10.8321ZM2.34268 12H13.8282C14.4548 12 14.8963 11.8839 15.1526 11.6585L9.94036 6.69323L9.49889 7.10985C9.00757 7.56744 8.53761 7.786 8.01068 7.786C7.48376 7.786 7.00668 7.56744 6.51535 7.10985L6.07388 6.69323L0.868714 11.6448C1.15354 11.8771 1.65198 12 2.34268 12Z" fill="white"/>
</svg>
