<svg width="16" height="16" viewBox="0 0 16 16" fill="none" xmlns="http://www.w3.org/2000/svg">
<g clip-path="url(#clip0)">
<path d="M15.9968 15.9975V15.9969H16.0008V10.1289C16.0008 7.25821 15.3828 5.04688 12.0268 5.04688C10.4135 5.04688 9.33082 5.93221 8.88882 6.77154H8.84216V5.31488H5.66016V15.9969H8.97349V10.7075C8.97349 9.31488 9.23749 7.96821 10.9622 7.96821C12.6615 7.96821 12.6868 9.55754 12.6868 10.7969V15.9975H15.9968Z" fill="white"/>
<path d="M0.265625 5.31641H3.58296V15.9984H0.265625V5.31641Z" fill="white"/>
<path d="M1.92133 0C0.860667 0 0 0.860667 0 1.92133C0 2.982 0.860667 3.86067 1.92133 3.86067C2.982 3.86067 3.84267 2.982 3.84267 1.92133C3.842 0.860667 2.98133 0 1.92133 0V0Z" fill="white"/>
</g>
<defs>
<clipPath id="clip0">
<rect width="16" height="16" fill="white"/>
</clipPath>
</defs>
</svg>
