<svg xmlns="http://www.w3.org/2000/svg" width="176" height="176.112" viewBox="0 0 176 176.112"><g transform="translate(-0.088 0.129)"><circle cx="88" cy="88" r="88" transform="translate(0.088 -0.129)" fill="#a3d4ff"/><path d="M257.884,134.351q0-2.72-.163-5.4L217.092,88.323l-3.073,40.712-58.4-58.4-30.829,44.344,14.785,76.146-5.858,12.99,15.869,15.869a88.068,88.068,0,0,0,108.293-85.638Z" transform="translate(-81.901 -46.359)" fill="#65b1fc"/><g transform="translate(51.821 134.468)"><path d="M150.766,391.218h14.781V414.51H150.766Z" transform="translate(-150.766 -391.218)" fill="#fe6a16"/><g transform="translate(57.56)"><path d="M318.229,391.218H333.01V414.51H318.229Z" transform="translate(-318.229 -391.218)" fill="#f24500"/></g></g><g transform="translate(30.062 24.28)"><path d="M120.372,177.245,87.462,164.7V113.767a35.534,35.534,0,0,1,20.369-32.135L131.123,70.64,112.31,100.651v54.2Z" transform="translate(-87.462 -70.64)" fill="#414952"/><g transform="translate(72.198)"><path d="M308.262,177.245l32.91-12.542V113.767A35.534,35.534,0,0,0,320.8,81.632L297.512,70.64l18.813,30.011v54.2Z" transform="translate(-297.512 -70.64)" fill="#23272b"/></g></g><g transform="translate(30.062 68.624)"><path d="M160.5,239.4V214.758a15.1,15.1,0,1,0-30.21,0V239.4A14.274,14.274,0,0,1,113.8,253.5l-26.338-4.132L110.294,275.8h72.018l21.009-26.427L176.982,253.5A14.274,14.274,0,0,1,160.5,239.4Z" transform="translate(-87.462 -199.653)" fill="#994aff"/></g><g transform="translate(88.033 68.625)"><path d="M314.008,249.374l-26.338,4.132a14.274,14.274,0,0,1-16.486-14.1V214.76a15.1,15.1,0,0,0-15.064-15.1V275.8H293Z" transform="translate(-256.12 -199.656)" fill="#812af2"/></g><g transform="translate(79.705 77.017)"><path d="M248.465,242.435H231.892V232.357a8.287,8.287,0,0,1,16.573,0v10.078Z" transform="translate(-231.892 -224.07)" fill="#fff"/></g><g transform="translate(88.033 77.018)"><path d="M264.366,232.359a8.286,8.286,0,0,0-8.245-8.285v18.363h8.245Z" transform="translate(-256.121 -224.074)" fill="#e9edf5"/></g></g></svg>