<svg width="24" height="24" viewBox="0 0 24 24" fill="none" xmlns="http://www.w3.org/2000/svg">
<path d="M13.4149 16.2323C13.0233 16.4725 12.5218 16.6048 12.0028 16.6048C11.4838 16.6048 10.9824 16.4725 10.5908 16.2323L4.1981 12.3116C4.1981 12.3116 3.62109 11.958 3.62109 12.7592C3.62109 13.669 3.62109 16.3985 3.62109 16.3985C3.62109 16.4349 3.62109 16.6176 3.62109 16.6743C3.62109 18.7367 7.37367 20.96 12.0027 20.96C16.6317 20.96 20.3843 18.7367 20.3843 16.6743C20.3843 16.6176 20.3843 16.4349 20.3843 16.3985C20.3843 16.3985 20.3843 13.5035 20.3843 12.5384C20.3843 11.8953 19.9741 12.2096 19.9741 12.2096L13.4149 16.2323Z" fill="#3680A1"/>
<path d="M22.6316 9.19131C23.1228 8.89007 23.1228 8.3971 22.6316 8.0958L12.8931 3.22593C12.4019 2.92469 11.5981 2.92469 11.1069 3.22593L1.3684 8.0958C0.877199 8.39704 0.877199 8.89001 1.3684 9.19131L11.1069 15.164C11.5981 15.4653 12.4019 15.4653 12.8931 15.164" fill="#3680A1"/>
<path d="M22.2255 18.0453C22.2255 16.3962 22.2255 11.4489 22.2255 11.4489C22.2255 11.4489 22.23 11.1365 22.0446 11.2396C21.8959 11.3224 21.5314 11.5256 21.403 11.6373C21.2547 11.7662 21.2881 12.0555 21.2881 12.0555C21.2881 12.0555 21.2881 16.5478 21.2881 18.0453C21.2881 18.1303 21.215 18.1709 21.1802 18.1914C20.8435 18.3893 20.6172 18.7546 20.6172 19.1734C20.6172 19.8028 21.1274 20.3131 21.7568 20.3131C22.3862 20.3131 22.8964 19.8028 22.8964 19.1734C22.8964 18.753 22.6684 18.3866 22.3296 18.1891C22.2959 18.1695 22.2255 18.1303 22.2255 18.0453Z" fill="#3680A1"/>
</svg>
