<svg width="56" height="56" viewBox="0 0 56 56" fill="none" xmlns="http://www.w3.org/2000/svg">
<g clip-path="url(#clip0)">
<path d="M28.0002 55.9996C43.4643 55.9996 56.0004 43.4636 56.0004 27.9998C56.0004 12.5359 43.4643 0 28.0002 0C12.5361 0 0 12.5359 0 27.9998C0 43.4636 12.5361 55.9996 28.0002 55.9996Z" fill="#6BDA8A"/>
<path d="M55.9716 27.9999C55.9716 27.2229 55.9403 26.4535 55.8777 25.6917L36.7824 6.59717L28.1931 12.3491L22.4411 6.59717L21.9456 9.10329L23.4559 15.7819L26.5241 18.8496L20.21 26.3922L23.0754 36.8549L26.0877 39.8671L19.1621 49.4701L25.5904 55.8983C26.376 55.9644 27.1704 55.9978 27.9736 55.9984C35.3991 55.9978 42.5203 53.0477 47.7708 47.7971C53.0214 42.5465 55.9712 35.4253 55.9716 27.9999Z" fill="#3FA166"/>
<path d="M22.2383 9.10449H33.7045V12.3856H22.2383V9.10449Z" fill="#75F281"/>
<path d="M27.9844 9.10449H33.7038V12.3856H27.9844V9.10449Z" fill="#6BEA60"/>
<path d="M22.2383 20.9653H33.7045V24.2464H22.2383V20.9653Z" fill="#75F281"/>
<path d="M27.9844 20.9653H33.7038V24.2464H27.9844V20.9653Z" fill="#6BEA60"/>
<path d="M22.2383 43.614H33.7045V46.8942H22.2383V43.614Z" fill="#75F282"/>
<path d="M27.9844 43.614H33.7038V46.8942H27.9844V43.614Z" fill="#6BEA60"/>
<path d="M22.2383 31.7527H33.7045V35.0338H22.2383V31.7527Z" fill="#75F282"/>
<path d="M27.9844 31.7527H33.7038V35.0338H27.9844V31.7527Z" fill="#6BEA60"/>
<path d="M20.8008 26.3933H35.1421V29.6744H20.8008V26.3933Z" fill="#75F281"/>
<path d="M27.9844 26.3933H35.1418V29.6744H27.9844V26.3933Z" fill="#6BEA60"/>
<path d="M36.7826 49.4713H33.5015C33.5015 44.9338 30.4835 42.6785 26.9894 40.067C23.3195 37.3242 19.1602 34.2154 19.1602 28.0324C19.1602 21.8493 23.3195 18.7423 26.989 15.9977C30.4835 13.3862 33.501 11.1305 33.501 6.59302H36.7822C36.7822 12.7743 32.6229 15.8831 28.9529 18.6277C25.4588 21.2392 22.4409 23.4949 22.4409 28.0319C22.4409 32.5689 25.4588 34.8247 28.9529 37.4366C32.6233 40.1812 36.7826 43.2899 36.7826 49.4713Z" fill="#FF9500"/>
<path d="M28.9544 18.6299C32.6244 15.887 36.7837 12.7783 36.7837 6.59521H33.5025C33.5025 10.7011 31.0316 12.9383 27.9727 15.2615V19.3656C28.2942 19.1229 28.6214 18.8776 28.9544 18.6299Z" fill="#FE6A16"/>
<path d="M28.9529 37.4389C28.6205 37.1903 28.2931 36.9443 27.9707 36.7009V40.8051C31.0297 43.1287 33.5006 45.3659 33.5006 49.4713H36.7817C36.7822 43.2909 32.6224 40.1817 28.9529 37.4389Z" fill="#FE6A16"/>
<path d="M22.4413 49.4717H19.1602C19.1602 43.2904 23.3195 40.1816 26.989 37.437C30.4835 34.8255 33.501 32.5698 33.501 28.0324C33.501 23.4949 30.4835 21.2414 26.9894 18.6299C23.3195 15.887 19.1602 12.7783 19.1602 6.59521H22.4413C22.4413 11.1327 25.4593 13.388 28.9534 15.9999C32.6229 18.7427 36.7822 21.8515 36.7822 28.0346C36.7822 34.2176 32.6229 37.3246 28.9529 40.0692C25.4593 42.6785 22.4413 44.9342 22.4413 49.4717Z" fill="#FE6A16"/>
<path d="M28.9529 16.0014C28.6205 15.7527 28.2931 15.5068 27.9707 15.2634V19.3676C31.0297 21.6912 33.5006 23.9284 33.5006 28.0338C33.5006 32.1393 31.0297 34.3774 27.9707 36.7006V40.8047C28.2922 40.5605 28.6196 40.3145 28.9529 40.0668C32.6229 37.3239 36.7822 34.2152 36.7822 28.0321C36.7822 21.849 32.6229 18.742 28.9533 15.9974L28.9529 16.0014Z" fill="#F24500"/>
</g>
<defs>
<clipPath id="clip0">
<rect width="56" height="56" fill="white"/>
</clipPath>
</defs>
</svg>
