<svg width="56" height="56" viewBox="0 0 56 56" fill="none" xmlns="http://www.w3.org/2000/svg">
<g clip-path="url(#clip0)">
<path d="M55.9996 27.9975C55.9996 12.5351 43.4636 0.000362396 27.9998 0.000362396C12.5359 0.000362396 0 12.5351 0 27.9975C0 43.4599 12.5359 55.9946 27.9998 55.9946C43.4636 55.9946 55.9996 43.4599 55.9996 27.9975Z" fill="#DA6BCF"/>
<path d="M34.23 14.878V31.9234L20.5422 18.2359L15.7216 20.6785L13.5742 42.4286L27.1306 55.9848C27.4222 55.9942 27.7139 55.9993 28.0057 56.0002C35.2798 56.0004 42.2686 53.1698 47.4922 48.1076C52.7158 43.0454 55.7643 36.149 55.9922 28.8785L37.6809 10.5662L34.23 14.878Z" fill="#A13F7A"/>
<path d="M18.9582 19.4568H12.4805V39.9963C12.4805 40.4216 12.5642 40.8428 12.727 41.2357C12.8898 41.6287 13.1284 41.9857 13.4291 42.2865C13.7299 42.5872 14.0869 42.8258 14.4799 42.9886C14.8728 43.1513 15.294 43.2351 15.7194 43.2351C16.1447 43.2351 16.5659 43.1513 16.9588 42.9886C17.3518 42.8258 17.7088 42.5872 18.0096 42.2865C18.3103 41.9857 18.5489 41.6287 18.7117 41.2357C18.8745 40.8428 18.9582 40.4216 18.9582 39.9963V19.4568Z" fill="#EEF4FF"/>
<path d="M18.9582 19.4568H12.4805V39.9963C12.4805 40.4216 12.5642 40.8428 12.727 41.2357C12.8898 41.6287 13.1284 41.9857 13.4291 42.2865C13.7299 42.5872 14.0869 42.8258 14.4799 42.9886C14.8728 43.1513 15.294 43.2351 15.7194 43.2351C16.1447 43.2351 16.5659 43.1513 16.9588 42.9886C17.3518 42.8258 17.7088 42.5872 18.0096 42.2865C18.3103 41.9857 18.5489 41.6287 18.7117 41.2357C18.8745 40.8428 18.9582 40.4216 18.9582 39.9963V19.4568Z" fill="#EEF4FF"/>
<path d="M15.7207 43.2351C16.5797 43.2351 17.4035 42.8939 18.0109 42.2865C18.6183 41.6791 18.9596 40.8553 18.9596 39.9963V19.4568H15.7207V43.2351Z" fill="#D6E9F8"/>
<path d="M15.7211 41.5947C15.2975 41.5941 14.8913 41.4256 14.5918 41.126C14.2922 40.8265 14.1236 40.4203 14.123 39.9967V19.2773H17.3192V39.9967C17.3192 40.4205 17.1508 40.827 16.8511 41.1267C16.5514 41.4264 16.1449 41.5947 15.7211 41.5947Z" fill="#D6E9F8"/>
<path d="M15.7211 41.5947C15.2975 41.5941 14.8913 41.4256 14.5918 41.126C14.2922 40.8265 14.1236 40.4203 14.123 39.9967V19.2773H17.3192V39.9967C17.3192 40.4205 17.1508 40.827 16.8511 41.1267C16.5514 41.4264 16.1449 41.5947 15.7211 41.5947Z" fill="#B2D7F3"/>
<path d="M15.7207 19.2756V41.5904C16.1445 41.5904 16.551 41.422 16.8507 41.1223C17.1504 40.8226 17.3188 40.4162 17.3188 39.9923V19.2756H15.7207Z" fill="#8BBBFF"/>
<path d="M10.9004 18.2361H20.5417V20.6783H10.9004V18.2361Z" fill="#EEF4FF"/>
<path d="M15.7207 18.2361H20.5413V20.6783H15.7207V18.2361Z" fill="#D6E9F8"/>
<path d="M15.7211 41.5957C15.2975 41.5952 14.8913 41.4266 14.5918 41.127C14.2922 40.8275 14.1236 40.4213 14.123 39.9977V27.511H17.3192V39.9964C17.3193 40.2063 17.2781 40.4143 17.1979 40.6083C17.1177 40.8024 17 40.9787 16.8516 41.1272C16.7032 41.2757 16.5269 41.3936 16.333 41.474C16.139 41.5544 15.9311 41.5957 15.7211 41.5957Z" fill="#FF6379"/>
<path d="M15.7207 27.511V41.5957C16.1445 41.5957 16.551 41.4274 16.8507 41.1277C17.1504 40.828 17.3188 40.4215 17.3188 39.9977V27.511H15.7207Z" fill="#FF415B"/>
<path d="M37.0264 23.1091V11.7866H28.6945V23.1091L20.6094 43.236H45.1119L37.0264 23.1091Z" fill="#EEF4FF"/>
<path d="M23.0371 41.5943L30.3353 23.4247V11.7866H35.3856V23.4247L42.6838 41.5925L23.0371 41.5943Z" fill="#B2D7F3"/>
<path d="M37.0258 23.1091V11.7866H32.8594V43.2351H45.1109L37.0258 23.1091Z" fill="#D6E9F8"/>
<path d="M42.6836 41.5943L35.385 23.4247V11.7866H32.8594V41.5943H42.6836Z" fill="#8BBBFF"/>
<path d="M28.0391 10.5662H37.6803V13.0119H28.0391V10.5662Z" fill="#EEF4FF"/>
<path d="M32.8594 10.5662H37.68V13.0119H32.8594V10.5662Z" fill="#D6E9F8"/>
<path d="M23.0371 41.5929L28.0054 29.2248L37.7102 29.2129L42.6842 41.5929H23.0371Z" fill="#A160E4"/>
<path d="M42.6847 41.5928L37.7106 29.2141L32.8613 29.226V41.5928H42.6847Z" fill="#7A3EB4"/>
<path d="M30.1487 34.2848C30.769 34.2848 31.2719 33.7819 31.2719 33.1616C31.2719 32.5412 30.769 32.0383 30.1487 32.0383C29.5283 32.0383 29.0254 32.5412 29.0254 33.1616C29.0254 33.7819 29.5283 34.2848 30.1487 34.2848Z" fill="#7A3EB4"/>
<path d="M36.0595 38.4909C37.0049 38.4909 37.7713 37.7245 37.7713 36.7792C37.7713 35.8338 37.0049 35.0674 36.0595 35.0674C35.1141 35.0674 34.3477 35.8338 34.3477 36.7792C34.3477 37.7245 35.1141 38.4909 36.0595 38.4909Z" fill="#613393"/>
</g>
<defs>
<clipPath id="clip0">
<rect width="56" height="56" fill="white"/>
</clipPath>
</defs>
</svg>
