<svg width="56" height="56" viewBox="0 0 56 56" fill="none" xmlns="http://www.w3.org/2000/svg">
<path d="M27.9929 55.9863C43.453 55.9863 55.9859 43.4534 55.9859 27.9932C55.9859 12.533 43.453 0 27.9929 0C12.5329 0 0 12.533 0 27.9932C0 43.4534 12.5329 55.9863 27.9929 55.9863Z" fill="#DA6B6B"/>
<path d="M56.0005 27.9997C56.0052 24.2188 55.2415 20.4764 53.7559 16.9996L47.8436 11.1079L45.3125 10.3874L43.7616 8.7959L8.57478 14.3138L18.0062 23.7608L16.0256 40.0315L8.29492 45.0593L16.6947 53.6204C20.9576 55.499 25.6217 56.2846 30.2648 55.9063C34.9079 55.528 39.3833 53.9976 43.2858 51.4537C47.1884 48.9098 50.3949 45.4327 52.615 41.3372C54.8351 37.2418 55.9987 32.6573 56.0005 27.9988V27.9997Z" fill="#A13F3F"/>
<path d="M14.2188 14.2195H41.7798V41.7807H14.2188V14.2195Z" fill="#FDE997"/>
<path d="M28 14.22H41.7801V41.7804H28V14.22Z" fill="#FDDB45"/>
<path d="M45.8869 14.8561H10.1134C9.79937 14.8622 9.48725 14.8056 9.19534 14.6896C8.90342 14.5736 8.63756 14.4006 8.41331 14.1806C8.18907 13.9606 8.01093 13.6982 7.88932 13.4085C7.76771 13.1189 7.70508 12.808 7.70508 12.4938C7.70508 12.1797 7.76771 11.8688 7.88932 11.5791C8.01093 11.2895 8.18907 11.027 8.41331 10.8071C8.63756 10.5871 8.90342 10.4141 9.19534 10.2981C9.48725 10.1821 9.79937 10.1255 10.1134 10.1315H45.8873C46.2014 10.1255 46.5135 10.1821 46.8054 10.2981C47.0973 10.4141 47.3632 10.5871 47.5874 10.8071C47.8117 11.027 47.9898 11.2895 48.1114 11.5791C48.233 11.8688 48.2957 12.1797 48.2957 12.4938C48.2957 12.808 48.233 13.1189 48.1114 13.4085C47.9898 13.6982 47.8117 13.9606 47.5874 14.1806C47.3632 14.4006 47.0973 14.5736 46.8054 14.6896C46.5135 14.8056 46.2014 14.8622 45.8873 14.8561H45.8869Z" fill="#FCB42D"/>
<path d="M48.3023 12.4929C48.3021 12.8045 48.2394 13.1129 48.1178 13.3999C47.9962 13.6868 47.8183 13.9464 47.5945 14.1633C47.1382 14.609 46.5251 14.8577 45.8872 14.8556H28V10.1315H45.8872C46.5205 10.1246 47.1307 10.3694 47.5836 10.8122C48.0365 11.255 48.295 11.8595 48.3023 12.4929Z" fill="#F59B20"/>
<path d="M41.8125 17.1061H14.188C13.516 17.1061 12.8716 16.8391 12.3964 16.364C11.9212 15.8888 11.6543 15.2443 11.6543 14.5724V10.4141C11.6543 9.74212 11.9212 9.09765 12.3964 8.62248C12.8716 8.14732 13.516 7.88037 14.188 7.88037H41.8125C42.4845 7.88037 43.129 8.14732 43.6041 8.62248C44.0793 9.09765 44.3462 9.74212 44.3462 10.4141V14.5719C44.3463 14.9047 44.2808 15.2342 44.1535 15.5417C44.0262 15.8491 43.8396 16.1285 43.6043 16.3638C43.369 16.5991 43.0897 16.7858 42.7822 16.9132C42.4748 17.0405 42.1453 17.1061 41.8125 17.1061Z" fill="#FFF5CC"/>
<path d="M44.346 10.415V14.5724C44.3461 14.6671 44.3406 14.7617 44.3297 14.8558C44.2603 15.475 43.9651 16.0468 43.5006 16.4621C43.0361 16.8773 42.4349 17.1068 41.8118 17.1066H28V7.88086H41.8118C42.4349 7.88067 43.0361 8.11013 43.5006 8.52537C43.9651 8.9406 44.2603 9.51247 44.3297 10.1316C44.3406 10.2257 44.3461 10.3203 44.346 10.415Z" fill="#FDE997"/>
<path d="M45.8869 45.871H10.1134C9.79937 45.8771 9.48725 45.8205 9.19534 45.7045C8.90342 45.5885 8.63756 45.4154 8.41331 45.1955C8.18907 44.9755 8.01093 44.7131 7.88932 44.4234C7.76771 44.1338 7.70508 43.8228 7.70508 43.5087C7.70508 43.1946 7.76771 42.8836 7.88932 42.594C8.01093 42.3044 8.18907 42.0419 8.41331 41.822C8.63756 41.602 8.90342 41.429 9.19534 41.313C9.48725 41.197 9.79937 41.1404 10.1134 41.1464H45.8873C46.2014 41.1404 46.5135 41.197 46.8054 41.313C47.0973 41.429 47.3632 41.602 47.5874 41.822C47.8117 42.0419 47.9898 42.3044 48.1114 42.594C48.233 42.8836 48.2957 43.1946 48.2957 43.5087C48.2957 43.8228 48.233 44.1338 48.1114 44.4234C47.9898 44.7131 47.8117 44.9755 47.5874 45.1955C47.3632 45.4154 47.0973 45.5885 46.8054 45.7045C46.5135 45.8205 46.2014 45.8771 45.8873 45.871H45.8869Z" fill="#FCB42D"/>
<path d="M48.3023 43.5075C48.3022 43.8189 48.2395 44.1271 48.1179 44.4138C47.9963 44.7005 47.8183 44.9599 47.5945 45.1765C47.1382 45.6223 46.5251 45.8709 45.8872 45.8689H28V41.1452H45.8872C46.5206 41.1383 47.1309 41.3834 47.5838 41.8263C48.0367 42.2693 48.2951 42.874 48.3023 43.5075Z" fill="#F59B20"/>
<path d="M41.8125 48.1199H14.188C13.516 48.1199 12.8716 47.853 12.3964 47.3778C11.9212 46.9026 11.6543 46.2582 11.6543 45.5862V41.4284C11.6541 41.0955 11.7195 40.7659 11.8468 40.4583C11.974 40.1508 12.1606 39.8713 12.3959 39.6359C12.6312 39.4005 12.9106 39.2137 13.2181 39.0863C13.5256 38.9589 13.8552 38.8933 14.188 38.8933H41.8125C42.4845 38.8933 43.129 39.1603 43.6041 39.6354C44.0793 40.1106 44.3462 40.7551 44.3462 41.427V45.5848C44.3464 45.9177 44.281 46.2473 44.1538 46.5549C44.0265 46.8624 43.8399 47.1419 43.6046 47.3773C43.3693 47.6127 43.0899 47.7995 42.7824 47.9269C42.4749 48.0543 42.1454 48.1199 41.8125 48.1199Z" fill="#FFF5CC"/>
<path d="M44.346 41.4285V45.5858C44.3461 45.6805 44.3406 45.7752 44.3297 45.8692C44.2603 46.4884 43.9651 47.0603 43.5006 47.4755C43.0361 47.8907 42.4349 48.1202 41.8118 48.12H28V38.8943H41.8118C42.4348 38.8942 43.036 39.1237 43.5005 39.5389C43.965 39.9541 44.2602 40.5259 44.3297 41.1451C44.3406 41.2391 44.3461 41.3338 44.346 41.4285Z" fill="#FDE997"/>
<path d="M18.3262 22.5149H22.7462V25.7961H18.3262V22.5149Z" fill="#FCB42D"/>
<path d="M26.4355 22.5149H37.674V25.7961H26.4355V22.5149Z" fill="#FCB42D"/>
<path d="M28 22.5149H37.6743V25.7983H28V22.5149Z" fill="#F59B20"/>
<path d="M33.2559 30.2043H37.6759V33.4869H33.2559V30.2043Z" fill="#F59B20"/>
<path d="M18.3262 30.2043H29.5646V33.4869H18.3262V30.2043Z" fill="#FCB42D"/>
<path d="M28 30.2043H29.5641V33.4878H28V30.2043Z" fill="#F59B20"/>
</svg>
