<svg width="56" height="56" viewBox="0 0 56 56" fill="none" xmlns="http://www.w3.org/2000/svg">
<g clip-path="url(#clip0)">
<path d="M56 28C56 33.5379 54.3578 38.9514 51.2812 43.556C48.2045 48.1605 43.8315 51.7494 38.7151 53.8686C33.5988 55.9879 27.969 56.5424 22.5375 55.462C17.106 54.3816 12.1169 51.7149 8.20102 47.799C4.28515 43.8831 1.61841 38.894 0.538025 33.4625C-0.542361 28.0311 0.0121319 22.4012 2.13139 17.2849C4.25064 12.1685 7.83947 7.79553 12.444 4.71885C17.0486 1.64217 22.4621 0 28 0C35.4261 0 42.548 2.94999 47.799 8.20101C53.05 13.452 56 20.5739 56 28Z" fill="#876BDA"/>
<path d="M55.9994 27.9776C55.9994 27.138 55.9606 26.3073 55.8879 25.4871L47.0735 16.6512C46.3728 15.6591 45.1895 15.0144 43.5989 14.731C43.5549 14.6737 43.5108 14.6177 43.4641 14.564C43.2611 13.9755 42.8703 13.47 42.3518 13.1255C41.8334 12.7809 41.216 12.6163 40.5949 12.657C39.9737 12.6977 39.3831 12.9415 38.9141 13.3509C38.4451 13.7602 38.1236 14.3123 37.9992 14.9223C37.8317 14.9531 37.6616 14.987 37.4919 15.0214L32.4197 8.79146C31.1121 6.81309 29.5912 5.75537 27.9659 5.75537C25.4978 5.75537 23.2603 8.18856 21.6698 12.6067C21.3357 13.5322 21.0365 14.5296 20.7716 15.5811C19.7271 15.2889 18.7135 15.0554 17.7426 14.8844C13.1151 14.0721 9.89342 14.805 8.66779 16.9482C7.44216 19.0914 8.44743 22.2368 11.4932 25.8124C12.1067 26.5316 12.7902 27.2553 13.5351 27.9758C12.7902 28.6968 12.1067 29.4201 11.4932 30.1393C8.44523 33.7126 7.44172 36.8607 8.66779 39.0034C8.90682 39.4197 9.22232 39.7871 9.5977 40.0863L25.4194 55.8824C26.2568 55.9582 27.1078 55.9987 27.9667 55.9987C35.3997 55.9996 42.5287 53.048 47.7856 47.7931C53.0426 42.5383 55.9971 35.4106 55.9994 27.9776Z" fill="#5E3FA1"/>
<path d="M32.0545 28.0004C32.0545 28.8023 31.8167 29.5862 31.3712 30.253C30.9256 30.9198 30.2924 31.4395 29.5515 31.7463C28.8106 32.0532 27.9954 32.1335 27.2089 31.9771C26.4224 31.8206 25.6999 31.4345 25.1329 30.8674C24.5658 30.3004 24.1797 29.5779 24.0232 28.7914C23.8668 28.0049 23.9471 27.1896 24.254 26.4488C24.5608 25.7079 25.0805 25.0746 25.7473 24.6291C26.4141 24.1836 27.198 23.9458 27.9999 23.9458C29.0752 23.9458 30.1065 24.373 30.8669 25.1334C31.6273 25.8937 32.0545 26.925 32.0545 28.0004Z" fill="#FF9A00"/>
<path d="M42.4545 28.0001C43.2006 27.2786 43.885 26.5541 44.4998 25.8344C47.5527 22.2575 48.5575 19.1064 47.3301 16.9615C46.1027 14.8165 42.874 14.0827 38.2399 14.8954C37.2672 15.0664 36.2523 15.3004 35.206 15.5926C34.9416 14.5402 34.6406 13.5433 34.3061 12.6151C32.7124 8.19253 30.4727 5.75537 27.999 5.75537C25.5252 5.75537 23.2855 8.19076 21.6923 12.6138C21.3578 13.5419 21.0577 14.5384 20.7924 15.5913C19.7461 15.2991 18.7312 15.0646 17.7585 14.8941C13.1239 14.0809 9.8957 14.8143 8.66831 16.9601C7.44091 19.106 8.4453 22.2575 11.4999 25.8344C12.1143 26.5545 12.7991 27.2786 13.5448 28.0001C12.7987 28.7215 12.1143 29.446 11.4999 30.1657C8.44707 33.7426 7.44179 36.8937 8.66963 39.0387C9.57089 40.6138 11.5497 41.4278 14.3721 41.4278C15.5084 41.4177 16.6417 41.3096 17.7594 41.1047C18.7321 40.9337 19.747 40.6997 20.7933 40.4075C21.0577 41.46 21.3583 42.4569 21.6932 43.385C23.2869 47.8076 25.5275 50.243 27.9999 50.243C30.4723 50.243 32.7133 47.8076 34.3065 43.385C34.641 42.4569 34.9411 41.4604 35.2065 40.4075C36.2527 40.6997 37.2677 40.9342 38.2403 41.1047C39.3581 41.3096 40.4914 41.4177 41.6277 41.4278C44.4483 41.4278 46.4293 40.6138 47.3306 39.0387C48.5584 36.8937 47.5535 33.7426 44.5003 30.1657C43.8855 29.446 43.2006 28.7219 42.4545 28.0001ZM38.5625 16.7292C39.5781 16.5427 40.6079 16.4439 41.6405 16.4339C43.7118 16.4339 45.1662 16.9332 45.7114 17.8848C46.4963 19.2563 45.513 21.7754 43.0812 24.6246C42.4831 25.3254 41.8137 26.0305 41.0825 26.7348C39.5986 25.4391 38.0386 24.2332 36.4109 23.1235C36.2577 21.2053 35.9928 19.2976 35.6176 17.4101C36.5872 17.1337 37.57 16.9064 38.5625 16.7292ZM31.3475 33.8497C30.2321 34.4865 29.1127 35.078 27.9981 35.6214C26.8849 35.0784 25.7654 34.4865 24.6487 33.8497C23.5166 33.2033 22.4255 32.5319 21.3755 31.8356C21.2941 30.6054 21.2525 29.3273 21.2507 28.0014C21.249 26.6754 21.2906 25.3973 21.3755 24.1672C22.4226 23.4735 23.5137 22.8023 24.6487 22.1535C25.7641 21.5167 26.8835 20.9252 27.9981 20.3818C29.1114 20.9248 30.2308 21.5167 31.3475 22.1535C32.4796 22.7999 33.5707 23.4711 34.6207 24.1672C34.7021 25.3973 34.7437 26.6754 34.7455 28.0014C34.7455 29.3266 34.7014 30.6078 34.6207 31.8356C33.5742 32.5296 32.483 33.2011 31.3471 33.8501L31.3475 33.8497ZM34.4132 34.1855C34.262 35.5464 34.0641 36.8333 33.8261 38.0334C32.6322 37.6319 31.4053 37.1586 30.1607 36.6178C30.8658 36.2517 31.57 35.868 32.2731 35.4667C33.0017 35.0506 33.7151 34.6239 34.4132 34.1864V34.1855ZM25.8382 36.6178C24.5936 37.1586 23.3662 37.6315 22.1727 38.0334C21.9347 36.8329 21.7369 35.5464 21.5857 34.1851C22.2832 34.6225 22.9966 35.0497 23.7258 35.4667C24.4283 35.8686 25.1323 36.2526 25.8377 36.6187L25.8382 36.6178ZM19.4403 30.4919C18.3195 29.6765 17.268 28.8418 16.3002 27.9996C17.2698 27.1574 18.3191 26.3227 19.4403 25.5074C19.4065 26.33 19.3893 27.1608 19.3887 27.9996C19.3881 28.8384 19.4052 29.6693 19.4398 30.4923L19.4403 30.4919ZM21.5857 21.8133C21.7369 20.4524 21.9347 19.1655 22.1727 17.9654C23.3666 18.3669 24.5936 18.8402 25.8382 19.381C25.133 19.7471 24.4289 20.1308 23.7258 20.5321C22.9966 20.9488 22.283 21.376 21.5852 21.8137L21.5857 21.8133ZM30.1607 19.381C31.4053 18.8402 32.6327 18.3673 33.8261 17.9654C34.0641 19.1659 34.262 20.4524 34.4132 21.8137C33.7157 21.3762 33.0023 20.949 32.2731 20.5321C31.5703 20.1311 30.866 19.7475 30.1603 19.3814L30.1607 19.381ZM36.5586 25.5069C37.6793 26.3223 38.7309 27.157 39.6987 27.9992C38.7291 28.8414 37.6798 29.6761 36.5586 30.4914C36.5924 29.6688 36.6095 28.838 36.6101 27.9992C36.6107 27.1603 36.5935 26.3299 36.5586 25.5078V25.5069ZM27.999 7.62004C29.9765 7.62004 32.0937 10.8373 33.4198 16.1395C31.5718 16.7576 29.7618 17.4837 27.999 18.314C26.2361 17.4839 24.4261 16.7578 22.5782 16.1395C23.9043 10.8355 26.0215 7.62004 27.999 7.62004ZM12.9172 24.6255C10.4854 21.7767 9.5017 19.2567 10.2866 17.8856C10.8313 16.9341 12.2848 16.4348 14.3575 16.4348C15.3901 16.4448 16.4198 16.5436 17.4355 16.7301C18.4281 16.9074 19.4111 17.1349 20.3808 17.4114C20.0058 19.2989 19.7409 21.2066 19.5875 23.1249C17.9599 24.2346 16.3999 25.4405 14.9159 26.7361C14.1843 26.0318 13.5153 25.3262 12.9172 24.6255ZM17.4355 39.2705C13.7436 39.9179 11.0711 39.486 10.2866 38.1149C9.50214 36.7439 10.4849 34.2238 12.9172 31.3751C13.5149 30.6743 14.1843 29.9692 14.9159 29.2649C16.3999 30.5605 17.9598 31.7664 19.5875 32.8761C19.7407 34.7944 20.0056 36.7021 20.3808 38.5896C19.4112 38.866 18.4284 39.0932 17.4359 39.2705H17.4355ZM27.999 48.3805C26.0215 48.3805 23.9043 45.1633 22.5782 39.861C24.4261 39.243 26.2362 38.5169 27.999 37.6865C29.7619 38.5166 31.5719 39.2427 33.4198 39.861C32.0937 45.1646 29.9765 48.3805 27.999 48.3805ZM45.7109 38.1149C44.9264 39.486 42.2544 39.9183 38.5621 39.2705C37.5694 39.0931 36.5864 38.8657 35.6168 38.5891C35.9919 36.7017 36.2568 34.794 36.41 32.8757C38.0377 31.7659 39.5977 30.5601 41.0816 29.2645C41.8132 29.9696 42.4822 30.6748 43.0803 31.3746C45.5126 34.2256 46.4963 36.7434 45.7109 38.1145V38.1149Z" fill="white"/>
<path d="M42.5089 28C43.2484 27.2781 43.9262 26.5535 44.5362 25.8338C47.559 22.2574 48.5542 19.1059 47.3387 16.9618C46.1232 14.8177 42.9267 14.0822 38.3375 14.8948C37.3741 15.0658 36.3693 15.3007 35.3332 15.5929C35.0687 14.5401 34.7725 13.5427 34.4425 12.6146C32.8625 8.19243 30.6448 5.75659 28.1953 5.75659V7.6195C30.1539 7.6195 32.2499 10.8367 33.5606 16.1403C31.7308 16.7581 29.9392 17.4839 28.1953 18.3139V20.3782C29.2971 20.9212 30.4068 21.5135 31.5104 22.1499C32.6311 22.7964 33.714 23.472 34.7514 24.1635C34.8328 25.394 34.8741 26.6721 34.8752 27.9978C34.8764 29.3234 34.8351 30.6015 34.7514 31.832C33.7153 32.5252 32.6311 33.1982 31.5104 33.8456C30.4086 34.482 29.298 35.0739 28.1953 35.6173V37.6816C29.9392 38.5117 31.7308 39.2377 33.5606 39.8557C32.2495 45.1601 30.1539 48.3764 28.1953 48.3764V50.2394C30.6448 50.2394 32.8625 47.8035 34.4407 43.3814C34.7708 42.4532 35.0687 41.4563 35.3314 40.403C36.3675 40.6952 37.3723 40.9319 38.3357 41.1011C39.4422 41.3057 40.5644 41.4138 41.6896 41.4242C44.4842 41.4242 46.4449 40.6102 47.3369 39.0342C48.5524 36.8901 47.5573 33.7385 44.5344 30.1621C43.9258 29.4464 43.2484 28.7223 42.5089 28ZM32.4262 20.5329C31.7299 20.1319 31.0325 19.748 30.3341 19.3813C31.5681 18.841 32.7823 18.3677 33.9643 17.9666C34.1996 19.1663 34.3953 20.4531 34.5451 21.8136C33.855 21.3764 33.1487 20.9495 32.4262 20.5329ZM33.9643 38.0337C32.7823 37.6327 31.5672 37.1594 30.3341 36.619C31.0325 36.2518 31.7299 35.8679 32.4262 35.4674C33.1484 35.0514 33.8547 34.6245 34.5451 34.1867C34.3962 35.549 34.2005 36.8341 33.9652 38.0337H33.9643ZM38.6553 16.7304C39.6606 16.5439 40.6803 16.4449 41.7028 16.4347C43.7548 16.4347 45.195 16.9345 45.7336 17.8855C46.5115 19.2575 45.537 21.7762 43.129 24.625C42.5371 25.3266 41.8747 26.0317 41.1501 26.7355C39.6819 25.4404 38.1373 24.2344 36.5248 23.1239C36.3731 21.2058 36.1104 19.2981 35.7382 17.4104C36.6982 17.1339 37.6719 16.9069 38.6553 16.7304ZM36.672 25.5086C37.7818 26.3235 38.8223 27.1573 39.7817 28C38.8223 28.8426 37.7822 29.6747 36.672 30.4913C36.7055 29.6687 36.7226 28.8382 36.7232 28C36.7238 27.1617 36.7063 26.3313 36.6707 25.5086H36.672ZM45.7345 38.1131C44.9579 39.4841 42.3123 39.916 38.6561 39.2682C37.6729 39.0915 36.6994 38.8644 35.7395 38.5877C36.1118 36.7 36.3744 34.7923 36.5262 32.8743C38.1383 31.7638 39.6826 30.5577 41.1506 29.2626C41.8751 29.9678 42.5375 30.6729 43.1294 31.3732C45.537 34.2237 46.511 36.7429 45.7332 38.1148L45.7345 38.1131Z" fill="#FFF5CB"/>
<path d="M32.0702 28.0004C32.0702 29.0757 31.643 30.107 30.8826 30.8674C30.1223 31.6278 29.091 32.055 28.0156 32.055V23.9458C29.091 23.9458 30.1223 24.373 30.8826 25.1334C31.643 25.8937 32.0702 26.925 32.0702 28.0004Z" fill="#E67500"/>
<path d="M18.4535 40.4873C18.4535 41.0444 18.2884 41.5889 17.9789 42.0521C17.6694 42.5153 17.2295 42.8763 16.7148 43.0895C16.2001 43.3027 15.6338 43.3585 15.0874 43.2498C14.5411 43.1411 14.0392 42.8728 13.6453 42.4789C13.2514 42.085 12.9831 41.5831 12.8744 41.0368C12.7658 40.4904 12.8215 39.9241 13.0347 39.4094C13.2479 38.8947 13.6089 38.4548 14.0721 38.1453C14.5353 37.8359 15.0799 37.6707 15.6369 37.6707C16.3839 37.6708 17.1003 37.9676 17.6285 38.4958C18.1566 39.024 18.4534 39.7403 18.4535 40.4873Z" fill="#00E8F2"/>
<path d="M43.6313 15.5131C43.6313 16.0702 43.4661 16.6148 43.1566 17.078C42.8471 17.5412 42.4072 17.9022 41.8925 18.1154C41.3779 18.3285 40.8115 18.3843 40.2652 18.2756C39.7188 18.167 39.2169 17.8987 38.823 17.5048C38.4291 17.1109 38.1608 16.609 38.0522 16.0626C37.9435 15.5163 37.9993 14.9499 38.2124 14.4353C38.4256 13.9206 38.7866 13.4807 39.2498 13.1712C39.713 12.8617 40.2576 12.6965 40.8147 12.6965C41.5616 12.6967 42.278 12.9934 42.8062 13.5216C43.3344 14.0498 43.6312 14.7662 43.6313 15.5131Z" fill="#FDC000"/>
</g>
<defs>
<clipPath id="clip0">
<rect width="56" height="56" fill="white"/>
</clipPath>
</defs>
</svg>
