<svg width="58" height="56" viewBox="0 0 58 56" fill="none" xmlns="http://www.w3.org/2000/svg">
<g clip-path="url(#clip0)">
<path d="M57.2908 28.0001C57.301 33.9423 55.3681 39.7322 51.7742 44.5247C46.5621 51.4812 38.1433 48.845 28.6454 48.845C19.1474 48.845 10.7287 51.4812 5.51747 44.5247C2.84829 40.9544 1.08214 36.8168 0.363621 32.4509C-0.354896 28.0849 -0.0053466 23.6147 1.38365 19.4062C2.77265 15.1977 5.16159 11.3707 8.35489 8.23832C11.5482 5.10599 15.455 2.75749 19.7556 1.38509C24.0561 0.0126876 28.628 -0.344578 33.0969 0.342541C37.5659 1.02966 41.8048 2.74163 45.4667 5.33827C49.1285 7.93491 52.1091 11.3424 54.1645 15.2817C56.2198 19.2211 57.2915 23.5802 57.2917 28.0023L57.2908 28.0001Z" fill="#6B6FDA"/>
<path d="M28.6454 48.8459C38.1433 48.8459 46.562 51.4817 51.7733 44.523C55.367 39.7311 57.3002 33.9421 57.2907 28.0006C57.2907 27.8366 57.2871 27.6735 57.2844 27.5099L37.3405 8.01489L17.5658 24.0704L21.6134 28.0548C22.0928 29.7816 24.0357 34.4735 24.0357 34.4735L5.51562 44.5247C10.7287 51.4817 19.1474 48.8459 28.6454 48.8459Z" fill="#413FA1"/>
<path d="M19.2734 32.8491H38.0168V37.6257H19.2734V32.8491Z" fill="#584B66"/>
<path d="M28.6445 32.8491H38.0158V37.6257H28.6445V32.8491Z" fill="#4A3E56"/>
<path d="M22.375 28.4915H34.9127V41.4897H22.375V28.4915Z" fill="#FFBB7D"/>
<path d="M28.6445 28.4917H34.9134V41.49H28.6445V28.4917Z" fill="#EFA36A"/>
<path d="M15.0566 36.345H42.2336V48.846H15.0566V36.345Z" fill="#FFD4A6"/>
<path d="M28.6445 36.345H42.233V48.846H28.6445V36.345Z" fill="#FFBB7D"/>
<path d="M51.773 44.5231C49.1133 48.0797 45.6328 50.9727 41.6141 52.9671C37.5955 54.9615 33.1522 56.0009 28.6453 56.0009C24.1384 56.0009 19.695 54.9615 15.6764 52.9671C11.6578 50.9727 8.1772 48.0797 5.51758 44.5231C5.58822 42.3308 6.5288 40.2513 8.14025 38.725C9.75169 37.1986 11.9075 36.345 14.1514 36.345H22.3758L28.6446 42.2197L34.9134 36.345H43.1387C45.3829 36.3441 47.5393 37.1974 49.151 38.7239C50.7627 40.2505 51.7031 42.3304 51.773 44.5231Z" fill="#7B7284"/>
<path d="M51.7725 44.5231C49.1153 48.0823 45.6352 50.9773 41.616 52.972C37.5968 54.9667 33.1521 56.0047 28.6445 56.0013V42.2197L33.5468 37.6278L34.9143 36.3472H43.1395C45.3831 36.3467 47.5388 37.1998 49.1502 38.7258C50.7616 40.2519 51.702 42.331 51.7725 44.5231Z" fill="#635A6D"/>
<path d="M39.1201 16.532C38.6776 9.96346 33.2431 7.53882 28.6443 7.53882C24.0456 7.53882 18.6111 9.96611 18.1686 16.532C16.9794 16.7569 16.1346 18.2818 16.2677 19.5144L16.4715 22.3199C16.5 22.6239 16.5894 22.9194 16.7349 23.1895C16.8803 23.4596 17.0789 23.699 17.3192 23.894C17.5594 24.089 17.8367 24.2357 18.1351 24.3257C18.4335 24.4158 18.7471 24.4474 19.058 24.4187L19.2794 24.3954C21.9074 31.2928 26.0286 32.0123 28.6443 32.4161C31.2601 32.0123 35.3813 31.2933 38.0093 24.3954L38.2302 24.4187C38.5411 24.4474 38.8548 24.4158 39.1531 24.3257C39.4515 24.2357 39.7288 24.089 39.9691 23.894C40.2093 23.699 40.4079 23.4596 40.5533 23.1895C40.6988 22.9194 40.7883 22.6239 40.8167 22.3199L41.0205 19.5144C41.154 18.2813 40.3093 16.7569 39.1201 16.532Z" fill="#FFD4A6"/>
<path d="M41.0227 19.514L40.8188 22.3195C40.7904 22.6235 40.7009 22.919 40.5555 23.1892C40.41 23.4593 40.2115 23.6987 39.9712 23.8937C39.7309 24.0886 39.4537 24.2353 39.1553 24.3254C38.8569 24.4154 38.5433 24.447 38.2324 24.4184L38.0109 24.395C37.3493 26.2965 36.2957 28.045 34.9153 29.5326C32.7442 31.7466 30.3693 32.1495 28.6465 32.4158V7.5376C33.2466 7.5376 38.6798 9.96489 39.1222 16.5308C40.311 16.757 41.1557 18.2814 41.0227 19.514Z" fill="#FFBB7D"/>
<path d="M30.8646 22.3703C30.2453 21.8556 29.459 21.573 28.6462 21.573C27.8333 21.573 27.047 21.8556 26.4277 22.3703C25.0013 23.5556 23.2098 24.2399 21.3391 24.3139L19.2812 24.3955L19.4193 25.2066C19.7825 27.3422 20.9093 29.2825 22.5989 30.6821C24.2885 32.0818 26.4314 32.85 28.6462 32.85C30.9163 32.7269 33.0759 31.8516 34.769 30.3684C36.4622 28.8851 37.588 26.8823 37.961 24.69L38.0111 24.3959L35.9532 24.3144C34.0824 24.2402 32.291 23.5558 30.8646 22.3703Z" fill="#EFEBDC"/>
<path d="M38.009 24.3954L37.9598 24.6895C37.587 26.8819 36.4611 28.8848 34.7678 30.368C33.0745 31.8513 30.9148 32.7263 28.6445 32.8491V21.5723C29.4577 21.5715 30.2445 21.8543 30.8634 22.3698C32.2893 23.5558 34.0808 24.2401 35.9515 24.3134L38.009 24.3954Z" fill="#D6CFBD"/>
<path d="M19.2737 32.8491L28.6453 42.2197L23.9595 47.1413L15.9453 36.345L19.2737 32.8491Z" fill="#9D97A5"/>
<path d="M38.0162 32.8491L28.6445 42.2197L33.3304 47.1417L41.3446 36.3455L38.0162 32.8491Z" fill="#7F7887"/>
<path d="M22.2955 3.22656C22.2955 3.22656 16.2364 9.00162 17.4915 14.696L18.366 20.3714H20.7716L21.9216 16.1865C22.0174 15.8315 22.1841 15.4986 22.4121 15.2069C22.6401 14.9152 22.9249 14.6704 23.2501 14.4868C23.5752 14.3031 23.9343 14.1841 24.3068 14.1366C24.6792 14.0891 25.0575 14.1141 25.42 14.2102C25.5661 14.2502 25.7113 14.2951 25.8556 14.3451L26.2764 14.491C27.8182 15.0163 29.502 14.9813 31.0195 14.3923C31.3237 14.2763 31.6362 14.1823 31.9544 14.111C32.6752 13.951 33.4314 14.0701 34.0642 14.4434C34.6971 14.8166 35.1574 15.415 35.3486 16.1129L36.5189 20.371H38.9246L39.7968 14.4637C39.9844 9.39838 35.8167 3.22656 22.2955 3.22656Z" fill="#494949"/>
<path d="M39.7963 14.4629L38.9245 20.3703H36.5189L35.3463 16.1121C35.1551 15.4141 34.6946 14.8156 34.0615 14.4424C33.4285 14.0692 32.6721 13.9503 31.9512 14.1107C31.633 14.1816 31.3207 14.2756 31.0168 14.392C30.2599 14.6818 29.4571 14.8402 28.6445 14.8601V3.77026C37.1611 5.38464 39.9492 10.2978 39.7963 14.4629Z" fill="#333333"/>
</g>
<defs>
<clipPath id="clip0">
<rect width="57.2903" height="56" fill="white"/>
</clipPath>
</defs>
</svg>
