<svg width="56" height="56" viewBox="0 0 56 56" fill="none" xmlns="http://www.w3.org/2000/svg">
<rect width="55.9995" height="55.9995" rx="12" fill="#994AFF"/>
<path d="M40.3978 47.2655C36.6983 49.6441 32.3927 50.9084 27.9945 50.9075C23.5962 50.9067 19.2911 49.6408 15.5925 47.2608L12.9252 45.2503C9.41409 42.1825 6.9227 38.1164 5.7838 33.5952C4.64489 29.0739 4.9127 24.3128 6.55144 19.9477C8.19018 15.5827 11.1218 11.8216 14.9548 9.16688C18.7878 6.51214 23.3395 5.09014 28.0021 5.09082C32.6646 5.09151 37.216 6.51485 41.0482 9.17072C44.8804 11.8266 47.8109 15.5885 49.4484 19.954C51.0858 24.3195 51.3522 29.0808 50.212 33.6017C49.0718 38.1226 46.5792 42.188 43.0672 45.2548L40.3978 47.2655Z" fill="#994AFF"/>
<path d="M44.9694 55.9996C52.6057 55.9996 55.9996 50.0602 55.9996 46.2421C55.9996 43.09 55.9996 39.4543 55.9996 36.4846L35.1711 13.8657L14.5742 30.8666L15.2727 55.9996C20.7878 55.9996 23.6059 56.0003 27.9999 55.9996C32.3938 55.9988 36.4846 55.9996 40.3028 55.9996H44.9694Z" fill="#5E00D8"/>
<path d="M12.9258 31.8336V55.9995C13.9996 55.9995 14.4239 55.9995 15.6103 55.9995V31.8323C15.611 31.2337 15.8491 30.6597 16.2724 30.2364C16.6957 29.8131 17.2697 29.575 17.8683 29.5743H20.8278V26.8911H17.8683C16.558 26.8926 15.3017 27.4138 14.3751 28.3404C13.4485 29.267 12.9273 30.5233 12.9258 31.8336Z" fill="#DCE1EB"/>
<path d="M38.1305 26.8911H35.1719V29.5756H38.1305C38.7292 29.5763 39.3031 29.8144 39.7264 30.2377C40.1498 30.661 40.3879 31.235 40.3886 31.8336V55.9995C41.5761 55.9995 42.0003 55.9995 43.0731 55.9995V31.8336C43.0716 30.5233 42.5503 29.267 41.6238 28.3404C40.6972 27.4138 39.4409 26.8926 38.1305 26.8911Z" fill="#BEC3D2"/>
<path d="M37.8529 34.3363L25.6964 34.4021L18.1445 34.3365V20.6238C18.1445 19.3297 18.3994 18.0483 18.8947 16.8528C19.3899 15.6572 20.1158 14.5708 21.0308 13.6558C21.9459 12.7407 23.0322 12.0149 24.2278 11.5196C25.4234 11.0244 26.7048 10.7695 27.999 10.7695C29.2931 10.7695 30.5745 11.0244 31.7701 11.5196C32.9657 12.0149 34.052 12.7407 34.9671 13.6558C35.8821 14.5708 36.608 15.6572 37.1033 16.8528C37.5985 18.0483 37.8534 19.3297 37.8534 20.6238V34.3363H37.8529Z" fill="#00D65B"/>
<path d="M37.8513 20.6241C37.8513 18.0125 36.8145 15.5077 34.9688 13.66C33.1231 11.8123 30.6194 10.7728 28.0078 10.77V34.443H37.5339L37.8515 34.3365V20.6241H37.8513Z" fill="#06BF51"/>
<path d="M33.6856 37.0669C34.4177 37.0668 35.1223 36.788 35.6561 36.287C36.1899 35.7861 36.5128 35.1006 36.5593 34.37C36.6057 33.6394 36.3721 32.9186 35.906 32.354C35.4399 31.7895 34.7763 31.4238 34.0501 31.3311C33.9218 30.9566 33.7177 30.6126 33.4506 30.3205C33.1834 30.0284 32.859 29.7944 32.4975 29.6332C32.136 29.472 31.7451 29.387 31.3493 29.3835C30.9535 29.3799 30.5612 29.458 30.1968 29.6128C29.9266 29.2942 29.5902 29.0382 29.211 28.8627C28.8319 28.6871 28.4191 28.5962 28.0013 28.5962C27.5835 28.5962 27.1707 28.6871 26.7915 28.8627C26.4124 29.0382 26.076 29.2942 25.8057 29.6128C25.4414 29.458 25.0491 29.3799 24.6533 29.3835C24.2574 29.387 23.8666 29.472 23.5051 29.6332C23.1436 29.7944 22.8191 30.0284 22.552 30.3205C22.2849 30.6126 22.0808 30.9566 21.9525 31.3311C21.2263 31.4238 20.5627 31.7895 20.0966 32.354C19.6305 32.9186 19.3969 33.6394 19.4433 34.37C19.4897 35.1006 19.8127 35.7861 20.3465 36.287C20.8803 36.788 21.5849 37.0668 22.317 37.0669H33.6856Z" fill="#09AF4C"/>
<path d="M34.0459 31.3313C33.9176 30.9569 33.7135 30.6129 33.4464 30.3208C33.1793 30.0287 32.8548 29.7947 32.4933 29.6335C32.1318 29.4723 31.741 29.3873 31.3452 29.3837C30.9493 29.3802 30.557 29.4583 30.1927 29.613C29.9238 29.2957 29.5891 29.0405 29.2118 28.8652C28.8346 28.6899 28.4238 28.5986 28.0078 28.5977V37.0672H33.6822C34.4143 37.0671 35.1189 36.7883 35.6527 36.2873C36.1865 35.7863 36.5095 35.1009 36.5559 34.3703C36.6023 33.6397 36.3687 32.9188 35.9026 32.3543C35.4365 31.7898 34.7729 31.424 34.0467 31.3313H34.0459Z" fill="#0A9154"/>
<path d="M18.1445 34.3364C18.144 35.8895 18.56 37.4144 19.3492 38.752C20.1384 40.0896 21.272 41.1911 22.6317 41.9416C22.8129 43.1483 23.4211 44.2499 24.3458 45.0462C25.2704 45.8424 26.4501 46.2805 27.6704 46.2806H28.327C29.5472 46.2805 30.7268 45.8426 31.6514 45.0465C32.576 44.2504 33.1843 43.1489 33.3657 41.9423C34.7254 41.1919 35.859 40.0904 36.6482 38.7528C37.4375 37.4152 37.8535 35.8903 37.8529 34.3372L18.1445 34.3364Z" fill="white"/>
<path d="M28.0078 34.3364V46.2808H28.3254C29.5456 46.2807 30.7252 45.8428 31.6498 45.0467C32.5744 44.2506 33.1827 43.1492 33.3641 41.9426C34.7238 41.1921 35.8574 40.0907 36.6467 38.753C37.4359 37.4154 37.8519 35.8906 37.8513 34.3375H28.0078V34.3364Z" fill="#E9EDF5"/>
<path d="M26.7241 39.7875C27.2664 38.668 26.2554 37.0577 24.4659 36.1908C22.6764 35.3239 20.7861 35.5287 20.2437 36.6482C19.7014 37.7677 20.7124 39.3781 22.5019 40.245C24.2914 41.1119 26.1817 40.9071 26.7241 39.7875Z" fill="#414952"/>
<path d="M33.4972 40.2613C35.2866 39.3944 36.2977 37.7841 35.7553 36.6646C35.213 35.5451 33.3226 35.3403 31.5331 36.2072C29.7436 37.0741 28.7326 38.6844 29.275 39.8039C29.8173 40.9234 31.7077 41.1282 33.4972 40.2613Z" fill="#23272B"/>
<path d="M22.1392 26.8341C22.9604 26.8341 23.6261 26.1684 23.6261 25.3472C23.6261 24.5261 22.9604 23.8604 22.1392 23.8604C21.318 23.8604 20.6523 24.5261 20.6523 25.3472C20.6523 26.1684 21.318 26.8341 22.1392 26.8341Z" fill="#2AF27A"/>
<path d="M32.1956 15.9882C32.8235 15.9882 33.3325 15.4792 33.3325 14.8513C33.3325 14.2234 32.8235 13.7144 32.1956 13.7144C31.5676 13.7144 31.0586 14.2234 31.0586 14.8513C31.0586 15.4792 31.5676 15.9882 32.1956 15.9882Z" fill="#02CC4A"/>
<path d="M34.2948 27.5338C34.971 27.5338 35.5192 26.9856 35.5192 26.3094C35.5192 25.6332 34.971 25.085 34.2948 25.085C33.6185 25.085 33.0703 25.6332 33.0703 26.3094C33.0703 26.9856 33.6185 27.5338 34.2948 27.5338Z" fill="#02CC4A"/>
<path d="M24.6316 18.0874C25.0904 18.0874 25.4623 17.7154 25.4623 17.2566C25.4623 16.7977 25.0904 16.4258 24.6316 16.4258C24.1727 16.4258 23.8008 16.7977 23.8008 17.2566C23.8008 17.7154 24.1727 18.0874 24.6316 18.0874Z" fill="#2AF27A"/>
<path d="M27.8252 23.7729C28.5981 23.7729 29.2246 23.1464 29.2246 22.3735C29.2246 21.6006 28.5981 20.9741 27.8252 20.9741C27.0523 20.9741 26.4258 21.6006 26.4258 22.3735C26.4258 23.1464 27.0523 23.7729 27.8252 23.7729Z" fill="#2AF27A"/>
<path d="M29.2223 22.3736C29.2222 22.0347 29.099 21.7073 28.8756 21.4524C28.6522 21.1975 28.3438 21.0324 28.0078 20.9878V23.7603C28.3439 23.7156 28.6524 23.5504 28.8758 23.2953C29.0992 23.0403 29.2224 22.7127 29.2223 22.3736Z" fill="#02CC4A"/>
</svg>
