<svg width="56" height="56" viewBox="0 0 56 56" fill="none" xmlns="http://www.w3.org/2000/svg">
<rect width="56" height="56" rx="12" fill="#DF4D0E"/>
<path d="M47.5 27.9873C47.5 38.7495 38.7699 47.4746 28 47.4746C17.2301 47.4746 8.5 38.7495 8.5 27.9873C8.5 17.2251 17.2301 8.5 28 8.5C38.7699 8.5 47.5 17.2251 47.5 27.9873Z" fill="#FE6A16"/>
<path d="M47.5 27.9873C47.5 38.7495 38.7699 47.4746 28 47.4746C17.2301 47.4746 8.5 38.7495 8.5 27.9873C8.5 17.2251 17.2301 8.5 28 8.5C38.7699 8.5 47.5 17.2251 47.5 27.9873Z" stroke="black"/>
<path d="M47.5 27.9873C47.5 38.7495 38.7699 47.4746 28 47.4746C17.2301 47.4746 8.5 38.7495 8.5 27.9873C8.5 17.2251 17.2301 8.5 28 8.5C38.7699 8.5 47.5 17.2251 47.5 27.9873Z" stroke="url(#paint0_linear)"/>
<path d="M47.4975 28.0147L47.4974 28.1697C47.4735 30.9058 46.8736 33.6069 45.7361 36.0971C44.5772 38.6344 42.8871 40.8938 40.7798 42.7227C38.6726 44.5516 36.1973 45.9075 33.521 46.6989C30.8978 47.4746 28.1413 47.6902 25.4305 47.3326L19.4357 41.3416L22.2369 34.6901L22.3675 34.3801L22.1296 34.1423L17.4312 29.4469L18.6839 28.9918L19.4223 28.7235L18.8666 28.1682L15.2445 24.5484L20.4507 22.0164L21.082 21.7093L20.5855 21.2131L18.233 18.8621L20.8801 16.4551L24.4934 20.0661L25.0917 20.6641L25.3271 19.8515L26.937 14.2925L30.8595 18.2125L31.3649 18.7177L31.6663 18.0697L33.2649 14.6325L36.8315 18.1971L37.3488 18.714L37.6428 18.0444L38.3654 16.3987L47.3158 25.3432C47.4371 26.2284 47.4978 27.121 47.4975 28.0147Z" fill="#E53F05"/>
<path d="M47.4975 28.0147L47.4974 28.1697C47.4735 30.9058 46.8736 33.6069 45.7361 36.0971C44.5772 38.6344 42.8871 40.8938 40.7798 42.7227C38.6726 44.5516 36.1973 45.9075 33.521 46.6989C30.8978 47.4746 28.1413 47.6902 25.4305 47.3326L19.4357 41.3416L22.2369 34.6901L22.3675 34.3801L22.1296 34.1423L17.4312 29.4469L18.6839 28.9918L19.4223 28.7235L18.8666 28.1682L15.2445 24.5484L20.4507 22.0164L21.082 21.7093L20.5855 21.2131L18.233 18.8621L20.8801 16.4551L24.4934 20.0661L25.0917 20.6641L25.3271 19.8515L26.937 14.2925L30.8595 18.2125L31.3649 18.7177L31.6663 18.0697L33.2649 14.6325L36.8315 18.1971L37.3488 18.714L37.6428 18.0444L38.3654 16.3987L47.3158 25.3432C47.4371 26.2284 47.4978 27.121 47.4975 28.0147Z" stroke="black"/>
<path d="M47.4975 28.0147L47.4974 28.1697C47.4735 30.9058 46.8736 33.6069 45.7361 36.0971C44.5772 38.6344 42.8871 40.8938 40.7798 42.7227C38.6726 44.5516 36.1973 45.9075 33.521 46.6989C30.8978 47.4746 28.1413 47.6902 25.4305 47.3326L19.4357 41.3416L22.2369 34.6901L22.3675 34.3801L22.1296 34.1423L17.4312 29.4469L18.6839 28.9918L19.4223 28.7235L18.8666 28.1682L15.2445 24.5484L20.4507 22.0164L21.082 21.7093L20.5855 21.2131L18.233 18.8621L20.8801 16.4551L24.4934 20.0661L25.0917 20.6641L25.3271 19.8515L26.937 14.2925L30.8595 18.2125L31.3649 18.7177L31.6663 18.0697L33.2649 14.6325L36.8315 18.1971L37.3488 18.714L37.6428 18.0444L38.3654 16.3987L47.3158 25.3432C47.4371 26.2284 47.4978 27.121 47.4975 28.0147Z" stroke="url(#paint1_linear)"/>
<path d="M42.0067 22.5869C42.0067 23.5746 41.2054 24.3759 40.2162 24.3759C39.2271 24.3759 38.4258 23.5746 38.4258 22.5869C38.4258 21.5991 39.2271 20.7979 40.2162 20.7979C41.2054 20.7979 42.0067 21.5991 42.0067 22.5869Z" fill="#23272B"/>
<path d="M42.0067 22.5869C42.0067 23.5746 41.2054 24.3759 40.2162 24.3759C39.2271 24.3759 38.4258 23.5746 38.4258 22.5869C38.4258 21.5991 39.2271 20.7979 40.2162 20.7979C41.2054 20.7979 42.0067 21.5991 42.0067 22.5869Z" stroke="black"/>
<path d="M42.0067 22.5869C42.0067 23.5746 41.2054 24.3759 40.2162 24.3759C39.2271 24.3759 38.4258 23.5746 38.4258 22.5869C38.4258 21.5991 39.2271 20.7979 40.2162 20.7979C41.2054 20.7979 42.0067 21.5991 42.0067 22.5869Z" stroke="url(#paint2_linear)"/>
<path d="M32.8583 14.8046C32.8583 15.7924 32.0569 16.5936 31.0678 16.5936C30.0787 16.5936 29.2773 15.7924 29.2773 14.8046C29.2773 13.8169 30.0787 13.0156 31.0678 13.0156C32.0569 13.0156 32.8583 13.8169 32.8583 14.8046Z" fill="#23272B"/>
<path d="M32.8583 14.8046C32.8583 15.7924 32.0569 16.5936 31.0678 16.5936C30.0787 16.5936 29.2773 15.7924 29.2773 14.8046C29.2773 13.8169 30.0787 13.0156 31.0678 13.0156C32.0569 13.0156 32.8583 13.8169 32.8583 14.8046Z" stroke="black"/>
<path d="M32.8583 14.8046C32.8583 15.7924 32.0569 16.5936 31.0678 16.5936C30.0787 16.5936 29.2773 15.7924 29.2773 14.8046C29.2773 13.8169 30.0787 13.0156 31.0678 13.0156C32.0569 13.0156 32.8583 13.8169 32.8583 14.8046Z" stroke="url(#paint3_linear)"/>
<path d="M38.5731 17.3222C38.5731 18.3099 37.7718 19.1112 36.7826 19.1112C35.7935 19.1112 34.9922 18.3099 34.9922 17.3222C34.9922 16.3345 35.7935 15.5332 36.7826 15.5332C37.7718 15.5332 38.5731 16.3345 38.5731 17.3222Z" fill="#23272B"/>
<path d="M38.5731 17.3222C38.5731 18.3099 37.7718 19.1112 36.7826 19.1112C35.7935 19.1112 34.9922 18.3099 34.9922 17.3222C34.9922 16.3345 35.7935 15.5332 36.7826 15.5332C37.7718 15.5332 38.5731 16.3345 38.5731 17.3222Z" stroke="black"/>
<path d="M38.5731 17.3222C38.5731 18.3099 37.7718 19.1112 36.7826 19.1112C35.7935 19.1112 34.9922 18.3099 34.9922 17.3222C34.9922 16.3345 35.7935 15.5332 36.7826 15.5332C37.7718 15.5332 38.5731 16.3345 38.5731 17.3222Z" stroke="url(#paint4_linear)"/>
<path d="M17.577 22.5869C17.577 23.5746 16.7757 24.3759 15.7866 24.3759C14.7974 24.3759 13.9961 23.5746 13.9961 22.5869C13.9961 21.5991 14.7974 20.7979 15.7866 20.7979C16.7757 20.7979 17.577 21.5991 17.577 22.5869Z" fill="#414952"/>
<path d="M17.577 22.5869C17.577 23.5746 16.7757 24.3759 15.7866 24.3759C14.7974 24.3759 13.9961 23.5746 13.9961 22.5869C13.9961 21.5991 14.7974 20.7979 15.7866 20.7979C16.7757 20.7979 17.577 21.5991 17.577 22.5869Z" stroke="black"/>
<path d="M17.577 22.5869C17.577 23.5746 16.7757 24.3759 15.7866 24.3759C14.7974 24.3759 13.9961 23.5746 13.9961 22.5869C13.9961 21.5991 14.7974 20.7979 15.7866 20.7979C16.7757 20.7979 17.577 21.5991 17.577 22.5869Z" stroke="url(#paint5_linear)"/>
<path d="M26.7215 14.8046C26.7215 15.7924 25.9202 16.5936 24.9311 16.5936C23.9419 16.5936 23.1406 15.7924 23.1406 14.8046C23.1406 13.8169 23.9419 13.0156 24.9311 13.0156C25.9202 13.0156 26.7215 13.8169 26.7215 14.8046Z" fill="#414952"/>
<path d="M26.7215 14.8046C26.7215 15.7924 25.9202 16.5936 24.9311 16.5936C23.9419 16.5936 23.1406 15.7924 23.1406 14.8046C23.1406 13.8169 23.9419 13.0156 24.9311 13.0156C25.9202 13.0156 26.7215 13.8169 26.7215 14.8046Z" stroke="black"/>
<path d="M26.7215 14.8046C26.7215 15.7924 25.9202 16.5936 24.9311 16.5936C23.9419 16.5936 23.1406 15.7924 23.1406 14.8046C23.1406 13.8169 23.9419 13.0156 24.9311 13.0156C25.9202 13.0156 26.7215 13.8169 26.7215 14.8046Z" stroke="url(#paint6_linear)"/>
<path d="M21.0106 17.3222C21.0106 18.3099 20.2093 19.1112 19.2201 19.1112C18.231 19.1112 17.4297 18.3099 17.4297 17.3222C17.4297 16.3345 18.231 15.5332 19.2201 15.5332C20.2093 15.5332 21.0106 16.3345 21.0106 17.3222Z" fill="#414952"/>
<path d="M21.0106 17.3222C21.0106 18.3099 20.2093 19.1112 19.2201 19.1112C18.231 19.1112 17.4297 18.3099 17.4297 17.3222C17.4297 16.3345 18.231 15.5332 19.2201 15.5332C20.2093 15.5332 21.0106 16.3345 21.0106 17.3222Z" stroke="black"/>
<path d="M21.0106 17.3222C21.0106 18.3099 20.2093 19.1112 19.2201 19.1112C18.231 19.1112 17.4297 18.3099 17.4297 17.3222C17.4297 16.3345 18.231 15.5332 19.2201 15.5332C20.2093 15.5332 21.0106 16.3345 21.0106 17.3222Z" stroke="url(#paint7_linear)"/>
<path d="M40.25 26.2237V26.3117C40.2353 27.2472 39.9844 27.9294 39.5699 28.4443C39.1372 28.9819 38.4881 29.3842 37.6158 29.6775L37.2752 29.7921V30.1514V39.7306C37.2752 40.3194 37.0412 40.8841 36.6245 41.3005C36.2078 41.717 35.6425 41.951 35.0531 41.951C34.4636 41.951 33.8983 41.717 33.4816 41.3005C33.0649 40.8841 32.8309 40.3194 32.8309 39.7306V30.8532V30.3411L32.3189 30.3534C31.8016 30.3658 31.2676 30.3726 30.7194 30.376L30.2225 30.379V30.876V41.7609C30.2225 42.3497 29.9884 42.9144 29.5717 43.3308C29.155 43.7473 28.5898 43.9813 28.0003 43.9813C27.4109 43.9813 26.8456 43.7473 26.4289 43.3308C26.0122 42.9144 25.7782 42.3497 25.7782 41.7609V30.8748V30.3771L25.2804 30.3748C24.7328 30.3723 24.1996 30.3656 23.6826 30.3523L23.1698 30.3391V30.8521V39.7294C23.1698 40.3182 22.9357 40.883 22.519 41.2994C22.1023 41.7158 21.5371 41.9499 20.9476 41.9499C20.3582 41.9499 19.7929 41.7158 19.3762 41.2994C18.9595 40.883 18.7255 40.3182 18.7255 39.7294V30.151V29.7916L18.3848 29.677C17.5125 29.3838 16.8635 28.9815 16.4307 28.4439C16.0034 27.9131 15.75 27.2044 15.75 26.2237C15.75 23.976 17.0891 21.2162 19.3355 19.0016C21.5719 16.797 24.6393 15.2021 28 15.2021C31.3606 15.2021 34.4281 16.797 36.6645 19.0016C38.9108 21.2162 40.25 23.976 40.25 26.2237Z" fill="#555A66"/>
<path d="M40.25 26.2237V26.3117C40.2353 27.2472 39.9844 27.9294 39.5699 28.4443C39.1372 28.9819 38.4881 29.3842 37.6158 29.6775L37.2752 29.7921V30.1514V39.7306C37.2752 40.3194 37.0412 40.8841 36.6245 41.3005C36.2078 41.717 35.6425 41.951 35.0531 41.951C34.4636 41.951 33.8983 41.717 33.4816 41.3005C33.0649 40.8841 32.8309 40.3194 32.8309 39.7306V30.8532V30.3411L32.3189 30.3534C31.8016 30.3658 31.2676 30.3726 30.7194 30.376L30.2225 30.379V30.876V41.7609C30.2225 42.3497 29.9884 42.9144 29.5717 43.3308C29.155 43.7473 28.5898 43.9813 28.0003 43.9813C27.4109 43.9813 26.8456 43.7473 26.4289 43.3308C26.0122 42.9144 25.7782 42.3497 25.7782 41.7609V30.8748V30.3771L25.2804 30.3748C24.7328 30.3723 24.1996 30.3656 23.6826 30.3523L23.1698 30.3391V30.8521V39.7294C23.1698 40.3182 22.9357 40.883 22.519 41.2994C22.1023 41.7158 21.5371 41.9499 20.9476 41.9499C20.3582 41.9499 19.7929 41.7158 19.3762 41.2994C18.9595 40.883 18.7255 40.3182 18.7255 39.7294V30.151V29.7916L18.3848 29.677C17.5125 29.3838 16.8635 28.9815 16.4307 28.4439C16.0034 27.9131 15.75 27.2044 15.75 26.2237C15.75 23.976 17.0891 21.2162 19.3355 19.0016C21.5719 16.797 24.6393 15.2021 28 15.2021C31.3606 15.2021 34.4281 16.797 36.6645 19.0016C38.9108 21.2162 40.25 23.976 40.25 26.2237Z" stroke="black"/>
<path d="M40.25 26.2237V26.3117C40.2353 27.2472 39.9844 27.9294 39.5699 28.4443C39.1372 28.9819 38.4881 29.3842 37.6158 29.6775L37.2752 29.7921V30.1514V39.7306C37.2752 40.3194 37.0412 40.8841 36.6245 41.3005C36.2078 41.717 35.6425 41.951 35.0531 41.951C34.4636 41.951 33.8983 41.717 33.4816 41.3005C33.0649 40.8841 32.8309 40.3194 32.8309 39.7306V30.8532V30.3411L32.3189 30.3534C31.8016 30.3658 31.2676 30.3726 30.7194 30.376L30.2225 30.379V30.876V41.7609C30.2225 42.3497 29.9884 42.9144 29.5717 43.3308C29.155 43.7473 28.5898 43.9813 28.0003 43.9813C27.4109 43.9813 26.8456 43.7473 26.4289 43.3308C26.0122 42.9144 25.7782 42.3497 25.7782 41.7609V30.8748V30.3771L25.2804 30.3748C24.7328 30.3723 24.1996 30.3656 23.6826 30.3523L23.1698 30.3391V30.8521V39.7294C23.1698 40.3182 22.9357 40.883 22.519 41.2994C22.1023 41.7158 21.5371 41.9499 20.9476 41.9499C20.3582 41.9499 19.7929 41.7158 19.3762 41.2994C18.9595 40.883 18.7255 40.3182 18.7255 39.7294V30.151V29.7916L18.3848 29.677C17.5125 29.3838 16.8635 28.9815 16.4307 28.4439C16.0034 27.9131 15.75 27.2044 15.75 26.2237C15.75 23.976 17.0891 21.2162 19.3355 19.0016C21.5719 16.797 24.6393 15.2021 28 15.2021C31.3606 15.2021 34.4281 16.797 36.6645 19.0016C38.9108 21.2162 40.25 23.976 40.25 26.2237Z" stroke="url(#paint8_linear)"/>
<path d="M29.5718 43.3316C29.2721 43.6312 28.8955 43.8363 28.4883 43.9279V15.214C31.6575 15.3592 34.5376 16.9047 36.6654 19.0023C38.9117 21.2168 40.2508 23.9767 40.2508 26.2244C40.2508 27.2051 39.9974 27.9137 39.57 28.4445C39.1373 28.9821 38.4882 29.3844 37.6159 29.6777L37.2753 29.7923V30.1517V39.7297C37.2753 40.3185 37.0413 40.8832 36.6246 41.2996C36.2079 41.7161 35.6426 41.9501 35.0532 41.9501C34.4637 41.9501 33.8985 41.7161 33.4818 41.2996C33.0651 40.8832 32.831 40.3185 32.831 39.7297V30.8533V30.3411L32.319 30.3534C31.8017 30.3658 31.2677 30.3726 30.7195 30.376L30.2226 30.3791V30.876V41.7617C30.2226 41.7618 30.2226 41.7618 30.2226 41.7618C30.2225 42.3505 29.9885 42.9152 29.5718 43.3316Z" fill="#333940"/>
<path d="M29.5718 43.3316C29.2721 43.6312 28.8955 43.8363 28.4883 43.9279V15.214C31.6575 15.3592 34.5376 16.9047 36.6654 19.0023C38.9117 21.2168 40.2508 23.9767 40.2508 26.2244C40.2508 27.2051 39.9974 27.9137 39.57 28.4445C39.1373 28.9821 38.4882 29.3844 37.6159 29.6777L37.2753 29.7923V30.1517V39.7297C37.2753 40.3185 37.0413 40.8832 36.6246 41.2996C36.2079 41.7161 35.6426 41.9501 35.0532 41.9501C34.4637 41.9501 33.8985 41.7161 33.4818 41.2996C33.0651 40.8832 32.831 40.3185 32.831 39.7297V30.8533V30.3411L32.319 30.3534C31.8017 30.3658 31.2677 30.3726 30.7195 30.376L30.2226 30.3791V30.876V41.7617C30.2226 41.7618 30.2226 41.7618 30.2226 41.7618C30.2225 42.3505 29.9885 42.9152 29.5718 43.3316Z" stroke="black"/>
<path d="M29.5718 43.3316C29.2721 43.6312 28.8955 43.8363 28.4883 43.9279V15.214C31.6575 15.3592 34.5376 16.9047 36.6654 19.0023C38.9117 21.2168 40.2508 23.9767 40.2508 26.2244C40.2508 27.2051 39.9974 27.9137 39.57 28.4445C39.1373 28.9821 38.4882 29.3844 37.6159 29.6777L37.2753 29.7923V30.1517V39.7297C37.2753 40.3185 37.0413 40.8832 36.6246 41.2996C36.2079 41.7161 35.6426 41.9501 35.0532 41.9501C34.4637 41.9501 33.8985 41.7161 33.4818 41.2996C33.0651 40.8832 32.831 40.3185 32.831 39.7297V30.8533V30.3411L32.319 30.3534C31.8017 30.3658 31.2677 30.3726 30.7195 30.376L30.2226 30.3791V30.876V41.7617C30.2226 41.7618 30.2226 41.7618 30.2226 41.7618C30.2225 42.3505 29.9885 42.9152 29.5718 43.3316Z" stroke="url(#paint9_linear)"/>
<path d="M31.6248 22.8528C31.6248 24.8519 30.0031 26.4731 28.0019 26.4731C26.0007 26.4731 24.3789 24.8519 24.3789 22.8528C24.3789 20.8536 26.0007 19.2324 28.0019 19.2324C30.0031 19.2324 31.6248 20.8536 31.6248 22.8528Z" fill="white"/>
<path d="M31.6248 22.8528C31.6248 24.8519 30.0031 26.4731 28.0019 26.4731C26.0007 26.4731 24.3789 24.8519 24.3789 22.8528C24.3789 20.8536 26.0007 19.2324 28.0019 19.2324C30.0031 19.2324 31.6248 20.8536 31.6248 22.8528Z" stroke="black"/>
<path d="M31.6248 22.8528C31.6248 24.8519 30.0031 26.4731 28.0019 26.4731C26.0007 26.4731 24.3789 24.8519 24.3789 22.8528C24.3789 20.8536 26.0007 19.2324 28.0019 19.2324C30.0031 19.2324 31.6248 20.8536 31.6248 22.8528Z" stroke="url(#paint10_linear)"/>
<path d="M28.4883 26.4392V19.2644C29.2691 19.3704 29.9991 19.7289 30.5625 20.2919C31.2419 20.9709 31.6235 21.8917 31.6235 22.8518C31.6235 23.8119 31.2419 24.7327 30.5625 25.4116C29.9991 25.9747 29.2691 26.3332 28.4883 26.4392Z" fill="#E9EDF5"/>
<path d="M28.4883 26.4392V19.2644C29.2691 19.3704 29.9991 19.7289 30.5625 20.2919C31.2419 20.9709 31.6235 21.8917 31.6235 22.8518C31.6235 23.8119 31.2419 24.7327 30.5625 25.4116C29.9991 25.9747 29.2691 26.3332 28.4883 26.4392Z" stroke="black"/>
<path d="M28.4883 26.4392V19.2644C29.2691 19.3704 29.9991 19.7289 30.5625 20.2919C31.2419 20.9709 31.6235 21.8917 31.6235 22.8518C31.6235 23.8119 31.2419 24.7327 30.5625 25.4116C29.9991 25.9747 29.2691 26.3332 28.4883 26.4392Z" stroke="url(#paint11_linear)"/>
<path d="M29.6686 22.8524C29.6686 23.7738 28.9211 24.5213 27.9984 24.5213C27.0756 24.5213 26.3281 23.7738 26.3281 22.8524C26.3281 21.9311 27.0756 21.1836 27.9984 21.1836C28.9211 21.1836 29.6686 21.9311 29.6686 22.8524Z" fill="#333940"/>
<path d="M29.6686 22.8524C29.6686 23.7738 28.9211 24.5213 27.9984 24.5213C27.0756 24.5213 26.3281 23.7738 26.3281 22.8524C26.3281 21.9311 27.0756 21.1836 27.9984 21.1836C28.9211 21.1836 29.6686 21.9311 29.6686 22.8524Z" stroke="black"/>
<path d="M29.6686 22.8524C29.6686 23.7738 28.9211 24.5213 27.9984 24.5213C27.0756 24.5213 26.3281 23.7738 26.3281 22.8524C26.3281 21.9311 27.0756 21.1836 27.9984 21.1836C28.9211 21.1836 29.6686 21.9311 29.6686 22.8524Z" stroke="url(#paint12_linear)"/>
<path d="M28.4883 24.45V21.2573C28.7478 21.3365 28.9865 21.4783 29.1818 21.6735C29.4951 21.9866 29.671 22.4111 29.671 22.8537C29.671 23.2962 29.4951 23.7207 29.1818 24.0338C28.9865 24.229 28.7478 24.3708 28.4883 24.45Z" fill="#0C0E0F"/>
<path d="M28.4883 24.45V21.2573C28.7478 21.3365 28.9865 21.4783 29.1818 21.6735C29.4951 21.9866 29.671 22.4111 29.671 22.8537C29.671 23.2962 29.4951 23.7207 29.1818 24.0338C28.9865 24.229 28.7478 24.3708 28.4883 24.45Z" stroke="black"/>
<path d="M28.4883 24.45V21.2573C28.7478 21.3365 28.9865 21.4783 29.1818 21.6735C29.4951 21.9866 29.671 22.4111 29.671 22.8537C29.671 23.2962 29.4951 23.7207 29.1818 24.0338C28.9865 24.229 28.7478 24.3708 28.4883 24.45Z" stroke="url(#paint13_linear)"/>
<path d="M33.7273 26.869H22.2748C21.7999 26.869 21.3444 26.6805 21.0087 26.3449C20.6729 26.0094 20.4844 25.5544 20.4844 25.08C20.4844 24.6056 20.6729 24.1506 21.0087 23.8151C21.3444 23.4796 21.7999 23.291 22.2748 23.291H33.7273C34.2023 23.291 34.6577 23.4796 34.9935 23.8151C35.3292 24.1506 35.5178 24.6056 35.5178 25.08C35.5178 25.5544 35.3292 26.0094 34.9935 26.3449C34.6577 26.6805 34.2023 26.869 33.7273 26.869Z" fill="#9196AA"/>
<path d="M33.7273 26.869H22.2748C21.7999 26.869 21.3444 26.6805 21.0087 26.3449C20.6729 26.0094 20.4844 25.5544 20.4844 25.08C20.4844 24.6056 20.6729 24.1506 21.0087 23.8151C21.3444 23.4796 21.7999 23.291 22.2748 23.291H33.7273C34.2023 23.291 34.6577 23.4796 34.9935 23.8151C35.3292 24.1506 35.5178 24.6056 35.5178 25.08C35.5178 25.5544 35.3292 26.0094 34.9935 26.3449C34.6577 26.6805 34.2023 26.869 33.7273 26.869Z" stroke="black"/>
<path d="M33.7273 26.869H22.2748C21.7999 26.869 21.3444 26.6805 21.0087 26.3449C20.6729 26.0094 20.4844 25.5544 20.4844 25.08C20.4844 24.6056 20.6729 24.1506 21.0087 23.8151C21.3444 23.4796 21.7999 23.291 22.2748 23.291H33.7273C34.2023 23.291 34.6577 23.4796 34.9935 23.8151C35.3292 24.1506 35.5178 24.6056 35.5178 25.08C35.5178 25.5544 35.3292 26.0094 34.9935 26.3449C34.6577 26.6805 34.2023 26.869 33.7273 26.869Z" stroke="url(#paint14_linear)"/>
<path d="M28.4883 26.8683V23.29H33.7267C34.2017 23.29 34.6572 23.4786 34.9929 23.8142C35.3287 24.1497 35.5173 24.6048 35.5173 25.0792C35.5173 25.5536 35.3287 26.0086 34.9929 26.3441C34.6572 26.6797 34.2017 26.8683 33.7267 26.8683H28.4883Z" fill="#707789"/>
<path d="M28.4883 26.8683V23.29H33.7267C34.2017 23.29 34.6572 23.4786 34.9929 23.8142C35.3287 24.1497 35.5173 24.6048 35.5173 25.0792C35.5173 25.5536 35.3287 26.0086 34.9929 26.3441C34.6572 26.6797 34.2017 26.8683 33.7267 26.8683H28.4883Z" stroke="black"/>
<path d="M28.4883 26.8683V23.29H33.7267C34.2017 23.29 34.6572 23.4786 34.9929 23.8142C35.3287 24.1497 35.5173 24.6048 35.5173 25.0792C35.5173 25.5536 35.3287 26.0086 34.9929 26.3441C34.6572 26.6797 34.2017 26.8683 33.7267 26.8683H28.4883Z" stroke="url(#paint15_linear)"/>
<defs>
<linearGradient id="paint0_linear" x1="28" y1="8" x2="28" y2="47.9746" gradientUnits="userSpaceOnUse">
<stop stop-color="white"/>
<stop offset="1" stop-color="white" stop-opacity="0"/>
</linearGradient>
<linearGradient id="paint1_linear" x1="31.1963" y1="13.3408" x2="31.1963" y2="48.0003" gradientUnits="userSpaceOnUse">
<stop stop-color="white"/>
<stop offset="1" stop-color="white" stop-opacity="0"/>
</linearGradient>
<linearGradient id="paint2_linear" x1="40.2162" y1="20.2979" x2="40.2162" y2="24.8759" gradientUnits="userSpaceOnUse">
<stop stop-color="white"/>
<stop offset="1" stop-color="white" stop-opacity="0"/>
</linearGradient>
<linearGradient id="paint3_linear" x1="31.0678" y1="12.5156" x2="31.0678" y2="17.0936" gradientUnits="userSpaceOnUse">
<stop stop-color="white"/>
<stop offset="1" stop-color="white" stop-opacity="0"/>
</linearGradient>
<linearGradient id="paint4_linear" x1="36.7826" y1="15.0332" x2="36.7826" y2="19.6112" gradientUnits="userSpaceOnUse">
<stop stop-color="white"/>
<stop offset="1" stop-color="white" stop-opacity="0"/>
</linearGradient>
<linearGradient id="paint5_linear" x1="15.7866" y1="20.2979" x2="15.7866" y2="24.8759" gradientUnits="userSpaceOnUse">
<stop stop-color="white"/>
<stop offset="1" stop-color="white" stop-opacity="0"/>
</linearGradient>
<linearGradient id="paint6_linear" x1="24.9311" y1="12.5156" x2="24.9311" y2="17.0936" gradientUnits="userSpaceOnUse">
<stop stop-color="white"/>
<stop offset="1" stop-color="white" stop-opacity="0"/>
</linearGradient>
<linearGradient id="paint7_linear" x1="19.2201" y1="15.0332" x2="19.2201" y2="19.6112" gradientUnits="userSpaceOnUse">
<stop stop-color="white"/>
<stop offset="1" stop-color="white" stop-opacity="0"/>
</linearGradient>
<linearGradient id="paint8_linear" x1="28.0003" y1="14.7021" x2="28.0003" y2="44.4813" gradientUnits="userSpaceOnUse">
<stop stop-color="white"/>
<stop offset="1" stop-color="white" stop-opacity="0"/>
</linearGradient>
<linearGradient id="paint9_linear" x1="34.3695" y1="14.7021" x2="34.3695" y2="44.4821" gradientUnits="userSpaceOnUse">
<stop stop-color="white"/>
<stop offset="1" stop-color="white" stop-opacity="0"/>
</linearGradient>
<linearGradient id="paint10_linear" x1="28.0019" y1="18.7324" x2="28.0019" y2="26.9731" gradientUnits="userSpaceOnUse">
<stop stop-color="white"/>
<stop offset="1" stop-color="white" stop-opacity="0"/>
</linearGradient>
<linearGradient id="paint11_linear" x1="30.0559" y1="18.7314" x2="30.0559" y2="26.9721" gradientUnits="userSpaceOnUse">
<stop stop-color="white"/>
<stop offset="1" stop-color="white" stop-opacity="0"/>
</linearGradient>
<linearGradient id="paint12_linear" x1="27.9984" y1="20.6836" x2="27.9984" y2="25.0213" gradientUnits="userSpaceOnUse">
<stop stop-color="white"/>
<stop offset="1" stop-color="white" stop-opacity="0"/>
</linearGradient>
<linearGradient id="paint13_linear" x1="29.0796" y1="20.6846" x2="29.0796" y2="25.0227" gradientUnits="userSpaceOnUse">
<stop stop-color="white"/>
<stop offset="1" stop-color="white" stop-opacity="0"/>
</linearGradient>
<linearGradient id="paint14_linear" x1="28.0011" y1="22.791" x2="28.0011" y2="27.369" gradientUnits="userSpaceOnUse">
<stop stop-color="white"/>
<stop offset="1" stop-color="white" stop-opacity="0"/>
</linearGradient>
<linearGradient id="paint15_linear" x1="32.0028" y1="22.79" x2="32.0028" y2="27.3683" gradientUnits="userSpaceOnUse">
<stop stop-color="white"/>
<stop offset="1" stop-color="white" stop-opacity="0"/>
</linearGradient>
</defs>
</svg>
