<svg width="56" height="56" viewBox="0 0 56 56" fill="none" xmlns="http://www.w3.org/2000/svg">
<rect width="56" height="56" rx="12" fill="#DF640E"/>
<path d="M27.9991 48C39.0444 48 47.9983 39.0457 47.9983 28C47.9983 16.9543 39.0444 8 27.9991 8C16.9539 8 8 16.9543 8 28C8 39.0457 16.9539 48 27.9991 48Z" fill="#FFA700"/>
<path d="M48.0007 27.9439C48.0011 26.7377 47.8927 25.5339 47.6769 24.3472L41.4355 18.1045C41.251 17.9146 41.0304 17.7636 40.7866 17.6604C40.5428 17.5573 40.2808 17.5041 40.0161 17.5039H16.0999C15.5735 17.5055 15.0691 17.7153 14.6969 18.0876C14.3247 18.4598 14.1149 18.9642 14.1133 19.4906V36.3994C14.1135 36.6794 14.173 36.9563 14.2879 37.2117C14.4028 37.467 14.5705 37.6952 14.7799 37.8811L24.4851 47.566C27.3591 48.0868 30.3124 47.9704 33.1365 47.2249C35.9606 46.4795 38.5867 45.1232 40.8293 43.2519C43.072 41.3805 44.8766 39.0397 46.1157 36.3947C47.3549 33.7496 47.9983 30.8648 48.0007 27.9439Z" fill="#FF6900"/>
<path d="M40.0144 38.3833H16.0999C15.5739 38.3817 15.0698 38.1721 14.6977 37.8004C14.3256 37.4287 14.1155 36.9248 14.1133 36.3988V19.4906C14.1149 18.9642 14.3247 18.4598 14.6969 18.0876C15.0691 17.7153 15.5735 17.5055 16.0999 17.5039H40.0144C40.5408 17.5055 41.0451 17.7153 41.4173 18.0876C41.7896 18.4598 41.9994 18.9642 42.001 19.4906V36.3988C41.9988 36.9248 41.7887 37.4287 41.4166 37.8004C41.0444 38.1721 40.5404 38.3817 40.0144 38.3833Z" fill="#006EF5"/>
<path d="M41.9985 19.4906V36.3983C41.997 36.9247 41.7873 37.4292 41.415 37.8014C41.0428 38.1737 40.5383 38.3835 40.0119 38.3849H28.0547V17.5039H40.0119C40.5383 17.5054 41.0428 17.7152 41.415 18.0874C41.7873 18.4597 41.997 18.9641 41.9985 19.4906Z" fill="#0043A3"/>
<path d="M18.7985 20.1758H16.3047V22.6697H18.7985V20.1758Z" fill="white"/>
<path d="M18.7985 24.5225H16.3047V27.0164H18.7985V24.5225Z" fill="white"/>
<path d="M18.7985 28.8701H16.3047V31.3639H18.7985V28.8701Z" fill="white"/>
<path d="M18.7985 33.2178H16.3047V35.7116H18.7985V33.2178Z" fill="white"/>
<path d="M39.8063 20.1758H37.3125V22.6697H39.8063V20.1758Z" fill="#FFF4AA"/>
<path d="M39.8063 24.5225H37.3125V27.0164H39.8063V24.5225Z" fill="#FFF4AA"/>
<path d="M39.8063 28.8701H37.3125V31.3639H39.8063V28.8701Z" fill="#FFF4AA"/>
<path d="M39.8063 33.2178H37.3125V35.7116H39.8063V33.2178Z" fill="#FFF4AA"/>
<path d="M24.3555 23.0332V32.8481L32.7685 27.9404L24.3555 23.0332Z" fill="white"/>
<path d="M32.7679 27.9435L28.0547 30.6924V25.1924L32.7679 27.9435Z" fill="#FFF4AA"/>
</svg>
