<svg width="24" height="24" viewBox="0 0 24 24" fill="none" xmlns="http://www.w3.org/2000/svg">
<path d="M24 7.92188C24 6.35578 24 5.26017 24 5.15625C24 3.99314 23.0537 3.04688 21.8906 3.04688H21.6094V5.625C21.6094 6.01331 21.2946 6.32812 20.9062 6.32812C20.5179 6.32812 20.2031 6.01331 20.2031 5.625C20.2031 4.83567 20.2031 2.661 20.2031 1.875C20.2031 1.48669 19.8883 1.17188 19.5 1.17188C19.1117 1.17188 18.7969 1.48669 18.7969 1.875V3.04688H14.1094V5.625C14.1094 6.01331 13.7946 6.32812 13.4062 6.32812C13.0179 6.32812 12.7031 6.01331 12.7031 5.625C12.7031 4.83567 12.7031 2.661 12.7031 1.875C12.7031 1.48669 12.3883 1.17188 12 1.17188C11.6117 1.17188 11.2969 1.48669 11.2969 1.875V3.04688H6.60938V5.625C6.60938 6.01331 6.29456 6.32812 5.90625 6.32812C5.51794 6.32812 5.20312 6.01331 5.20312 5.625C5.20312 4.83567 5.20312 2.661 5.20312 1.875C5.20312 1.48669 4.88831 1.17188 4.5 1.17188C4.11169 1.17188 3.79688 1.48669 3.79688 1.875V3.04688H2.10938C0.946266 3.04688 0 3.99314 0 5.15625V7.92188H24Z" fill="white"/>
<path d="M0 9.32812V20.7188C0 21.8819 0.946266 22.8281 2.10938 22.8281H21.8906C23.0537 22.8281 24 21.8819 24 20.7188C24 20.4176 24 13.8369 24 9.32812C23.5624 9.32812 0.242063 9.32812 0 9.32812ZM6.75 19.0781H5.25C4.86169 19.0781 4.54688 18.7633 4.54688 18.375C4.54688 17.9867 4.86169 17.6719 5.25 17.6719H6.75C7.13831 17.6719 7.45312 17.9867 7.45312 18.375C7.45312 18.7633 7.13831 19.0781 6.75 19.0781ZM6.75 16.0781H5.25C4.86169 16.0781 4.54688 15.7633 4.54688 15.375C4.54688 14.9867 4.86169 14.6719 5.25 14.6719H6.75C7.13831 14.6719 7.45312 14.9867 7.45312 15.375C7.45312 15.7633 7.13831 16.0781 6.75 16.0781ZM6.75 13.0781H5.25C4.86169 13.0781 4.54688 12.7633 4.54688 12.375C4.54688 11.9867 4.86169 11.6719 5.25 11.6719H6.75C7.13831 11.6719 7.45312 11.9867 7.45312 12.375C7.45312 12.7633 7.13831 13.0781 6.75 13.0781ZM12.75 19.0781H11.25C10.8617 19.0781 10.5469 18.7633 10.5469 18.375C10.5469 17.9867 10.8617 17.6719 11.25 17.6719H12.75C13.1383 17.6719 13.4531 17.9867 13.4531 18.375C13.4531 18.7633 13.1383 19.0781 12.75 19.0781ZM12.75 16.0781H11.25C10.8617 16.0781 10.5469 15.7633 10.5469 15.375C10.5469 14.9867 10.8617 14.6719 11.25 14.6719H12.75C13.1383 14.6719 13.4531 14.9867 13.4531 15.375C13.4531 15.7633 13.1383 16.0781 12.75 16.0781ZM12.75 13.0781H11.25C10.8617 13.0781 10.5469 12.7633 10.5469 12.375C10.5469 11.9867 10.8617 11.6719 11.25 11.6719H12.75C13.1383 11.6719 13.4531 11.9867 13.4531 12.375C13.4531 12.7633 13.1383 13.0781 12.75 13.0781ZM18.75 19.0781H17.25C16.8617 19.0781 16.5469 18.7633 16.5469 18.375C16.5469 17.9867 16.8617 17.6719 17.25 17.6719H18.75C19.1383 17.6719 19.4531 17.9867 19.4531 18.375C19.4531 18.7633 19.1383 19.0781 18.75 19.0781ZM18.75 16.0781H17.25C16.8617 16.0781 16.5469 15.7633 16.5469 15.375C16.5469 14.9867 16.8617 14.6719 17.25 14.6719H18.75C19.1383 14.6719 19.4531 14.9867 19.4531 15.375C19.4531 15.7633 19.1383 16.0781 18.75 16.0781ZM18.75 13.0781H17.25C16.8617 13.0781 16.5469 12.7633 16.5469 12.375C16.5469 11.9867 16.8617 11.6719 17.25 11.6719H18.75C19.1383 11.6719 19.4531 11.9867 19.4531 12.375C19.4531 12.7633 19.1383 13.0781 18.75 13.0781Z" fill="white"/>
</svg>
