<svg width="24" height="24" viewBox="0 0 24 24" fill="none" xmlns="http://www.w3.org/2000/svg">
<g clip-path="url(#clip0)">
<path d="M12.3883 19.4397H11.2291C10.4128 19.4397 9.74931 20.1031 9.74931 20.9195V22.5202C9.74931 23.3365 10.4128 24 11.2291 24H12.3883C13.2047 24 13.8681 23.3365 13.8681 22.5202V20.9195C13.8681 20.1007 13.2047 19.4397 12.3883 19.4397Z" fill="white"/>
<path d="M4.21458 7.04881L6.3529 7.31518C7.03114 7.39903 7.67486 7.00935 7.91903 6.37057C8.22732 5.56407 8.65646 4.92776 9.20646 4.46408C9.98585 3.80804 10.9551 3.47755 12.1143 3.47755C13.3154 3.47755 14.2723 3.79324 14.9826 4.42216C15.6929 5.05354 16.0456 5.80824 16.0456 6.69366C16.0456 7.32998 15.8459 7.91203 15.4463 8.43983C15.1873 8.77525 14.3907 9.48063 13.0614 10.5584C11.7295 11.6362 10.8441 12.6079 10.4002 13.4711C9.94638 14.3541 9.78854 15.3332 9.74908 16.3149C9.71457 17.1559 10.3854 17.8563 11.2289 17.8563H12.4374C13.2069 17.8563 13.8432 17.2669 13.9123 16.5023C13.9616 15.9523 14.0528 15.5355 14.191 15.2519C14.4228 14.766 15.0221 14.1248 15.984 13.3257C17.8461 11.7842 19.0595 10.5658 19.6292 9.66807C20.1965 8.77279 20.4826 7.82325 20.4826 6.81944C20.4826 5.00668 19.7106 3.41589 18.1642 2.04953C16.6203 0.683177 14.5387 0 11.9244 0C9.43832 0 7.43318 0.673312 5.90405 2.0224C4.60182 3.17172 3.81012 4.53314 3.53143 6.1042C3.44508 6.56294 3.75831 6.99209 4.21458 7.04881Z" fill="white"/>
</g>
<defs>
<clipPath id="clip0">
<rect width="24" height="24" fill="white"/>
</clipPath>
</defs>
</svg>
