<svg width="24" height="24" viewBox="0 0 24 24" fill="none" xmlns="http://www.w3.org/2000/svg">
<path d="M6 9.42676H0.858577C0.386611 9.42676 0.00502092 9.80835 0 10.2853V23.1389C0 23.6159 0.386611 23.9975 0.858577 23.9975H6C6.47699 23.9975 6.85858 23.6109 6.85858 23.1389V10.2853C6.85858 9.80835 6.47197 9.42676 6 9.42676Z" fill="white"/>
<path d="M14.5705 0.00268555H9.42911C8.95714 0.00268555 8.57053 0.384276 8.57053 0.856242V23.1391C8.57053 23.6161 8.95714 23.9977 9.42911 23.9977H14.5705C15.0475 23.9977 15.4291 23.6111 15.4291 23.1391V0.861263C15.4291 0.384276 15.0425 0.00268555 14.5705 0.00268555Z" fill="white"/>
<path d="M23.141 6.8562H17.9996C17.5226 6.8562 17.141 7.23779 17.141 7.71478V23.139C17.141 23.616 17.5277 23.9976 17.9996 23.9976H23.141C23.618 23.9976 23.9996 23.611 23.9996 23.139V7.71478C23.9996 7.23779 23.613 6.8562 23.141 6.8562Z" fill="white"/>
</svg>
