<svg width="24" height="24" viewBox="0 0 24 24" fill="none" xmlns="http://www.w3.org/2000/svg">
<path d="M20.5354 12.812H18.6793C18.8685 13.33 18.9718 13.889 18.9718 14.4716V21.4864C18.9718 21.7293 18.9296 21.9625 18.8526 22.1793H21.9211C23.0673 22.1793 23.9998 21.2468 23.9998 20.1006V16.2765C23.9999 14.3662 22.4457 12.812 20.5354 12.812Z" fill="white"/>
<path d="M5.02806 14.4718C5.02806 13.8892 5.13142 13.3302 5.3206 12.8123H3.46454C1.55419 12.8123 0 14.3664 0 16.2768V20.1009C0 21.2471 0.932486 22.1796 2.07872 22.1796H5.14726C5.07034 21.9627 5.02806 21.7296 5.02806 21.4867V14.4718Z" fill="white"/>
<path d="M14.1215 11.0071H9.87831C7.96796 11.0071 6.41377 12.5613 6.41377 14.4716V21.4865C6.41377 21.8691 6.72399 22.1794 7.10668 22.1794H16.8932C17.2758 22.1794 17.5861 21.8692 17.5861 21.4865V14.4716C17.5861 12.5613 16.0319 11.0071 14.1215 11.0071Z" fill="white"/>
<path d="M11.9998 1.8208C9.70233 1.8208 7.83324 3.6899 7.83324 5.98739C7.83324 7.54575 8.69335 8.90677 9.96357 9.62133C10.566 9.96024 11.2606 10.1539 11.9998 10.1539C12.7389 10.1539 13.4335 9.96024 14.036 9.62133C15.3062 8.90677 16.1663 7.5457 16.1663 5.98739C16.1663 3.68994 14.2972 1.8208 11.9998 1.8208Z" fill="white"/>
<path d="M4.68332 5.7041C2.96511 5.7041 1.5673 7.10192 1.5673 8.82012C1.5673 10.5383 2.96511 11.9361 4.68332 11.9361C5.11917 11.9361 5.5342 11.8459 5.91121 11.6836C6.56306 11.4029 7.10053 10.9062 7.43311 10.2839C7.66655 9.84716 7.79934 9.34892 7.79934 8.82012C7.79934 7.10196 6.40153 5.7041 4.68332 5.7041Z" fill="white"/>
<path d="M19.316 5.7041C17.5978 5.7041 16.2 7.10192 16.2 8.82012C16.2 9.34897 16.3327 9.8472 16.5662 10.2839C16.8988 10.9062 17.4362 11.403 18.0881 11.6836C18.4651 11.8459 18.8801 11.9361 19.316 11.9361C21.0342 11.9361 22.432 10.5383 22.432 8.82012C22.432 7.10192 21.0342 5.7041 19.316 5.7041Z" fill="white"/>
</svg>
