<svg width="56" height="56" fill="none" xmlns="http://www.w3.org/2000/svg"><g clip-path="url(#clip0)"><path d="M28 56c15.464 0 28-12.536 28-28S43.464 0 28 0 0 12.536 0 28s12.536 28 28 28z" fill="#6BDA8A"/><path d="M55.972 28c0-.777-.032-1.547-.094-2.308L36.782 6.597l-8.589 5.752-5.752-5.752-.495 2.506 1.51 6.679 3.068 3.068-6.314 7.542 2.865 10.463 3.013 3.012-6.926 9.603 6.428 6.428A28 28 0 0055.971 28z" fill="#3FA166"/><path d="M22.238 9.104h11.467v3.282H22.238V9.104z" fill="#75F281"/><path d="M27.984 9.104h5.72v3.282h-5.72V9.104z" fill="#6BEA60"/><path d="M22.238 20.965h11.467v3.281H22.238v-3.28z" fill="#75F281"/><path d="M27.984 20.965h5.72v3.281h-5.72v-3.28z" fill="#6BEA60"/><path d="M22.238 43.614h11.467v3.28H22.238v-3.28z" fill="#75F282"/><path d="M27.984 43.614h5.72v3.28h-5.72v-3.28z" fill="#6BEA60"/><path d="M22.238 31.753h11.467v3.28H22.238v-3.28z" fill="#75F282"/><path d="M27.984 31.753h5.72v3.28h-5.72v-3.28z" fill="#6BEA60"/><path d="M20.8 26.393h14.342v3.281H20.801v-3.28z" fill="#75F281"/><path d="M27.984 26.393h7.158v3.281h-7.158v-3.28z" fill="#6BEA60"/><path d="M36.783 49.471H33.5c0-4.537-3.017-6.792-6.512-9.404-3.67-2.743-7.829-5.852-7.829-12.035s4.16-9.29 7.829-12.034c3.494-2.612 6.512-4.867 6.512-9.405h3.281c0 6.181-4.16 9.29-7.83 12.035-3.493 2.611-6.511 4.867-6.511 9.404s3.018 6.793 6.512 9.405c3.67 2.744 7.83 5.853 7.83 12.034z" fill="#FF9500"/><path d="M28.954 18.63c3.67-2.743 7.83-5.852 7.83-12.035h-3.282c0 4.106-2.47 6.343-5.53 8.666v4.105c.322-.243.65-.488.982-.736zm-.001 18.809l-.982-.738v4.104c3.059 2.324 5.53 4.56 5.53 8.666h3.28c.001-6.18-4.159-9.29-7.828-12.032z" fill="#FE6A16"/><path d="M22.441 49.472h-3.28c0-6.182 4.159-9.29 7.828-12.035 3.494-2.611 6.512-4.867 6.512-9.405 0-4.537-3.017-6.79-6.512-9.402-3.67-2.743-7.829-5.852-7.829-12.035h3.281c0 4.538 3.018 6.793 6.512 9.405 3.67 2.743 7.83 5.852 7.83 12.035s-4.16 9.29-7.83 12.034c-3.494 2.61-6.512 4.865-6.512 9.403z" fill="#FE6A16"/><path d="M28.953 16.001c-.332-.248-.66-.494-.982-.738v4.105c3.059 2.323 5.53 4.56 5.53 8.666 0 4.105-2.471 6.343-5.53 8.667v4.104c.321-.245.649-.49.982-.738 3.67-2.743 7.83-5.852 7.83-12.035s-4.16-9.29-7.83-12.035v.004z" fill="#F24500"/></g><defs><clipPath id="clip0"><path fill="#fff" d="M0 0h56v56H0z"/></clipPath></defs></svg>