<svg width="56" height="56" fill="none" xmlns="http://www.w3.org/2000/svg"><path d="M27.993 55.986c15.46 0 27.993-12.533 27.993-27.993C55.986 12.533 43.453 0 27.993 0 12.533 0 0 12.533 0 27.993c0 15.46 12.533 27.993 27.993 27.993z" fill="#DA6B6B"/><path d="M56 28a27.907 27.907 0 00-2.244-11l-5.912-5.892-2.532-.72-1.55-1.592-35.187 5.518 9.431 9.447-1.98 16.27-7.731 5.028 8.4 8.561A28.01 28.01 0 0056 28z" fill="#A13F3F"/><path d="M14.219 14.22h27.56v27.56H14.22V14.22z" fill="#FDE997"/><path d="M28 14.22h13.78v27.56H28V14.22z" fill="#FDDB45"/><path d="M45.887 14.856H10.113a2.362 2.362 0 110-4.724h35.774a2.364 2.364 0 110 4.724z" fill="#FCB42D"/><path d="M48.302 12.493a2.329 2.329 0 01-.708 1.67 2.432 2.432 0 01-1.707.693H28v-4.724h17.887a2.39 2.39 0 012.415 2.36z" fill="#F59B20"/><path d="M41.813 17.106H14.188a2.534 2.534 0 01-2.534-2.534v-4.158a2.534 2.534 0 012.534-2.534h27.624a2.534 2.534 0 012.534 2.534v4.158a2.533 2.533 0 01-2.533 2.534z" fill="#FFF5CC"/><path d="M44.346 10.415v4.157a2.533 2.533 0 01-2.534 2.534H28V7.882h13.812a2.533 2.533 0 012.534 2.534z" fill="#FDE997"/><path d="M45.887 45.871H10.113a2.362 2.362 0 110-4.725h35.774a2.364 2.364 0 110 4.725z" fill="#FCB42D"/><path d="M48.302 43.508a2.323 2.323 0 01-.708 1.668 2.432 2.432 0 01-1.707.693H28v-4.724h17.887a2.39 2.39 0 012.415 2.362z" fill="#F59B20"/><path d="M41.813 48.12H14.188a2.534 2.534 0 01-2.534-2.534v-4.158a2.533 2.533 0 012.534-2.535h27.624a2.534 2.534 0 012.534 2.534v4.158a2.534 2.534 0 01-2.533 2.535z" fill="#FFF5CC"/><path d="M44.346 41.428v4.158a2.533 2.533 0 01-2.534 2.534H28v-9.226h13.812a2.533 2.533 0 012.534 2.535z" fill="#FDE997"/><path d="M18.326 22.515h4.42v3.281h-4.42v-3.281zm8.11 0h11.238v3.281H26.436v-3.281z" fill="#FCB42D"/><path d="M28 22.515h9.674v3.283H28v-3.283zm5.256 7.689h4.42v3.283h-4.42v-3.283z" fill="#F59B20"/><path d="M18.326 30.204h11.239v3.283H18.326v-3.283z" fill="#FCB42D"/><path d="M28 30.204h1.564v3.284H28v-3.284z" fill="#F59B20"/></svg>