<svg xmlns="http://www.w3.org/2000/svg" width="66" height="66"><path d="M66 33a33 33 0 10-49.446 28.616h32.892A32.987 32.987 0 0066 33z" fill="#994aff"/><path d="M65.892 35.725l-8.389-8.389-1.812.657-13.748-13.748-32.6 22.924 24.446 24.446h15.659a33 33 0 0016.444-25.89z" fill="#5e00d8"/><path d="M16.61 61.649a33.042 33.042 0 0032.78 0l-4.988-33h-22.8z" fill="#ffce00"/><path d="M44.401 28.649H33.015v37.355a32.848 32.848 0 0016.374-4.351z" fill="#fdba12"/><path d="M58.03 34.814c0 3.981-11.206 7.208-25.03 7.208S7.97 38.795 7.97 34.814v-6h50.06v6z" fill="#dce1eb"/><path d="M33.015 28.817v13.2c13.816 0 25.014-3.228 25.014-7.208v-6z" fill="#bec3d2"/><ellipse cx="25.03" cy="7.208" rx="25.03" ry="7.208" fill="#f2f6fc" transform="translate(7.97 21.609)"/><path d="M58.03 28.817c0-3.979-11.2-7.205-25.014-7.208v14.415c13.816-.002 25.014-3.228 25.014-7.207z" fill="#dce1eb"/><path d="M20.437 26.721V23.07a12.563 12.563 0 1125.126 0v3.651a42.265 42.265 0 01-25.126 0z" fill="#a3d4ff"/><path d="M45.562 23.071a12.563 12.563 0 00-12.547-12.563v18.118a40.1 40.1 0 0012.547-1.9z" fill="#65b1fc"/><ellipse cx="3.864" cy="1.848" rx="3.864" ry="1.848" fill="#bec3d2" transform="translate(29.136 29.825)"/><path d="M36.864 31.673c0-1.018-1.721-1.844-3.848-1.848v3.7c2.127-.009 3.848-.834 3.848-1.852z" fill="#9196aa"/><g transform="translate(11.33 26.969)"><ellipse cx="3.864" cy="1.848" rx="3.864" ry="1.848" fill="#9196aa" transform="translate(35.613)"/><ellipse cx="3.864" cy="1.848" rx="3.864" ry="1.848" fill="#bec3d2"/></g></svg>