<svg xmlns="http://www.w3.org/2000/svg" width="68" height="68"><circle cx="34" cy="34" r="34" fill="#bababa"/><path d="M33.92 67.881a33.931 33.931 0 0033.4-39.278L52.853 14.136l-37.457 9.606 18.776 18.776-21.255 4.357z" fill="gray"/><path d="M29.244 18.995h9.19v40.9h-9.19z" fill="#d1d1d1"/><path d="M33.858 18.996h4.579v40.9h-4.579z" fill="#a3a3a3"/><path d="M19.302 12.308a6.385 6.385 0 104.847 10.543 6.385 6.385 0 009.693 0 6.385 6.385 0 009.693 0 6.385 6.385 0 104.847-10.543z" fill="#a2a2a2"/><path d="M48.382 12.308H33.858v10.56a6.385 6.385 0 009.677-.018 6.385 6.385 0 104.847-10.543z" fill="#606060"/><path d="M32.544 27.415a5.17 5.17 0 103.924 8.536 5.17 5.17 0 007.848 0 5.17 5.17 0 007.848 0 5.17 5.17 0 103.924-8.536z" fill="#a2a2a2"/><path d="M56.089 27.415H33.858v10.17a5.171 5.171 0 002.61-1.634 5.17 5.17 0 007.848 0 5.17 5.17 0 007.848 0 5.17 5.17 0 103.924-8.536z" fill="#606060"/><path d="M15.445 40.1a3.862 3.862 0 102.931 6.376 3.862 3.862 0 005.862 0 3.862 3.862 0 005.862 0 3.862 3.862 0 102.931-6.376z" fill="#a2a2a2"/><path d="M36.892 43.961a3.862 3.862 0 00-3.034-3.772v7.543a3.862 3.862 0 003.034-3.771z" fill="#606060"/></svg>