<svg xmlns="http://www.w3.org/2000/svg" width="85.657" height="19.956"><defs><clipPath id="a"><circle cx="6.266" cy="6.266" r="6.266" fill="none"/></clipPath></defs><path d="M32.331 10.072v5.479h-2.44v-5.083c0-1.371-.495-2.029-1.579-2.029-1.257 0-2.024.906-2.024 2.361v4.751h-2.447V6.509h1.678l.495 1.119a3.875 3.875 0 012.97-1.336c2.063-.001 3.347 1.489 3.347 3.78zm11.006.926a5.822 5.822 0 01-.049.718h-6.836a2.108 2.108 0 002.207 1.915 2.153 2.153 0 001.92-1.049h2.564a4.882 4.882 0 11.193-1.589zm-6.82-.96h4.376a2.222 2.222 0 00-2.237-1.7 2.118 2.118 0 00-2.14 1.699zm21.271-3.529l-2.97 9.042h-1.98l-2.042-4.677-1.98 4.677h-1.98l-2.97-9.042h2.475l1.787 5.39 2.346-5.325h.688l2.434 5.345 1.777-5.4zm6.87 6.864v2.175h-1.732a2.981 2.981 0 01-3.212-3.227V8.474H58.08v-.526l3.568-3.8h.445v2.361h2.475v1.98H62.09v3.529a1.257 1.257 0 001.391 1.376zm.99-2.345a4.885 4.885 0 114.885 4.885 4.885 4.885 0 01-4.885-4.885zm7.3 0a2.41 2.41 0 10-4.816 0 2.41 2.41 0 104.816 0zm12.71-.955v5.479h-2.44v-5.083c0-1.371-.52-2.029-1.579-2.029-1.257 0-2.029.906-2.029 2.361v4.751h-2.44V6.509h1.678l.495 1.119a3.875 3.875 0 012.994-1.336c2.029-.001 3.321 1.489 3.321 3.781z" fill="#fff"/><circle cx="9.978" cy="9.978" r="9.978" fill="#4d95b0"/><g clip-path="url(#a)" transform="translate(3.712 3.712)" opacity=".95"><path d="M4.618 5.132L9.31 7.968l2.821 1.712-3.251 3.462s-.584.643-2.6-.109a12.148 12.148 0 01-3.959-.4c-.495-.559.238-2.658.173-3.405-.035-.356.292-.812.668-1.94a6.2 6.2 0 011.456-2.156z" fill="#d4edf1"/><path d="M2 1.262A7.429 7.429 0 016.152-.114a6.07 6.07 0 013.93 1.079c.124.168 2.044 1.7 1.8 1.925L6.413 6.206c-.495.426-4.633 2.311-3.232 5.5.99.836-.525.148-1.213-.421A6.842 6.842 0 01.033 7.811c-.436-2.386-.257-2.2-.064-3.158A4.569 4.569 0 012 1.262z" fill="#fff"/></g></svg>