<svg width="56" height="56" fill="none" xmlns="http://www.w3.org/2000/svg"><g clip-path="url(#clip0)"><path d="M56 28A28 28 0 11-.001 28 28 28 0 0156 28z" fill="#876BDA"/><path d="M56 27.978c0-.84-.04-1.67-.112-2.49l-8.814-8.837c-.701-.992-1.884-1.637-3.475-1.92a3.52 3.52 0 00-.135-.167 2.838 2.838 0 00-5.465.358 26.62 26.62 0 00-.507.1l-5.072-6.23c-1.308-1.979-2.829-3.037-4.454-3.037-2.468 0-4.706 2.434-6.296 6.852a31.343 31.343 0 00-.898 2.974 31.69 31.69 0 00-3.03-.697c-4.627-.812-7.849-.079-9.074 2.064-1.226 2.143-.22 5.289 2.825 8.864.614.72 1.297 1.443 2.042 2.164a31.276 31.276 0 00-2.042 2.163c-3.048 3.574-4.051 6.722-2.825 8.864.239.417.554.784.93 1.083l15.821 15.796A28.029 28.029 0 0056 27.977z" fill="#5E3FA1"/><path d="M32.054 28a4.055 4.055 0 11-8.11 0 4.055 4.055 0 018.11 0z" fill="#FF9A00"/><path d="M42.455 28a31.393 31.393 0 002.045-2.166c3.053-3.576 4.057-6.728 2.83-8.872-1.227-2.146-4.456-2.88-9.09-2.067-.973.171-1.988.405-3.034.698a31.303 31.303 0 00-.9-2.978c-1.594-4.422-3.833-6.86-6.307-6.86s-4.713 2.436-6.307 6.859a31.513 31.513 0 00-.9 2.977 31.631 31.631 0 00-3.034-.697c-4.634-.813-7.862-.08-9.09 2.066-1.227 2.146-.223 5.297 2.832 8.874.614.72 1.3 1.445 2.045 2.166a31.264 31.264 0 00-2.045 2.166c-3.053 3.577-4.058 6.728-2.83 8.873.9 1.575 2.88 2.389 5.702 2.389a19.76 19.76 0 003.387-.323 31.783 31.783 0 003.034-.697 31.17 31.17 0 00.9 2.977c1.594 4.423 3.834 6.858 6.307 6.858 2.472 0 4.713-2.435 6.306-6.858.335-.928.635-1.925.9-2.977a31.63 31.63 0 003.034.697c1.118.205 2.251.313 3.388.323 2.82 0 4.801-.814 5.703-2.39 1.227-2.144.222-5.295-2.83-8.872A31.53 31.53 0 0042.455 28zm-3.892-11.27a18.007 18.007 0 013.078-.296c2.07 0 3.525.5 4.07 1.45.785 1.372-.198 3.891-2.63 6.74a29.568 29.568 0 01-1.998 2.11 49.476 49.476 0 00-4.672-3.61 49.53 49.53 0 00-.793-5.714c.97-.276 1.952-.504 2.944-.68zm-7.216 17.12a58.241 58.241 0 01-3.349 1.771 58.892 58.892 0 01-6.623-3.785 59.334 59.334 0 010-7.669 58.407 58.407 0 016.623-3.785 58.858 58.858 0 016.623 3.785 59.33 59.33 0 010 7.669 57.828 57.828 0 01-3.274 2.014zm3.066.335a45.871 45.871 0 01-.587 3.848 46.086 46.086 0 01-3.665-1.415 60.543 60.543 0 004.252-2.432zm-8.575 2.433a46.302 46.302 0 01-3.665 1.415 45.883 45.883 0 01-.587-3.848 61.392 61.392 0 004.252 2.434v-.001zm-6.398-6.126A46.145 46.145 0 0116.3 28a46.46 46.46 0 013.14-2.493 61.781 61.781 0 000 4.985zm2.146-8.679c.15-1.36.349-2.647.587-3.848 1.194.402 2.42.875 3.665 1.416a60.452 60.452 0 00-4.253 2.433zm8.575-2.432a46.315 46.315 0 013.665-1.416c.238 1.2.436 2.487.587 3.849a61.082 61.082 0 00-4.253-2.433zm6.398 6.126a46.17 46.17 0 013.14 2.492 46.46 46.46 0 01-3.14 2.492 61.782 61.782 0 000-4.983v-.001zM27.999 7.62c1.978 0 4.095 3.217 5.42 8.52A49.771 49.771 0 0028 18.314a49.868 49.868 0 00-5.42-2.174c1.325-5.305 3.442-8.52 5.42-8.52zM12.917 24.625c-2.432-2.848-3.415-5.368-2.63-6.74.544-.95 1.998-1.45 4.07-1.45 1.033.01 2.063.109 3.079.295.992.177 1.975.405 2.945.681a49.616 49.616 0 00-.794 5.714 49.518 49.518 0 00-4.671 3.611c-.732-.704-1.4-1.41-1.999-2.11zm4.519 14.645c-3.692.648-6.365.216-7.15-1.155-.784-1.371.199-3.891 2.631-6.74.598-.7 1.267-1.406 1.999-2.11a49.505 49.505 0 004.671 3.611c.154 1.918.419 3.826.794 5.714a29.96 29.96 0 01-2.945.68zm10.563 9.11c-1.977 0-4.095-3.217-5.42-8.519a49.74 49.74 0 005.42-2.174 49.868 49.868 0 005.42 2.174c-1.325 5.304-3.442 8.52-5.42 8.52zm17.712-10.265c-.785 1.371-3.457 1.803-7.149 1.155a29.928 29.928 0 01-2.945-.68 49.56 49.56 0 00.793-5.714 49.509 49.509 0 004.672-3.611c.731.705 1.4 1.41 1.998 2.11 2.433 2.85 3.416 5.368 2.63 6.74z" fill="#fff"/><path d="M42.509 28a31.534 31.534 0 002.027-2.166c3.023-3.577 4.018-6.728 2.803-8.872-1.216-2.144-4.412-2.88-9.002-2.067-.963.17-1.968.406-3.004.698a32.707 32.707 0 00-.89-2.978c-1.58-4.423-3.798-6.858-6.248-6.858V7.62c1.959 0 4.055 3.217 5.366 8.52a48.837 48.837 0 00-5.366 2.174v2.064a57.779 57.779 0 016.556 3.785c.082 1.231.123 2.51.124 3.835a55.79 55.79 0 01-.124 3.834 58.095 58.095 0 01-6.556 3.785v2.065a48.86 48.86 0 005.366 2.174c-1.312 5.304-3.407 8.52-5.366 8.52v1.863c2.45 0 4.667-2.435 6.246-6.858a31.9 31.9 0 00.89-2.978c1.036.292 2.041.529 3.005.698 1.106.205 2.228.313 3.354.323 2.794 0 4.755-.814 5.647-2.39 1.215-2.144.22-5.295-2.803-8.872A32.144 32.144 0 0042.51 28zm-10.083-7.467a61.207 61.207 0 00-2.092-1.152 45.664 45.664 0 013.63-1.414c.236 1.2.431 2.486.581 3.847a59.421 59.421 0 00-2.119-1.281zm1.538 17.5a45.454 45.454 0 01-3.63-1.414 62.983 62.983 0 002.092-1.152 58.209 58.209 0 002.12-1.28 45.98 45.98 0 01-.58 3.847h-.002zm4.691-21.303a17.674 17.674 0 013.048-.295c2.052 0 3.492.5 4.03 1.45.779 1.372-.196 3.891-2.604 6.74a29.279 29.279 0 01-1.979 2.11 49.035 49.035 0 00-4.625-3.611 49.854 49.854 0 00-.787-5.714c.96-.276 1.934-.503 2.917-.68zm-1.983 8.779A45.47 45.47 0 0139.782 28c-.96.843-2 1.675-3.11 2.491.034-.822.05-1.653.051-2.491 0-.838-.017-1.669-.052-2.491h.001zm9.063 12.604c-.777 1.371-3.423 1.803-7.079 1.155a29.138 29.138 0 01-2.916-.68c.372-1.888.634-3.796.786-5.714a49.05 49.05 0 004.625-3.611c.724.705 1.386 1.41 1.978 2.11 2.408 2.85 3.382 5.37 2.604 6.742l.002-.002z" fill="#FFF5CB"/><path d="M32.07 28a4.055 4.055 0 01-4.054 4.055v-8.11A4.054 4.054 0 0132.07 28z" fill="#E67500"/><path d="M18.453 40.487a2.816 2.816 0 11-5.632 0 2.816 2.816 0 015.632 0z" fill="#00E8F2"/><path d="M43.631 15.513a2.817 2.817 0 11-5.633 0 2.817 2.817 0 015.633 0z" fill="#FDC000"/></g><defs><clipPath id="clip0"><path fill="#fff" d="M0 0h56v56H0z"/></clipPath></defs></svg>