<svg width="48" height="48" viewBox="0 0 48 48" fill="none" xmlns="http://www.w3.org/2000/svg">
<path d="M48 24C48 37.255 37.255 48 24 48C10.745 48 0 37.255 0 24C0 10.745 10.745 0 24 0C37.255 0 48 10.745 48 24Z" fill="#9331B2"/>
<path d="M47.9722 25.1709L34.2612 11.4596C33.6522 10.8059 32.9758 10.2159 32.2419 9.70178L26.347 3.76953H24.5874C15.5665 3.76953 8.22803 11.1084 8.22803 20.1293C8.22803 24.7988 10.1953 29.0165 13.344 31.9996L20.792 39.4568H18.7921V42.9691L23.8209 47.9979C23.881 47.9983 23.9407 48.0001 24.0011 48.0001C36.8632 48.0001 47.3617 37.8817 47.9722 25.1709Z" fill="#5C1B6F"/>
<path d="M23.5425 5.04297H26.3455V39.625H23.5425V5.04297Z" fill="white"/>
<path d="M24.9448 5.03906H26.3467V39.6215H24.9448V5.03906Z" fill="#FFF5CB"/>
<path d="M37.6705 20.1289C37.6705 27.1572 31.9727 32.8551 24.944 32.8551C17.9156 32.8551 12.2178 27.1572 12.2178 20.1289C12.2178 13.1002 17.9156 7.40234 24.944 7.40234C31.9727 7.40234 37.6705 13.1002 37.6705 20.1289Z" fill="#00E8F2"/>
<path d="M37.6707 20.1289C37.6707 26.6837 32.7151 32.0809 26.3467 32.7786C25.8864 32.8291 25.4183 32.8555 24.9448 32.8555V7.40234C25.4183 7.40234 25.8864 7.42834 26.3467 7.47925C32.7151 8.17651 37.6707 13.5737 37.6707 20.1289Z" fill="#00B7BE"/>
<path d="M33.0563 25.8568H28.7625C28.0447 25.8568 27.458 25.2698 27.458 24.5524V24.5271C27.458 23.8097 28.045 23.2227 28.7625 23.2227H33.0563C33.7737 23.2227 34.3607 23.8097 34.3607 24.5271V24.5524C34.3607 25.2698 33.7737 25.8568 33.0563 25.8568Z" fill="#FFD400"/>
<path d="M33.6569 10.8555H29.6062C28.8236 10.8555 28.1835 11.4956 28.1835 12.2782V12.4598C28.1835 12.7638 28.2809 13.0458 28.4446 13.2772H27.2449C26.4623 13.2772 25.8218 13.9177 25.8218 14.7003V14.882C25.8218 15.6646 26.4623 16.3051 27.2449 16.3051H32.1818C32.103 16.4812 32.0587 16.6757 32.0587 16.88V17.062C32.0587 17.8446 32.6989 18.4847 33.4814 18.4847H37.5643C37.178 15.4906 35.7505 12.8228 33.6569 10.8555Z" fill="#FFD400"/>
<path d="M24.6129 26.9292V26.7472C24.6129 25.9646 23.9728 25.3245 23.1902 25.3245H18.2529C18.3317 25.1483 18.3763 24.9539 18.3763 24.7491V24.5675C18.3763 24.2635 18.2789 23.9819 18.1149 23.7501H19.3149C20.0975 23.7501 20.7377 23.1096 20.7377 22.327V22.1454C20.7377 21.3628 20.0975 20.7227 19.3149 20.7227H12.2339C12.3676 23.626 13.4742 26.2748 15.235 28.3519H23.1902C23.9728 28.3519 24.6129 27.7118 24.6129 26.9292Z" fill="#FFEC97"/>
<path d="M18.345 14.4279C19.3275 14.4279 20.1313 13.624 20.1313 12.6415C20.1313 11.6593 19.3275 10.8555 18.345 10.8555H16.2319C15.1604 11.8625 14.2632 13.0531 13.5908 14.3773C13.7241 14.4092 13.8622 14.4279 14.005 14.4279H18.345Z" fill="#FFEC97"/>
<path d="M26.3474 36.4886H24.5874C15.5665 36.4886 8.22803 29.1498 8.22803 20.1293C8.22803 11.1084 15.5669 3.76953 24.5874 3.76953H26.3474V5.5863H24.5874C16.5685 5.5863 10.0444 12.11 10.0444 20.1289C10.0444 28.1478 16.5685 34.6719 24.5874 34.6719H26.3474V36.4886Z" fill="#FFEC97"/>
<path d="M24.9448 3.76953H26.3467V5.58521H24.9448V3.76953Z" fill="#FFD400"/>
<path d="M24.9448 34.6719H26.3467V36.489H24.9448V34.6719Z" fill="#FFD400"/>
<path d="M18.7915 39.457H31.0988V42.969H18.7915V39.457Z" fill="#FF9A00"/>
<path d="M24.9448 39.457H31.0979V42.9686H24.9448V39.457Z" fill="#C06100"/>
</svg>
