<svg width="48" height="48" viewBox="0 0 48 48" fill="none" xmlns="http://www.w3.org/2000/svg">
<g clip-path="url(#clip0)">
<path d="M48 24C48 37.255 37.255 48 24 48C10.745 48 0 37.255 0 24C0 10.745 10.745 0 24 0C37.255 0 48 10.745 48 24Z" fill="#9331B2"/>
<path d="M48.0008 23.9996C48.0008 23.2804 47.9675 22.5692 47.9052 21.8665L40.3598 14.2991C39.7599 13.4495 38.747 12.8972 37.3851 12.6544C37.3484 12.6053 37.31 12.5574 37.2697 12.5112C36.9409 11.5587 36.0381 10.8739 34.9739 10.8739C33.798 10.8739 32.817 11.7089 32.5917 12.8181C32.4482 12.8445 32.3028 12.8738 32.1574 12.9031L27.8138 7.56738C26.6961 5.87219 25.392 4.96875 24.0008 4.96875C21.8867 4.96875 19.9725 7.05249 18.6105 10.8365C18.3245 11.6305 18.0682 12.4834 17.8415 13.3839C16.9472 13.1338 16.0796 12.9335 15.2483 12.7874C11.2874 12.0916 8.52837 12.7192 7.47918 14.5551C6.42961 16.3901 7.28875 19.0862 9.898 22.1466C10.4231 22.7626 11.0084 23.3822 11.6459 23.9996C11.0084 24.6171 10.4231 25.2367 9.898 25.8527C7.28875 28.9131 6.42961 31.6091 7.47918 33.4442C7.68169 33.7987 7.94829 34.1082 8.27532 34.3715L21.82 47.9C22.5385 47.9648 23.2654 47.9996 24.0008 47.9996C37.2558 47.9996 48.0008 37.2546 48.0008 23.9996Z" fill="#5C1B6F"/>
<path d="M27.5007 23.9999C27.5007 25.9327 25.9337 27.4998 24.0009 27.4998C22.068 27.4998 20.501 25.9327 20.501 23.9999C20.501 22.067 22.068 20.5 24.0009 20.5C25.9337 20.5 27.5007 22.067 27.5007 23.9999Z" fill="#FF9A00"/>
<path d="M36.3556 23.9996C36.9932 23.3822 37.5784 22.7626 38.1036 22.1466C40.7128 19.0862 41.5716 16.3901 40.5224 14.5551C39.4732 12.7196 36.7138 12.0919 32.7532 12.7874C31.9219 12.9335 31.0544 13.1338 30.1601 13.3839C29.9334 12.4834 29.6767 11.6305 29.391 10.8365C28.0291 7.05249 26.1149 4.96875 24.0008 4.96875C21.8866 4.96875 19.9725 7.05249 18.6105 10.8365C18.3245 11.6305 18.0682 12.4834 17.8415 13.3839C16.9472 13.1338 16.0796 12.9335 15.2483 12.7874C11.2874 12.0916 8.52837 12.7192 7.47918 14.5551C6.42961 16.3901 7.28875 19.0862 9.898 22.1466C10.4231 22.7626 11.0083 23.3822 11.6459 23.9996C11.0083 24.6171 10.4231 25.2367 9.898 25.8527C7.28875 28.9131 6.42961 31.6091 7.47918 33.4442C8.24932 34.7919 9.94085 35.4884 12.3531 35.4884C13.2265 35.4884 14.1951 35.3969 15.2483 35.2119C16.0796 35.0658 16.9472 34.8655 17.8415 34.6154C18.0682 35.5159 18.3245 36.3688 18.6105 37.1627C19.9725 40.9468 21.8866 43.0305 24.0008 43.0305C26.1149 43.0305 28.0291 40.9468 29.391 37.1627C29.677 36.3688 29.9334 35.5159 30.1601 34.6154C31.0544 34.8655 31.9219 35.0658 32.7532 35.2119C33.8068 35.3969 34.7747 35.4884 35.6485 35.4884C38.0607 35.4884 39.7522 34.7919 40.5224 33.4442C41.5719 31.6091 40.7128 28.9131 38.1036 25.8527C37.5784 25.2367 36.9932 24.6171 36.3556 23.9996ZM33.029 14.3569C33.9947 14.1874 34.8783 14.1042 35.6595 14.1042C37.4308 14.1042 38.6734 14.5316 39.1388 15.3457C39.8097 16.519 38.9693 18.6746 36.891 21.1124C36.3798 21.7119 35.8078 22.3154 35.1827 22.9178C33.9844 21.8635 32.6423 20.8242 31.191 19.8281C31.0496 18.115 30.8211 16.4722 30.5116 14.9399C31.3814 14.6942 32.224 14.4983 33.029 14.3569ZM26.8624 29.005C25.9091 29.5499 24.9522 30.056 24.0008 30.5208C23.0494 30.056 22.0925 29.5499 21.1392 29.005C20.1717 28.452 19.2367 27.8752 18.3417 27.282C18.2721 26.2295 18.2352 25.1338 18.2352 23.9996C18.2352 22.8655 18.2721 21.7698 18.3417 20.7173C19.2367 20.1237 20.1717 19.5472 21.1392 18.9943C22.0925 18.4493 23.0494 17.9432 24.0008 17.4785C24.9522 17.9432 25.9091 18.4493 26.8624 18.9943C27.8299 19.5472 28.7648 20.124 29.6598 20.7173C29.7294 21.7698 29.7664 22.8655 29.7664 23.9996C29.7664 25.1334 29.7294 26.2295 29.6598 27.282C28.7648 27.8752 27.8299 28.452 26.8624 29.005ZM29.4826 29.2925C29.3533 30.457 29.1841 31.5579 28.9809 32.5847C27.9606 32.2412 26.9118 31.8362 25.8479 31.3737C26.45 31.0605 27.0528 30.7321 27.6534 30.3889C28.2763 30.0326 28.8864 29.6664 29.4826 29.2925ZM22.1536 31.3737C21.0898 31.8362 20.0409 32.2412 19.0207 32.5847C18.8174 31.5575 18.6482 30.457 18.519 29.2921C19.1152 29.6664 19.7253 30.0326 20.3482 30.3885C20.9488 30.7321 21.5516 31.0602 22.1536 31.3737ZM16.6854 26.1321C15.7273 25.4344 14.8287 24.7203 14.0018 23.9996C14.8287 23.2789 15.7273 22.5648 16.6854 21.8672C16.6564 22.5703 16.6414 23.2819 16.6414 23.9996C16.6414 24.7174 16.6564 25.429 16.6854 26.1321ZM18.519 18.7068C18.6482 17.5422 18.8174 16.4414 19.0207 15.4146C20.0409 15.7581 21.0898 16.1631 22.1536 16.6256C21.5516 16.9387 20.9488 17.2672 20.3482 17.6104C19.7253 17.9667 19.1152 18.3329 18.519 18.7068ZM25.8479 16.6256C26.9118 16.1631 27.9606 15.7581 28.9809 15.4146C29.1841 16.4418 29.3533 17.5422 29.4826 18.7072C28.8864 18.3329 28.2763 17.9667 27.6534 17.6107C27.0528 17.2672 26.45 16.9391 25.8479 16.6256ZM31.3162 21.8672C32.2742 22.5648 33.1729 23.2789 33.9998 23.9996C33.1729 24.7203 32.2742 25.4344 31.3162 26.1321C31.3451 25.429 31.3602 24.7174 31.3602 23.9996C31.3602 23.2819 31.3451 22.5703 31.3162 21.8672ZM24.0008 6.5625C25.6908 6.5625 27.5003 9.31384 28.6322 13.8516C27.1322 14.3489 25.5755 14.974 24.0008 15.7119C22.4261 14.974 20.8693 14.3492 19.3693 13.8516C20.5013 9.31384 22.3107 6.5625 24.0008 6.5625ZM11.1109 21.1124C9.03228 18.6749 8.19182 16.519 8.86272 15.3457C9.32817 14.5316 10.5704 14.1042 12.3421 14.1042C13.1232 14.1042 14.0073 14.1874 14.9726 14.3569C15.7775 14.4983 16.6202 14.6942 17.4899 14.9399C17.1808 16.4722 16.9523 18.115 16.811 19.8281C15.3597 20.8242 14.0175 21.8635 12.8189 22.9178C12.1938 22.3154 11.6218 21.7119 11.1109 21.1124ZM14.9726 33.6423C11.8173 34.1964 9.53325 33.8265 8.86272 32.6536C8.19182 31.4802 9.03228 29.3243 11.1109 26.8868C11.6218 26.2874 12.1938 25.6838 12.8189 25.0814C14.0171 26.1357 15.3597 27.175 16.8106 28.1711C16.952 29.8843 17.1805 31.5271 17.4899 33.0593C16.6202 33.3051 15.7775 33.501 14.9726 33.6423ZM24.0008 41.4368C22.3107 41.4368 20.5013 38.6854 19.3693 34.1477C20.8693 33.6504 22.4261 33.0253 24.0008 32.2874C25.5755 33.0253 27.1326 33.65 28.6322 34.1477C27.5003 38.6854 25.6908 41.4368 24.0008 41.4368ZM39.1388 32.6536C38.4683 33.8265 36.1846 34.1964 33.029 33.6423C32.224 33.501 31.3814 33.3051 30.5116 33.0593C30.8211 31.5271 31.0496 29.8843 31.191 28.1711C32.6419 27.175 33.9844 26.1357 35.1827 25.0814C35.8078 25.6838 36.3798 26.2874 36.891 26.8868C38.9693 29.3243 39.8097 31.4802 39.1388 32.6536Z" fill="white"/>
<path d="M36.3545 24C36.9928 23.3822 37.5776 22.7626 38.1028 22.1466C40.712 19.0865 41.5708 16.3901 40.5216 14.5558C39.4724 12.72 36.7134 12.0919 32.7524 12.7874C31.9208 12.9338 31.0536 13.1345 30.1593 13.3846C29.9326 12.4838 29.6755 11.6305 29.3906 10.8365C28.0283 7.05286 26.1141 4.96875 24 4.96875V6.5625C25.6904 6.5625 27.4995 9.31421 28.6311 13.8527C27.1311 14.3492 25.5751 14.9747 24 15.7126V17.4789C24.9514 17.9436 25.9087 18.4501 26.8612 18.9946C27.8287 19.548 28.7644 20.1244 29.6587 20.7177C29.729 21.7705 29.7656 22.8655 29.7656 24C29.7656 25.1345 29.729 26.2295 29.6587 27.2823C28.7644 27.8756 27.8287 28.452 26.8612 29.0054C25.9087 29.5499 24.9514 30.0564 24 30.5211V32.2874C25.5751 33.0253 27.1311 33.6508 28.6311 34.1473C27.4995 38.6858 25.6904 41.4375 24 41.4375V43.0312C26.1141 43.0312 28.0283 40.9471 29.3906 37.1635C29.6755 36.3695 29.9326 35.5162 30.1593 34.6154C31.0536 34.8655 31.9208 35.0662 32.7524 35.2126C33.8064 35.3972 34.7739 35.4891 35.6473 35.4891C38.0596 35.4891 39.7518 34.7926 40.5216 33.4442C41.5708 31.6099 40.712 28.9135 38.1028 25.8534C37.5776 25.2374 36.9928 24.6178 36.3545 24ZM27.6526 17.6111C27.0516 17.2679 26.4496 16.9398 25.8468 16.6256C26.911 16.1635 27.9598 15.7584 28.9801 15.4153C29.1833 16.4418 29.3522 17.5426 29.4814 18.7068C28.8853 18.3329 28.2759 17.967 27.6526 17.6111ZM28.9801 32.5847C27.9598 32.2416 26.911 31.8365 25.8468 31.3744C26.4496 31.0602 27.0516 30.7321 27.6526 30.3889C28.2759 30.033 28.8853 29.6671 29.4814 29.2932C29.3522 30.4574 29.1833 31.5582 28.9801 32.5847ZM33.0282 14.3577C33.9939 14.1881 34.8779 14.1046 35.6587 14.1046C37.4297 14.1046 38.673 14.5323 39.1377 15.3461C39.809 16.5198 38.9681 18.6749 36.8895 21.1124C36.3787 21.7126 35.807 22.3162 35.1815 22.9182C33.9833 21.8635 32.6411 20.8246 31.1898 19.8281C31.0492 18.1154 30.8203 16.4729 30.5109 14.9399C31.381 14.6942 32.2229 14.4983 33.0282 14.3577ZM31.3154 21.8683C32.2734 22.5656 33.1714 23.2789 33.9994 24C33.1714 24.7211 32.2734 25.4344 31.3154 26.1317C31.3444 25.4286 31.3594 24.7181 31.3594 24C31.3594 23.2819 31.3444 22.5714 31.3154 21.8683ZM39.1377 32.6539C38.4675 33.8269 36.1838 34.1964 33.0282 33.6423C32.2229 33.5017 31.381 33.3058 30.5109 33.0601C30.8203 31.5271 31.0492 29.8846 31.1898 28.1719C32.6411 27.1754 33.9833 26.1365 35.1815 25.0818C35.807 25.6838 36.3787 26.2874 36.8895 26.8876C38.9681 29.3251 39.809 31.4802 39.1377 32.6539Z" fill="#FFF5CB"/>
<path d="M27.4995 23.9995C27.4995 25.9327 25.9332 27.499 24 27.499V20.5C25.9332 20.5 27.4995 22.0663 27.4995 23.9995Z" fill="#E67500"/>
<path d="M15.8425 34.693C15.8425 36.0355 14.7538 37.1243 13.4113 37.1243C12.0687 37.1243 10.98 36.0355 10.98 34.693C10.98 33.3505 12.0687 32.2617 13.4113 32.2617C14.7538 32.2617 15.8425 33.3505 15.8425 34.693Z" fill="#00E8F2"/>
<path d="M37.405 13.3063C37.405 14.6488 36.3163 15.7375 34.9738 15.7375C33.6312 15.7375 32.5425 14.6488 32.5425 13.3063C32.5425 11.9637 33.6312 10.875 34.9738 10.875C36.3163 10.875 37.405 11.9637 37.405 13.3063Z" fill="#FDC000"/>
</g>
<defs>
<clipPath id="clip0">
<rect width="48" height="48" fill="white"/>
</clipPath>
</defs>
</svg>
