<svg width="48" height="48" viewBox="0 0 48 48" fill="none" xmlns="http://www.w3.org/2000/svg">
<g clip-path="url(#clip0)">
<path d="M48 24C48 37.255 37.255 48 24 48C10.745 48 0 37.255 0 24C0 10.745 10.745 0 24 0C37.255 0 48 10.745 48 24Z" fill="#FF9A00"/>
<path d="M48.0005 24.0011C48.0005 23.4467 47.98 22.8973 47.943 22.3524C43.146 17.5562 36.6879 11.1061 36.6879 11.1061C33.5813 7.77063 29.1516 5.68359 24.2341 5.68359C14.8361 5.68359 7.21777 13.3022 7.21777 22.6999C7.21777 27.0494 8.85034 31.017 11.535 34.025L9.69446 38.9766L17.9489 47.231C19.8821 47.7334 21.9102 48.0011 24.0005 48.0011C37.2555 48.0011 48.0005 37.2561 48.0005 24.0011Z" fill="#E67500"/>
<path d="M24.2341 5.68359C14.8361 5.68359 7.21777 13.3019 7.21777 22.7C7.21777 27.0491 8.85034 31.0166 11.535 34.025L9.69446 38.9762L16.4866 37.8541C18.8102 39.0447 21.444 39.7163 24.2341 39.7163C33.6318 39.7163 41.2505 32.0977 41.2505 22.6996C41.2505 13.3019 33.6318 5.68359 24.2341 5.68359Z" fill="white"/>
<path d="M41.2509 22.6996C41.2509 32.0977 33.6318 39.7163 24.2349 39.7163V5.68359C33.6318 5.68359 41.2509 13.3022 41.2509 22.6996Z" fill="#FFF5CB"/>
<path d="M18.261 15.5352L14.2063 24.7955L11.7347 20.5918L9.81543 21.6362L14.4546 29.2252L19.7101 17.72H36.239V15.5352H18.261Z" fill="#FF328E"/>
<path d="M24.2349 15.5352H36.2404V17.72H24.2349V15.5352Z" fill="#C50A5B"/>
<path d="M20.5668 28.3226C20.2917 28.3226 20.0354 28.2776 19.7966 28.1871C19.5582 28.0967 19.3521 27.9703 19.1785 27.8077C19.0049 27.6448 18.8694 27.4551 18.772 27.2383C18.6742 27.0211 18.6255 26.7827 18.6255 26.5223C18.6255 26.255 18.6852 26.0071 18.8046 25.7797C18.9236 25.5519 19.0898 25.3582 19.3033 25.1992C19.5165 25.0403 19.7714 24.9154 20.068 24.825C20.3643 24.7345 20.6898 24.6895 21.0439 24.6895C21.297 24.6895 21.5446 24.7111 21.787 24.7546C22.0291 24.7979 22.2444 24.8594 22.4323 24.9388V24.6136C22.4323 24.2375 22.3257 23.9482 22.1122 23.7457C21.899 23.5436 21.5826 23.4421 21.1633 23.4421C20.8597 23.4421 20.5631 23.4963 20.2742 23.6047C19.9849 23.7135 19.6882 23.8724 19.3846 24.0819L18.9401 23.1602C19.6703 22.6757 20.4584 22.4336 21.3047 22.4336C22.1217 22.4336 22.756 22.6343 23.2079 23.0356C23.6598 23.4366 23.8857 24.0171 23.8857 24.7762V26.5439C23.8857 26.6959 23.9128 26.8043 23.967 26.8695C24.0212 26.9347 24.1099 26.9709 24.2329 26.9779V28.2142C23.9868 28.2648 23.7737 28.2904 23.5928 28.2904C23.3181 28.2904 23.1068 28.2289 22.9585 28.1058C22.8102 27.9832 22.7179 27.8206 22.682 27.618L22.6494 27.3035C22.396 27.636 22.0887 27.889 21.7277 28.0626C21.3658 28.2358 20.9791 28.3226 20.5668 28.3226ZM20.9791 27.2599C21.2249 27.2599 21.4581 27.2163 21.6786 27.1299C21.899 27.0431 22.0708 26.9274 22.1938 26.7827C22.3528 26.66 22.4323 26.5223 22.4323 26.3704V25.7196C22.2587 25.6548 22.0708 25.6024 21.8683 25.5625C21.6658 25.5229 21.4706 25.5028 21.2827 25.5028C20.9066 25.5028 20.5994 25.5881 20.361 25.7577C20.1222 25.9276 20.0028 26.1429 20.0028 26.403C20.0028 26.649 20.0966 26.853 20.2848 27.016C20.4727 27.1786 20.7041 27.2599 20.9791 27.2599Z" fill="#9331B2"/>
<path d="M28.9072 23.7765V24.9476H27.7903V26.1733H26.4778V24.9476H25.3608V23.7765H26.4778V22.5508H27.7903V23.7765H28.9072Z" fill="#5C1B6F"/>
<path d="M33.5818 28.3228C33.1478 28.3228 32.7607 28.2253 32.4213 28.0302C32.0811 27.835 31.8137 27.5673 31.6185 27.2274V28.2144H30.3496V20.2969H31.8027V23.5291C32.0052 23.1819 32.2711 22.9127 32.6 22.7208C32.9292 22.5297 33.3141 22.4334 33.755 22.4334C34.1238 22.4334 34.4603 22.5132 34.7639 22.6721C35.0675 22.8314 35.3293 23.0446 35.5502 23.3119C35.7706 23.5796 35.9406 23.8942 36.0599 24.2556C36.1793 24.6171 36.239 24.9968 36.239 25.3945C36.239 25.8065 36.172 26.1899 36.0383 26.5441C35.9043 26.8986 35.7186 27.2076 35.4799 27.4717C35.2411 27.7354 34.9591 27.9434 34.6339 28.095C34.3083 28.247 33.9575 28.3228 33.5818 28.3228ZM33.1804 27.0864C33.4115 27.0864 33.625 27.0414 33.8202 26.9509C34.0154 26.8605 34.1816 26.7393 34.319 26.5876C34.4563 26.4357 34.5632 26.2584 34.639 26.0559C34.7148 25.8538 34.7529 25.637 34.7529 25.4052C34.7529 25.1741 34.7167 24.9536 34.6445 24.7438C34.572 24.5339 34.4691 24.3497 34.3354 24.1904C34.2014 24.0315 34.0443 23.9052 33.8634 23.811C33.6825 23.7173 33.484 23.67 33.2668 23.67C32.9417 23.67 32.6505 23.7766 32.3938 23.9897C32.1371 24.2032 31.9401 24.4655 31.8027 24.7764V26.1321C31.8533 26.2767 31.9276 26.4067 32.025 26.5225C32.1228 26.6382 32.233 26.7378 32.3561 26.8206C32.4788 26.9037 32.6124 26.9689 32.7571 27.0158C32.9017 27.063 33.0427 27.0864 33.1804 27.0864Z" fill="#5C1B6F"/>
</g>
<defs>
<clipPath id="clip0">
<rect width="48" height="48" fill="white"/>
</clipPath>
</defs>
</svg>
