<svg width="48" height="48" viewBox="0 0 48 48" fill="none" xmlns="http://www.w3.org/2000/svg">
<path d="M24 48C37.2548 48 48 37.2548 48 24C48 10.7452 37.2548 0 24 0C10.7452 0 0 10.7452 0 24C0 37.2548 10.7452 48 24 48Z" fill="#FFC61B"/>
<path d="M47.6107 28.3241L35.9882 16.7016L31.5463 19.9874L22.7347 11.1758L11.7188 30.9876L28.3377 47.6067C38.119 45.8211 45.83 38.107 47.6107 28.3241Z" fill="#EAA22F"/>
<path d="M20.3706 16.2305H34.6954C35.8001 16.2305 36.6958 17.126 36.6958 18.2308V34.8245C36.6958 35.9291 35.8003 36.8248 34.6954 36.8248H25.2657L20.3706 16.2305Z" fill="#E6E6E6"/>
<path d="M29.4364 31.7705L25.2654 36.822L23.3667 30.9883L29.4364 31.7705Z" fill="#4254B7"/>
<path d="M32.9997 23.281H35.0989V22.2107H30.371V20.8672H28.7604V22.2107H26.1626V23.281H31.766C31.6004 23.8954 31.0768 25.5383 30.0333 26.3586C30.0333 26.3586 29.1501 25.4055 28.7605 24.5742H27.6287C27.6287 24.5742 28.2408 26.2627 29.254 27.2499L27.9551 28.6006L28.5526 29.6917C28.5526 29.6917 29.5916 28.7565 30.0593 28.0811C30.0593 28.0811 32.4233 30.5489 33.0726 31.0944L33.7741 30.2371C33.7741 30.2371 31.4256 28.0721 30.8905 27.0678C30.8904 27.0681 32.7617 25.2447 32.9997 23.281Z" fill="#627D88"/>
<path d="M29.4374 31.7699H13.3055C12.2009 31.7699 11.3052 30.8744 11.3052 29.7696V13.1761C11.3052 12.0715 12.2007 11.1758 13.3055 11.1758H22.7354L29.4374 31.7699Z" fill="#4F8FF5"/>
<path d="M18.5297 20.9192V22.3245H20.7274C20.4158 23.3304 19.4781 24.0612 18.3698 24.0612C17.0068 24.0612 15.9019 22.9562 15.9019 21.5933C15.9019 20.2304 17.0067 19.1254 18.3696 19.1254C19.0065 19.1254 19.5852 19.3688 20.0231 19.7649L21.0543 18.6609C20.3469 18.0128 19.4045 17.6172 18.3695 17.6172C16.1736 17.6172 14.3936 19.3972 14.3936 21.5931C14.3936 23.789 16.1736 25.5691 18.3695 25.5691C20.5654 25.5691 22.3454 23.789 22.3454 21.5931C22.3454 21.3632 22.3242 21.1383 22.2865 20.9191H18.5297V20.9192Z" fill="#EEEEEE"/>
</svg>
