<svg width="48" height="48" viewBox="0 0 48 48" fill="none" xmlns="http://www.w3.org/2000/svg">
<g clip-path="url(#clip0)">
<path d="M48 24C48 37.255 37.255 48 24 48C10.745 48 0 37.255 0 24C0 10.745 10.745 0 24 0C37.255 0 48 10.745 48 24Z" fill="#9331B2"/>
<path d="M47.9237 25.9296L28.5845 6.5907C26.4729 4.37219 24.001 2.97656 24.001 2.97656C24.001 2.97656 16.4684 7.22827 16.4684 12.6866V27.4896L12.2866 30.2574L12.2002 37.3502L22.8207 47.9707C23.2118 47.9897 23.6051 48 24.001 48C36.6063 48 46.9408 38.2819 47.9237 25.9296Z" fill="#5C1B6F"/>
<path d="M17.2015 27.0039L12.2848 30.2584L12.1987 37.3508L17.2015 33.9381V27.0039Z" fill="#FF328E"/>
<path d="M30.7974 27.0039L35.7141 30.2584L35.8002 37.3508L30.7974 33.9381V27.0039Z" fill="#C50A5B"/>
<path d="M24.0004 2.97656C24.0004 2.97656 16.4678 7.22827 16.4678 12.6866V37.7487H31.533C31.533 37.7487 31.533 18.1454 31.533 12.6866C31.533 7.22827 24.0004 2.97656 24.0004 2.97656Z" fill="white"/>
<path d="M31.533 12.6863V37.7483H24V2.97656C24 2.97656 31.533 7.22827 31.533 12.6863Z" fill="#FFF5CB"/>
<path d="M24.0004 2.97656C24.0004 2.97656 16.4678 7.22827 16.4678 12.6866H31.533C31.533 7.22827 24.0004 2.97656 24.0004 2.97656Z" fill="#FF328E"/>
<path d="M31.533 12.6863H24V2.97656C24 2.97656 31.533 7.22827 31.533 12.6863Z" fill="#C50A5B"/>
<path d="M29.8362 23.1414C29.8362 26.3644 27.2233 28.9777 23.9999 28.9777C20.7765 28.9777 18.1636 26.3644 18.1636 23.1414C18.1636 19.918 20.7765 17.3047 23.9999 17.3047C27.2233 17.3047 29.8362 19.918 29.8362 23.1414Z" fill="#B857CF"/>
<path d="M29.837 23.1417C29.837 26.3647 27.223 28.9777 24 28.9777V17.3047C27.223 17.3047 29.837 19.9187 29.837 23.1417Z" fill="#9331B2"/>
<path d="M28.125 23.1417C28.125 25.4203 26.2778 27.2675 23.9993 27.2675C21.7207 27.2675 19.8735 25.4203 19.8735 23.1417C19.8735 20.8628 21.7207 19.0156 23.9993 19.0156C26.2778 19.0156 28.125 20.8628 28.125 23.1417Z" fill="#00E8F2"/>
<path d="M16.4678 37.1523H31.533V39.889H16.4678V37.1523Z" fill="#00E8F2"/>
<path d="M24 37.1523H31.533V39.889H24V37.1523Z" fill="#00B7BE"/>
<path d="M22.3032 33.9609H25.6987V44.2108H22.3032V33.9609Z" fill="#FF328E"/>
<path d="M24 33.9609H25.6978V44.2104H24V33.9609Z" fill="#C50A5B"/>
<path d="M28.1261 23.1417C28.1261 25.4199 26.2782 27.2678 24 27.2678V19.0156C26.2782 19.0156 28.1261 20.8628 28.1261 23.1417Z" fill="#00B7BE"/>
</g>
<defs>
<clipPath id="clip0">
<rect width="48" height="48" fill="white"/>
</clipPath>
</defs>
</svg>
