<svg width="48" height="48" viewBox="0 0 48 48" fill="none" xmlns="http://www.w3.org/2000/svg">
<path d="M24 48C37.2548 48 48 37.2548 48 24C48 10.7452 37.2548 0 24 0C10.7452 0 0 10.7452 0 24C0 37.2548 10.7452 48 24 48Z" fill="#006EF5"/>
<path d="M47.9991 23.9999C47.9991 22.5655 47.8728 21.1607 47.6315 19.7955L36.254 8.41797H11.5728V39.5819L19.5841 47.5932C21.0154 47.8592 22.4907 47.9999 23.9991 47.9999C37.254 47.9999 47.9991 37.2547 47.9991 23.9999Z" fill="#0043A3"/>
<path d="M36.2553 8.41797H11.5737V39.5823H36.2553V8.41797Z" fill="white"/>
<path d="M36.2544 8.41797H23.9141V39.5823H36.2544V8.41797Z" fill="#FFF4AA"/>
<path d="M15.542 20.0977V33.5859H26.9551V20.0977H15.542ZM16.4498 32.651V21.0325H26.0472V32.651H16.4498Z" fill="#00D4D1"/>
<path d="M23.915 20.0977V21.0323H26.0488V32.6508H23.915V33.5864H26.9563V20.0977H23.915Z" fill="#009CA0"/>
<path d="M26.5381 14.2461C23.0657 14.2461 20.2407 17.0711 20.2407 20.5436C20.2407 24.0161 23.0657 26.8409 26.5381 26.8409C30.0106 26.8409 32.8356 24.016 32.8356 20.5436C32.8356 17.0712 30.0105 14.2461 26.5381 14.2461ZM26.5381 25.8898C23.5901 25.8898 21.1918 23.4915 21.1918 20.5436C21.1918 17.5956 23.5901 15.1973 26.5381 15.1973C29.4862 15.1973 31.8845 17.5956 31.8845 20.5436C31.8845 23.4915 29.4861 25.8898 26.5381 25.8898Z" fill="#FFA700"/>
<path d="M26.5382 14.2461C25.6025 14.2461 24.7138 14.4514 23.915 14.8198V15.8867C24.6904 15.448 25.5857 15.1977 26.5382 15.1977C29.4866 15.1977 31.8847 17.5958 31.8847 20.5442C31.8847 23.4917 29.4866 25.8899 26.5382 25.8899C25.5857 25.8899 24.6904 25.6395 23.915 25.2008V26.2686C24.7138 26.6361 25.6025 26.8414 26.5382 26.8414C30.0107 26.8414 32.8353 24.0167 32.8353 20.5442C32.8353 17.0717 30.0106 14.2461 26.5382 14.2461Z" fill="#FF6900"/>
<path d="M26.957 33.5834L28.7335 28.7964L29.1705 28.3594L32.1811 31.37L31.744 31.807L26.957 33.5834Z" fill="#FFA700"/>
<path d="M32.1804 31.3725L31.7431 31.8098L29.6683 32.5801L29.6677 32.5796L26.9561 33.5862L30.6751 29.8672L32.1804 31.3725Z" fill="#FF6900"/>
<path d="M28.7339 28.7983L31.7441 31.8086L42.7781 20.7747L39.7678 17.7644L28.7339 28.7983Z" fill="#E9336D"/>
<path d="M31.7434 31.8074L42.7773 20.7734L41.2721 19.2682L30.2381 30.3021L31.7434 31.8074Z" fill="#B12E65"/>
<path d="M29.6693 32.5807L27.9635 30.875L26.957 33.5872L29.6693 32.5807Z" fill="#006EF5"/>
<path d="M29.6683 32.5796L26.9561 33.5857L28.8152 31.7266L29.6683 32.5796Z" fill="#0043A3"/>
</svg>
