<svg width="48" height="48" viewBox="0 0 48 48" fill="none" xmlns="http://www.w3.org/2000/svg">
<g clip-path="url(#clip0)">
<path d="M48 24C48 37.255 37.255 48 24 48C10.745 48 0 37.255 0 24C0 10.745 10.745 0 24 0C37.255 0 48 10.745 48 24Z" fill="#FF9A00"/>
<path d="M47.9995 24.0013C47.9995 21.7806 47.6967 19.6309 47.132 17.5896L38.7736 9.22684C33.9919 4.44522 26.2393 4.44522 21.4576 9.22684C17.2524 13.432 16.7463 19.9341 19.9371 24.6934L17.7996 26.831L16.9752 26.0063L7.04395 35.9375L18.4653 47.3589C20.2422 47.7782 22.0948 48.0013 23.9995 48.0013C37.2545 48.0013 47.9995 37.2563 47.9995 24.0013Z" fill="#E67500"/>
<path d="M36.9326 11.0662C33.1676 7.30084 27.0633 7.30084 23.2979 11.0662C19.5329 14.8312 19.5329 20.936 23.2979 24.701C27.0633 28.466 33.1676 28.466 36.9326 24.701C40.698 20.936 40.698 14.8312 36.9326 11.0662Z" fill="#00E8F2"/>
<path d="M36.9329 24.7012C33.1675 28.4666 27.0627 28.4673 23.2974 24.7019L36.9329 11.0664C40.6982 14.8318 40.6975 20.9365 36.9329 24.7012Z" fill="#00B7BE"/>
<path d="M20.1433 24.4883L23.5135 27.8585L20.9797 30.392L17.6099 27.0221L20.1433 24.4883Z" fill="#FFEC97"/>
<path d="M19.2939 28.7053L21.8274 26.1719L23.5127 27.8568L20.9789 30.3906L19.2939 28.7053Z" fill="#FFD400"/>
<path d="M38.7742 9.22684C33.9926 4.44522 26.2399 4.44522 21.4583 9.22684C16.6767 14.0088 16.6767 21.7611 21.4583 26.5431C26.2399 31.3247 33.9926 31.3247 38.7742 26.5431C43.5558 21.7611 43.5558 14.0088 38.7742 9.22684ZM23.5376 24.4634C19.9044 20.8302 19.9044 14.9397 23.5376 11.3065C27.1708 7.67337 33.0617 7.67337 36.6949 11.3065C40.328 14.9397 40.328 20.8302 36.6949 24.4634C33.0617 28.0966 27.1708 28.0966 23.5376 24.4634Z" fill="white"/>
<path d="M38.7734 9.22656L36.6937 11.3059C40.3273 14.9395 40.3273 20.83 36.6945 24.4628C33.0609 28.0963 27.1704 28.0963 23.5369 24.4628L21.4575 26.5425C22.0343 27.1193 22.6539 27.6265 23.3069 28.0633C28.0662 31.2552 34.5686 30.748 38.7742 26.5425C43.5558 21.7609 43.5551 14.0082 38.7734 9.22656Z" fill="#FFF5CB"/>
<path d="M16.9758 26.0039L21.9951 31.0232L12.0642 40.9545L7.04492 35.9352L16.9758 26.0039Z" fill="#9331B2"/>
<path d="M9.55469 38.4465L19.4856 28.5156L21.9952 31.0253L12.0643 40.9562L9.55469 38.4465Z" fill="#681F7B"/>
<path d="M30.1162 13.7891C25.094 13.7891 21.9834 17.8826 21.9834 17.8826C21.9834 17.8826 25.094 21.9757 30.1162 21.9757C35.1388 21.9757 38.249 17.8826 38.249 17.8826C38.249 17.8826 35.1388 13.7891 30.1162 13.7891Z" fill="white"/>
<path d="M38.2487 17.8843C38.2487 17.8843 35.1381 21.9774 30.1158 21.9774C28.8411 21.9774 27.6897 21.7137 26.6812 21.3201L27.7377 20.2624L32.4944 15.5057L33.552 14.4492C36.5172 15.605 38.2487 17.8843 38.2487 17.8843Z" fill="#FFF5CB"/>
<path d="M33.4801 17.8835C33.4801 19.7413 31.9739 21.2472 30.1161 21.2472C28.2583 21.2472 26.7524 19.7413 26.7524 17.8835C26.7524 16.0258 28.2583 14.5195 30.1161 14.5195C31.9739 14.5195 33.4801 16.0258 33.4801 17.8835Z" fill="#B857CF"/>
<path d="M33.481 17.8824C33.481 19.7402 31.9751 21.2461 30.1169 21.2461C29.1879 21.2461 28.347 20.87 27.7388 20.2606L32.4955 15.5039C33.1049 16.1122 33.481 16.9534 33.481 17.8824Z" fill="#9331B2"/>
<path d="M31.7942 17.8857C31.7942 18.8126 31.0427 19.5641 30.1158 19.5641C29.189 19.5641 28.4375 18.8126 28.4375 17.8857C28.4375 16.9585 29.189 16.207 30.1158 16.207C31.0427 16.207 31.7942 16.9585 31.7942 17.8857Z" fill="#802897"/>
<path d="M31.7939 17.8822C31.7939 18.8091 31.0428 19.5602 30.1156 19.5602C29.6516 19.5602 29.2327 19.3727 28.9287 19.0691L31.3025 16.6953C31.6064 16.9989 31.7939 17.4178 31.7939 17.8822Z" fill="#5C1B6F"/>
</g>
<defs>
<clipPath id="clip0">
<rect width="48" height="48" fill="white"/>
</clipPath>
</defs>
</svg>
