<svg width="48" height="48" viewBox="0 0 48 48" fill="none" xmlns="http://www.w3.org/2000/svg">
<g clip-path="url(#clip0)">
<path d="M8.33147 42.1801C3.2295 37.779 0 31.2667 0 24C0 10.7452 10.7452 0 24 0C37.2548 0 48 10.7452 48 24C48 31.2667 44.7705 37.7791 39.6684 42.1802L8.33147 42.1801Z" fill="#A3D4FF"/>
<path d="M32.228 9.28516L14.7227 20.2077L19.9143 25.3994H18.3618L33.8893 40.9268L39.6689 42.1789C44.527 37.9882 47.6873 31.8832 47.9783 25.0354L32.228 9.28516Z" fill="#65B1FC"/>
<path d="M16.2214 20.9096C17.301 20.9096 18.1762 20.0344 18.1762 18.9548C18.1762 17.8752 17.301 17 16.2214 17C15.1418 17 14.2666 17.8752 14.2666 18.9548C14.2666 20.0344 15.1418 20.9096 16.2214 20.9096Z" fill="#E09380"/>
<path d="M31.778 20.9096C32.8576 20.9096 33.7328 20.0344 33.7328 18.9548C33.7328 17.8752 32.8576 17 31.778 17C30.6984 17 29.8232 17.8752 29.8232 18.9548C29.8232 20.0344 30.6984 20.9096 31.778 20.9096Z" fill="#D47F6C"/>
<path d="M18.5021 30.832L13.9322 31.3125C12.8044 31.4701 11.8184 31.9299 11.0805 32.5799C11.0792 32.5793 11.0778 32.5789 11.0765 32.5783C10.2115 33.3392 9.68945 34.3627 9.68945 35.474V39.4443C13.8169 41.6461 18.7292 42.9233 24.0012 42.9233C29.2733 42.9233 34.1855 41.6461 38.313 39.4443V35.474C38.313 34.3627 37.791 33.3392 36.926 32.5783C36.9246 32.5789 36.9233 32.5793 36.922 32.5799C36.184 31.9299 35.1982 31.4701 34.0703 31.3125L29.5003 30.832L24.0012 32.7896L18.5021 30.832Z" fill="white"/>
<path d="M24 32.7893V42.9232C29.2672 42.9212 34.1875 41.6443 38.3118 39.4443V35.474C38.3118 34.3627 37.7898 33.3392 36.9247 32.5783C36.9233 32.5789 36.922 32.5793 36.9207 32.5799C36.1828 31.9299 35.1969 31.4701 34.069 31.3125L29.4991 30.832" fill="#E9EDF5"/>
<path d="M18.5005 30.8323C19.8102 32.4118 21.7874 33.4179 23.9996 33.4179C26.2118 33.4179 28.189 32.4118 29.4987 30.8323L29.2115 30.784C28.1791 30.6101 27.4232 29.7162 27.4232 28.6692V23.9023H20.576V28.6693C20.576 29.7162 19.8201 30.6102 18.7877 30.7841L18.5005 30.8323Z" fill="#E09380"/>
<path d="M29.4991 30.8323L29.2119 30.784C28.1796 30.6101 27.4237 29.7162 27.4237 28.6693V23.9023H24V33.4178C26.208 33.4146 28.1915 32.4094 29.4991 30.8323Z" fill="#D47F6C"/>
<path d="M24.0011 27.7269C19.8179 27.7269 16.0884 24.3359 16.0884 20.1528V15.9413C16.0884 11.7582 19.818 8.36719 24.0011 8.36719C28.1842 8.36719 31.9137 11.7582 31.9137 15.9413V20.1528C31.9137 24.3359 28.1842 27.7269 24.0011 27.7269Z" fill="#FAA68E"/>
<path d="M24 8.36719V27.7269C28.1831 27.7269 31.9127 24.3359 31.9127 20.1528V15.9413C31.9127 11.7582 28.1831 8.36719 24 8.36719Z" fill="#E09380"/>
<path d="M8.33252 42.1793C12.5369 45.8061 18.0129 47.9992 24.0011 47.9992C29.9892 47.9992 35.4652 45.8061 39.6696 42.1793V34.5898H8.33252V42.1793Z" fill="#414952"/>
<path d="M24 47.9992C29.9882 47.9992 35.4641 45.8061 39.6685 42.1793V34.5898H24V47.9992Z" fill="#23272B"/>
<path d="M23.9999 45.5712C25.5308 45.5712 26.7718 44.3301 26.7718 42.7992C26.7718 41.2684 25.5308 40.0273 23.9999 40.0273C22.4691 40.0273 21.228 41.2684 21.228 42.7992C21.228 44.3301 22.4691 45.5712 23.9999 45.5712Z" fill="#7E8596"/>
<path d="M24 40.0273C25.5309 40.0273 26.7719 41.2684 26.7719 42.7992C26.7719 44.3302 25.5308 45.5712 24 45.5712V40.0273Z" fill="#707789"/>
<path d="M33.2781 12.8586C33.2781 9.21522 30.3246 6.26172 26.6812 6.26172H22.2462C18.0911 6.26172 14.7227 9.63016 14.7227 13.7852V17.58C14.7227 18.3396 15.3384 18.9554 16.0981 18.9554V16.611H19.477C21.8079 16.611 26.6965 16.7845 28.9641 13.251C29.2268 14.4055 30.1679 16.3554 31.4655 16.3554H31.9027V18.9554C32.6624 18.9554 33.2781 18.3395 33.2781 17.58V12.8586Z" fill="#414952"/>
<path d="M26.6808 6.26172H24V16.3037C25.8719 15.9264 27.7823 15.0919 28.9638 13.251C29.2265 14.4055 30.1675 16.3554 31.4651 16.3554H31.9024V18.9553C32.662 18.9553 33.2778 18.3395 33.2778 17.5799V12.8586C33.2778 9.21531 30.3242 6.26172 26.6808 6.26172Z" fill="#333940"/>
</g>
<defs>
<clipPath id="clip0">
<rect width="48" height="48" fill="white"/>
</clipPath>
</defs>
</svg>
