<svg width="48" height="48" viewBox="0 0 48 48" fill="none" xmlns="http://www.w3.org/2000/svg">
<path d="M24 48C37.2548 48 48 37.2548 48 24C48 10.7452 37.2548 0 24 0C10.7452 0 0 10.7452 0 24C0 37.2548 10.7452 48 24 48Z" fill="#7CDA4D"/>
<path d="M47.9849 24.8468L36.1659 13.0279L36.099 13.0948L29.349 6.3125L18.6535 8.38531L21.0994 10.8228V11.9081L14.1311 15.3249L11.8667 13.0592L12.5754 16.8926L13.42 37.3333L24.0867 47.9998C37.0192 47.9548 47.5402 37.6814 47.9849 24.8468Z" fill="#42B653"/>
<path d="M31.942 17.2492L33.4077 18.7148L37.629 14.4935L36.1634 13.0278L31.942 17.2492Z" fill="#A1B8D8"/>
<path d="M10.341 14.4621L14.1865 18.6445L15.7123 17.2417L11.8667 13.0593L10.341 14.4621Z" fill="#D6E6FD"/>
<path d="M26.9021 7.34766H22.6172L24.0002 14.3033H26.9021V7.34766Z" fill="#A1B8D8"/>
<path d="M24 7.34766H21.0981V14.303H24V7.34766Z" fill="#D6E6FD"/>
<path d="M29.3474 6.3125H23.9996L23.3081 7.34891L23.9996 8.38541H29.3474V6.3125Z" fill="#384C6C"/>
<path d="M24.0003 6.3125H18.6528V8.38531H24.0003V6.3125Z" fill="#6C819F"/>
<path d="M24.0002 11.625L22.6172 26.6562L24.0002 41.6874C32.3017 41.6874 39.0314 34.9577 39.0314 26.6562V26.6561C39.0314 18.3547 32.3017 11.625 24.0002 11.625Z" fill="#384C6C"/>
<path d="M23.999 11.625C15.6974 11.625 8.96777 18.3547 8.96777 26.6562V26.6563C8.96777 34.9578 15.6975 41.6875 23.999 41.6875V11.625Z" fill="#6C819F"/>
<path d="M24.0002 15.9023L22.6172 26.6588L24.0002 37.4152C29.9314 37.4152 34.7567 32.5899 34.7567 26.6587C34.7567 20.7277 29.9314 15.9023 24.0002 15.9023Z" fill="#A1B8D8"/>
<path d="M13.2422 26.6588C13.2422 32.5899 18.0675 37.4152 23.9987 37.4152V15.9023C18.0675 15.9023 13.2422 20.7277 13.2422 26.6588Z" fill="#D6E6FD"/>
<path d="M25.036 34.2041V27.1797H23.3081L23.9996 34.2041H25.036Z" fill="#6C819F"/>
<path d="M23.9988 27.1797H22.9629V34.2041H23.9988V27.1797Z" fill="#A1B8D8"/>
<path d="M27.0845 26.6585C27.0845 24.9552 25.7036 23.5742 24.0002 23.5742L22.6172 26.6585L24.0002 29.7429C25.7036 29.7429 27.0845 28.362 27.0845 26.6585Z" fill="#384C6C"/>
<path d="M20.9146 26.6585C20.9146 28.3619 22.2954 29.7429 23.9988 29.7429V23.5742C22.2954 23.5742 20.9146 24.9552 20.9146 26.6585Z" fill="#6C819F"/>
</svg>
