<svg width="48" height="48" viewBox="0 0 48 48" fill="none" xmlns="http://www.w3.org/2000/svg">
<g clip-path="url(#clip0)">
<path d="M24 48C37.2548 48 48 37.2548 48 24C48 10.7452 37.2548 0 24 0C10.7452 0 0 10.7452 0 24C0 37.2548 10.7452 48 24 48Z" fill="#E9336D"/>
<path d="M48.0007 23.9987C48.0007 22.145 47.7902 20.3406 47.3924 18.6077L39.8217 11.0515C39.647 10.8527 39.3914 10.7266 39.1075 10.7266H8.89382C8.36957 10.7266 7.94066 11.1555 7.94066 11.6797V31.5451C7.94066 31.9067 8.14485 32.2228 8.44353 32.3842H5.4126V34.8268L17.7644 47.1786C19.7533 47.7123 21.8434 47.9987 24.0007 47.9987C37.2555 47.9987 48.0007 37.2535 48.0007 23.9987Z" fill="#762957"/>
<path d="M39.1068 32.4982H8.8931C8.36885 32.4982 7.93994 32.0693 7.93994 31.5451V11.6797C7.93994 11.1555 8.36885 10.7266 8.8931 10.7266H39.1068C39.6311 10.7266 40.06 11.1555 40.06 11.6797V31.5451C40.06 32.0693 39.6311 32.4982 39.1068 32.4982Z" fill="#00D4D1"/>
<path d="M40.0603 11.68V31.5447C40.0603 31.9075 39.8559 32.2234 39.5569 32.3847C39.4228 32.4569 39.2691 32.4981 39.1069 32.4981H24V10.7266H39.1069C39.6309 10.7266 40.0603 11.1559 40.0603 11.68Z" fill="#009CA0"/>
<path d="M38.5623 12.168H9.43604V30.7314H38.5623V12.168Z" fill="white"/>
<path d="M38.5631 12.168H24V30.7323H38.5631V12.168Z" fill="#FFF4AA"/>
<path d="M42.5892 32.3867H5.4126V34.8289H42.5892V32.3867Z" fill="#FEE572"/>
<path d="M42.5878 32.3867H24V34.8289H42.5878V32.3867Z" fill="#FFC100"/>
<path d="M17.7705 32.3867L18.6009 33.608H29.3972L30.2276 32.3867H17.7705Z" fill="#FFA700"/>
<path d="M30.2288 32.3867L30.1519 32.5002L29.3981 33.6073H24V32.3867H30.2288Z" fill="#FF6900"/>
<path d="M22.1108 16.0938H13.7427V26.8084H22.1108V16.0938Z" fill="#FFA700"/>
<path d="M34.0786 17.9727H25.0898V19.2103H34.0786V17.9727Z" fill="#006EF5"/>
<path d="M34.0786 20.832H25.0898V22.0696H34.0786V20.832Z" fill="#006EF5"/>
<path d="M34.0786 23.6875H25.0898V24.9251H34.0786V23.6875Z" fill="#006EF5"/>
<path d="M34.0786 17.9727H25.0898V19.2103H34.0786V17.9727Z" fill="#006EF5"/>
<path d="M34.0786 20.832H25.0898V22.0696H34.0786V20.832Z" fill="#006EF5"/>
<path d="M34.0786 23.6875H25.0898V24.9251H34.0786V23.6875Z" fill="#006EF5"/>
</g>
<defs>
<clipPath id="clip0">
<rect width="48" height="48" fill="white"/>
</clipPath>
</defs>
</svg>
