<svg width="48" height="48" viewBox="0 0 48 48" fill="none" xmlns="http://www.w3.org/2000/svg">
<g clip-path="url(#clip0)">
<path d="M24 48C37.2548 48 48 37.2548 48 24C48 10.7452 37.2548 0 24 0C10.7452 0 0 10.7452 0 24C0 37.2548 10.7452 48 24 48Z" fill="#A3D4FF"/>
<path d="M48.0014 23.9998C48.0014 23.3155 47.9727 22.6378 47.9165 21.9681L34.0657 8.11719L15.3236 15.8259L21.9733 22.4756L12.6547 25.1905L16.7257 29.2614L10.998 36.2456L22.7184 47.966C23.1433 47.9884 23.571 47.9998 24.0014 47.9998C37.2562 47.9998 48.0014 37.2546 48.0014 23.9998Z" fill="#65B1FC"/>
<path d="M34.0633 17.0632H18.4076C15.9373 17.0632 13.9346 15.0606 13.9346 12.5902C13.9346 10.1199 15.9372 8.11719 18.4076 8.11719H34.0633V10.7499L33.578 12.5463L34.0633 14.4304V17.0632Z" fill="#FFCE00"/>
<path d="M34.0648 8.11719H23.9858V17.0632H34.0648V14.4304L33.5795 12.5463L34.0648 10.7499V8.11719Z" fill="#FDBA12"/>
<path d="M34.0632 14.4306H18.2963C17.2881 14.4306 16.4707 13.6133 16.4707 12.605V12.5756C16.4707 11.5674 17.288 10.75 18.2963 10.75H34.0631V14.4306H34.0632Z" fill="white"/>
<path d="M23.9858 10.75H34.0647V14.4305H23.9858V10.75Z" fill="#E9EDF5"/>
<path d="M37.301 25.9655H15.1703C12.7 25.9655 10.6973 23.9629 10.6973 21.4925C10.6973 19.0222 12.6999 17.0195 15.1703 17.0195H37.301V19.6522L36.8157 21.4487L37.301 23.3327V25.9655Z" fill="#7584F2"/>
<path d="M37.3018 17.0195H23.9854V25.9655H37.3018V23.3328L36.8165 21.4487L37.3018 19.6522V17.0195Z" fill="#606AEA"/>
<path d="M37.2998 23.333H15.058C14.0498 23.333 13.2324 22.5157 13.2324 21.5074V21.4779C13.2324 20.4697 14.0497 19.6523 15.058 19.6523H37.2999V23.333H37.2998Z" fill="white"/>
<path d="M23.9854 19.6523H37.3018V23.3329H23.9854V19.6523Z" fill="#E9EDF5"/>
<path d="M38.7673 38.0165H15.2651C11.9329 38.0165 9.23145 35.3152 9.23145 31.9829C9.23145 28.6506 11.9328 25.9492 15.2651 25.9492H38.7673V29.5005L38.1127 31.9237L38.7673 34.4652V38.0165Z" fill="#FE6A16"/>
<path d="M38.7683 25.9492H23.9858V38.0164H38.7683V34.4652L38.1138 31.9236L38.7683 29.5005V25.9492Z" fill="#F24500"/>
<path d="M38.7684 34.4648H15.1163C13.7563 34.4648 12.6538 33.3623 12.6538 32.0023V31.9625C12.6538 30.6025 13.7563 29.5 15.1163 29.5H38.7684V34.4648Z" fill="white"/>
<path d="M23.9858 29.5H38.7683V34.4647H23.9858V29.5Z" fill="#E9EDF5"/>
</g>
<defs>
<clipPath id="clip0">
<rect width="48" height="48" fill="white"/>
</clipPath>
</defs>
</svg>
