<svg width="56" height="56" fill="none" xmlns="http://www.w3.org/2000/svg"><g clip-path="url(#clip0)"><path d="M56 27.997C56 12.535 43.464 0 28 0S0 12.535 0 27.997C0 43.46 12.536 55.995 28 55.995S56 43.46 56 27.998z" fill="#DA6BCF"/><path d="M34.23 14.878v17.045L20.542 18.236l-4.82 2.442-2.148 21.75 13.557 13.557a28 28 0 0028.862-27.106L37.68 10.566l-3.451 4.312z" fill="#A13F7A"/><path d="M18.958 19.457h-6.477v20.54a3.238 3.238 0 106.477 0v-20.54z" fill="#EEF4FF"/><path d="M18.958 19.457h-6.477v20.54a3.238 3.238 0 106.477 0v-20.54z" fill="#EEF4FF"/><path d="M15.72 43.235a3.239 3.239 0 003.24-3.239v-20.54h-3.24v23.78z" fill="#D6E9F8"/><path d="M15.721 41.595a1.6 1.6 0 01-1.598-1.598v-20.72h3.196v20.72a1.598 1.598 0 01-1.598 1.598z" fill="#D6E9F8"/><path d="M15.721 41.595a1.6 1.6 0 01-1.598-1.598v-20.72h3.196v20.72a1.598 1.598 0 01-1.598 1.598z" fill="#B2D7F3"/><path d="M15.72 19.276V41.59a1.598 1.598 0 001.599-1.598V19.276H15.72z" fill="#8BBBFF"/><path d="M10.9 18.236h9.642v2.442H10.9v-2.442z" fill="#EEF4FF"/><path d="M15.72 18.236h4.821v2.442h-4.82v-2.442z" fill="#D6E9F8"/><path d="M15.721 41.596a1.6 1.6 0 01-1.598-1.598V27.51h3.196v12.485a1.6 1.6 0 01-1.598 1.6z" fill="#FF6379"/><path d="M15.72 27.511v14.085a1.598 1.598 0 001.599-1.598V27.51H15.72z" fill="#FF415B"/><path d="M37.026 23.11V11.786h-8.332v11.322L20.61 43.236h24.503l-8.086-20.127z" fill="#EEF4FF"/><path d="M23.037 41.594l7.298-18.17V11.788h5.05v11.638l7.299 18.168-19.647.001z" fill="#B2D7F3"/><path d="M37.026 23.11V11.786h-4.167v31.448h12.252L37.026 23.11z" fill="#D6E9F8"/><path d="M42.684 41.594l-7.299-18.17V11.788h-2.526v29.807h9.825z" fill="#8BBBFF"/><path d="M28.04 10.566h9.64v2.446h-9.64v-2.446z" fill="#EEF4FF"/><path d="M32.86 10.566h4.82v2.446h-4.82v-2.446z" fill="#D6E9F8"/><path d="M23.037 41.593l4.968-12.368 9.705-.012 4.974 12.38H23.037z" fill="#A160E4"/><path d="M42.685 41.593L37.71 29.214l-4.85.012v12.367h9.824zm-12.536-7.308a1.123 1.123 0 100-2.247 1.123 1.123 0 000 2.247z" fill="#7A3EB4"/><path d="M36.06 38.49a1.712 1.712 0 100-3.423 1.712 1.712 0 000 3.424z" fill="#613393"/></g><defs><clipPath id="clip0"><path fill="#fff" d="M0 0h56v56H0z"/></clipPath></defs></svg>