<svg width="56" height="56" fill="none" xmlns="http://www.w3.org/2000/svg"><g clip-path="url(#clip0)"><path d="M28 0a28 28 0 110 56 28 28 0 010-56z" fill="#6BDAC6"/><path d="M55.565 33.058L42.001 19.494l-5.184 3.835-10.284-10.284-12.855 23.122 19.397 19.397a28.037 28.037 0 0022.49-22.506z" fill="#3FA18F"/><path d="M23.773 18.94h16.719a2.336 2.336 0 012.336 2.337v19.366a2.337 2.337 0 01-2.336 2.336H29.486L23.773 18.94z" fill="#E6E6E6"/><path d="M34.355 37.08l-4.867 5.895-2.216-6.808 7.083.913z" fill="#4254B7"/><path d="M38.515 27.172h2.45v-1.25h-5.518v-1.566h-1.88v1.568h-3.032v1.25h6.54c-.194.716-.805 2.634-2.022 3.591-.58-.63-1.08-1.329-1.486-2.082h-1.322a9.724 9.724 0 001.895 3.122l-1.516 1.577.698 1.274a14.609 14.609 0 001.758-1.88s2.759 2.88 3.517 3.516l.819-1s-2.74-2.527-3.365-3.699c.002-.001 2.186-2.13 2.464-4.421z" fill="#627D88"/><path d="M34.355 37.08H15.528a2.336 2.336 0 01-2.337-2.337V15.377a2.337 2.337 0 012.337-2.337h11.005l7.822 24.04z" fill="#4F8FF5"/><path d="M21.626 24.415v1.64h2.564a2.885 2.885 0 11-.822-2.987l1.204-1.289a4.666 4.666 0 101.438 2.636h-4.384z" fill="#EEE"/></g><defs><clipPath id="clip0"><path fill="#fff" d="M0 0h56v56H0z"/></clipPath></defs></svg>