<svg width="58" height="56" fill="none" xmlns="http://www.w3.org/2000/svg"><g clip-path="url(#clip0)"><path d="M57.29 28c.011 5.942-1.922 11.732-5.516 16.525-5.212 6.956-13.63 4.32-23.129 4.32-9.498 0-17.916 2.636-23.128-4.32A27.667 27.667 0 01.364 32.45a27.4 27.4 0 011.02-13.045 27.9 27.9 0 016.97-11.168 28.761 28.761 0 0111.402-6.853A29.275 29.275 0 0133.096.343a29.005 29.005 0 0112.37 4.995 28.186 28.186 0 018.698 9.944 27.492 27.492 0 013.128 12.72L57.29 28z" fill="#6B6FDA"/><path d="M28.645 48.846c9.498 0 17.917 2.636 23.128-4.323 3.594-4.792 5.527-10.58 5.518-16.522 0-.164-.004-.328-.007-.491L37.34 8.015 17.566 24.07l4.047 3.985c.48 1.727 2.423 6.419 2.423 6.419l-18.52 10.05c5.213 6.958 13.631 4.322 23.13 4.322z" fill="#413FA1"/><path d="M19.273 32.85h18.744v4.776H19.273v-4.777z" fill="#584B66"/><path d="M28.645 32.85h9.37v4.776h-9.37v-4.777z" fill="#4A3E56"/><path d="M22.375 28.491h12.538V41.49H22.375v-13z" fill="#FFBB7D"/><path d="M28.645 28.492h6.268V41.49h-6.268V28.492z" fill="#EFA36A"/><path d="M15.057 36.345h27.177v12.501H15.057V36.345z" fill="#FFD4A6"/><path d="M28.645 36.345h13.588v12.501H28.645V36.345z" fill="#FFBB7D"/><path d="M51.773 44.523a28.488 28.488 0 01-10.159 8.444 29.185 29.185 0 01-12.969 3.034c-4.507 0-8.95-1.04-12.969-3.034a28.487 28.487 0 01-10.158-8.444 8.358 8.358 0 012.622-5.798 8.743 8.743 0 016.011-2.38h8.225l6.269 5.875 6.268-5.875h8.226c2.244 0 4.4.852 6.012 2.379a8.355 8.355 0 012.622 5.8z" fill="#7B7284"/><path d="M51.773 44.523a28.444 28.444 0 01-10.157 8.449 29.141 29.141 0 01-12.971 3.03V42.22l4.902-4.592 1.367-1.28h8.225a8.737 8.737 0 016.011 2.378 8.355 8.355 0 012.623 5.797z" fill="#635A6D"/><path d="M39.12 16.532c-.442-6.569-5.877-8.993-10.476-8.993-4.598 0-10.033 2.427-10.475 8.993-1.19.225-2.034 1.75-1.901 2.982l.203 2.806c.029.304.118.6.264.87.145.27.344.509.584.704a2.423 2.423 0 001.739.525l.221-.024c2.628 6.898 6.75 7.617 9.365 8.021 2.616-.404 6.737-1.123 9.365-8.02l.221.023a2.423 2.423 0 001.74-.525c.24-.195.438-.434.583-.704a2.28 2.28 0 00.264-.87l.203-2.806c.134-1.233-.71-2.757-1.9-2.982z" fill="#FFD4A6"/><path d="M41.023 19.514l-.204 2.806a2.295 2.295 0 01-.848 1.574 2.427 2.427 0 01-1.739.525l-.221-.024a14.617 14.617 0 01-3.096 5.138c-2.17 2.214-4.546 2.617-6.268 2.883V7.538c4.6 0 10.033 2.427 10.475 8.993 1.189.226 2.034 1.75 1.9 2.983z" fill="#FFBB7D"/><path d="M30.865 22.37a3.472 3.472 0 00-2.219-.797c-.813 0-1.599.283-2.218.797a8.49 8.49 0 01-5.089 1.944l-2.058.081.138.812a9.096 9.096 0 003.18 5.475 9.483 9.483 0 006.047 2.168c2.27-.123 4.43-.998 6.123-2.482a9.721 9.721 0 003.192-5.678l.05-.294-2.058-.082a8.49 8.49 0 01-5.088-1.944z" fill="#EFEBDC"/><path d="M38.009 24.395l-.05.294a9.72 9.72 0 01-3.191 5.679 10.124 10.124 0 01-6.123 2.481V21.572c.813 0 1.6.282 2.218.798a8.478 8.478 0 005.089 1.943l2.057.082z" fill="#D6CFBD"/><path d="M19.274 32.85l9.371 9.37-4.686 4.921-8.014-10.796 3.329-3.496z" fill="#9D97A5"/><path d="M38.016 32.85l-9.371 9.37 4.685 4.922 8.015-10.797-3.329-3.496z" fill="#7F7887"/><path d="M22.296 3.227s-6.06 5.775-4.805 11.469l.875 5.675h2.406l1.15-4.184a2.74 2.74 0 01.49-.98c.228-.292.513-.537.838-.72a2.892 2.892 0 012.17-.277c.146.04.291.085.436.135l.42.146a6.94 6.94 0 004.744-.099c.304-.116.616-.21.934-.281a2.921 2.921 0 012.11.332 2.801 2.801 0 011.285 1.67l1.17 4.258h2.406l.872-5.907c.187-5.066-3.98-11.237-17.501-11.237z" fill="#494949"/><path d="M39.796 14.463l-.871 5.907h-2.406l-1.173-4.258a2.801 2.801 0 00-1.284-1.67 2.914 2.914 0 00-2.11-.331c-.319.07-.631.165-.935.281-.757.29-1.56.448-2.372.468V3.77c8.516 1.615 11.304 6.528 11.151 10.693z" fill="#333"/></g><defs><clipPath id="clip0"><path fill="#fff" d="M0 0h57.29v56H0z"/></clipPath></defs></svg>