<svg xmlns="http://www.w3.org/2000/svg" width="72" height="72"><circle cx="36" cy="36" r="36" fill="#a3d4ff"/><path d="M71.963 36q0-1.5-.12-2.967L47.294 8.482l-11.043 7.4-7.4-7.4-.637 3.224 1.942 8.587 3.945 3.945-8.118 9.7 3.682 13.452 3.873 3.873-8.9 12.347 8.256 8.257q1.515.128 3.064.129A36 36 0 0071.963 36z" fill="#7097b9"/><path d="M28.592 11.706h14.74v4.219h-14.74z" fill="#7584f2"/><path d="M35.979 11.706h7.353v4.219h-7.353z" fill="#606aea"/><path d="M28.592 26.956h14.74v4.219h-14.74z" fill="#7584f2"/><path d="M35.979 26.956h7.353v4.219h-7.353z" fill="#606aea"/><path d="M28.592 56.075h14.74v4.219h-14.74z" fill="#7584f2"/><path d="M35.979 56.075h7.353v4.219h-7.353z" fill="#606aea"/><path d="M28.592 40.825h14.74v4.219h-14.74z" fill="#7584f2"/><path d="M35.979 40.825h7.353v4.219h-7.353z" fill="#606aea"/><path d="M26.743 33.935h18.439v4.219H26.743z" fill="#7584f2"/><path d="M35.979 33.935h9.2v4.219h-9.2z" fill="#606aea"/><path d="M47.293 63.607h-4.22c0-5.834-3.88-8.734-8.373-12.091-4.718-3.526-10.066-7.523-10.066-15.471S29.982 24.101 34.7 20.574c4.493-3.358 8.373-6.258 8.373-12.092h4.22c0 7.948-5.348 11.944-10.066 15.471-4.493 3.358-8.373 6.258-8.373 12.091s3.88 8.734 8.373 12.092c4.717 3.53 10.066 7.523 10.066 15.471z" fill="#ff9500"/><path d="M28.852 36.045c0 5.279 3.177 8.155 7.11 11.143V24.902c-3.933 2.987-7.11 5.864-7.11 11.143z" fill="none"/><path d="M37.225 23.953c4.718-3.526 10.066-7.523 10.066-15.471h-4.219c0 5.279-3.177 8.155-7.11 11.143v5.277q.62-.471 1.263-.949zm0 24.183q-.641-.479-1.263-.949v5.277c3.933 2.987 7.11 5.864 7.11 11.143h4.219c0-7.948-5.348-11.945-10.066-15.471z" fill="#fe6a16"/><path d="M28.853 63.607h-4.219c0-7.947 5.348-11.944 10.066-15.471 4.493-3.358 8.373-6.258 8.373-12.092s-3.88-8.734-8.373-12.091c-4.718-3.526-10.066-7.523-10.066-15.471h4.219c0 5.834 3.88 8.734 8.373 12.092 4.718 3.526 10.068 7.523 10.068 15.47s-5.348 11.944-10.066 15.471c-4.495 3.358-8.375 6.258-8.375 12.092z" fill="#fe6a16"/><path d="M43.072 36.045c0-5.279-3.177-8.155-7.11-11.143v22.285c3.933-2.987 7.11-5.862 7.11-11.142z" fill="none"/><path d="M37.225 20.573q-.641-.479-1.263-.949v5.277c3.933 2.987 7.11 5.864 7.11 11.143s-3.177 8.155-7.11 11.143v5.277q.62-.471 1.263-.949c4.718-3.526 10.066-7.523 10.066-15.471S41.943 24.1 37.225 20.573z" fill="#f24500"/></svg>