<svg xmlns="http://www.w3.org/2000/svg" width="72" height="72"><ellipse cx="35.98" cy="36" rx="35.98" ry="36" fill="#b9e4eb"/><path d="M72 35.571q0-1.558-.129-3.084L50.847 11.463l-28.448 11.7 10.093 10.093-14.144 4.121 6.179 6.179-8.694 10.6 17.79 17.79q.967.051 1.947.051A36.429 36.429 0 0072 35.571z" fill="#79c4d8"/><path d="M51.276 25.69H27.512a6.79 6.79 0 010-13.579h23.764v4l-.737 2.727.737 2.86z" fill="#ffce00"/><path d="M51.276 12.111h-15.3V25.69h15.3v-4l-.737-2.86.737-2.727z" fill="#fdba12"/><path d="M51.273 21.694H27.344a2.771 2.771 0 01-2.771-2.771v-.045a2.771 2.771 0 012.771-2.771h23.929v5.587z" fill="#fff"/><path d="M35.977 16.107h15.3v5.587h-15.3z" fill="#e9edf5"/><path d="M56.19 39.018H22.596a6.79 6.79 0 010-13.579h33.592v4l-.737 2.727.737 2.86z" fill="#7584f2"/><path d="M56.191 25.439H35.978v13.579h20.213v-4l-.737-2.86.737-2.727z" fill="#606aea"/><path d="M56.192 35.022h-33.76a2.771 2.771 0 01-2.771-2.771v-.045a2.771 2.771 0 012.771-2.771h33.76v5.587z" fill="#fff"/><path d="M35.978 29.435h20.213v5.587H35.978z" fill="#e9edf5"/><path d="M58.416 57.072H22.742a9.159 9.159 0 010-18.317h35.674v5.39l-.994 3.678.994 3.858z" fill="#fe6a16"/><path d="M58.416 38.756H35.978v18.315h22.438v-5.39l-.994-3.858.994-3.678z" fill="#f24500"/><path d="M58.416 51.682h-35.9a3.738 3.738 0 01-3.738-3.738v-.06a3.738 3.738 0 013.738-3.738h35.9z" fill="#fff"/><path d="M35.978 44.147h22.438v7.535H35.978z" fill="#e9edf5"/></svg>