<svg xmlns="http://www.w3.org/2000/svg" width="72" height="72"><circle cx="36" cy="36" r="36" transform="rotate(-90 36 36)" fill="#00ddc1"/><path d="M44.008 19.129v21.916l-17.6-17.6-6.2 3.14-2.761 27.964L34.881 71.98q.563.018 1.125.02a36 36 0 0035.982-34.871L48.445 13.585z" fill="#00baa0"/><path d="M24.377 25.016h-8.329v26.407a4.165 4.165 0 108.329 0z" fill="#eef4ff"/><path d="M24.377 25.016h-8.329v26.407a4.165 4.165 0 108.329 0z" fill="#eef4ff"/><path d="M20.212 55.588a4.164 4.164 0 004.164-4.164V25.016h-4.164z" fill="#d6e9f8"/><path d="M20.212 53.478a2.058 2.058 0 01-2.055-2.055V24.782h4.11v26.64a2.055 2.055 0 01-2.055 2.056z" fill="#d6e9f8"/><path d="M20.212 53.478a2.058 2.058 0 01-2.055-2.055V24.782h4.11v26.64a2.055 2.055 0 01-2.055 2.056z" fill="#b2d7f3"/><path d="M20.212 24.782v28.69a2.055 2.055 0 002.055-2.055V24.782z" fill="#8bbbff"/><path d="M14.014 23.446h12.4v3.14h-12.4z" fill="#eef4ff"/><path d="M20.212 23.446h6.2v3.14h-6.2z" fill="#d6e9f8"/><path d="M20.212 53.478a2.058 2.058 0 01-2.055-2.055V35.371h4.11v16.05a2.055 2.055 0 01-2.055 2.057z" fill="#ff6379"/><path d="M20.212 35.371v18.107a2.055 2.055 0 002.055-2.055V35.371z" fill="#ff415b"/><path d="M47.607 29.711V15.154H36.89v14.557L26.497 55.589h31.5z" fill="#eef4ff"/><path d="M29.618 53.478l9.383-23.358V15.154h6.493v14.965l9.383 23.358z" fill="#b2d7f3"/><path d="M47.604 29.711V15.154h-5.357v40.433h15.751z" fill="#d6e9f8"/><path d="M54.878 53.478L45.495 30.12V15.154h-3.248v38.324z" fill="#8bbbff"/><path d="M36.049 13.585h12.4v3.145h-12.4z" fill="#eef4ff"/><path d="M42.247 13.585h6.2v3.145h-6.2z" fill="#d6e9f8"/><path d="M29.618 53.478l6.388-15.9 12.477-.015 6.395 15.917z" fill="#a160e4"/><path d="M54.878 53.478l-6.395-15.917-6.236.015v15.9z" fill="#7a3eb4"/><circle cx="1.444" cy="1.444" r="1.444" transform="translate(37.318 41.192)" fill="#7a3eb4"/><circle cx="2.201" cy="2.201" r="2.201" transform="translate(44.161 45.086)" fill="#613393"/></svg>