<svg xmlns="http://www.w3.org/2000/svg" width="72" height="72"><path d="M36 0A36 36 0 110 36 36 36 0 0136 0z" fill="#9ed8a0"/><path d="M71.44 42.503L54 25.063l-6.665 4.93-13.222-13.222L17.587 46.5l24.937 24.937A36.046 36.046 0 0071.44 42.503z" fill="#63b76d"/><path d="M30.566 24.351h21.495a3 3 0 013 3v24.9a3 3 0 01-3 3h-14.15z" fill="#e6e6e6"/><path d="M44.17 47.674l-6.255 7.576-2.849-8.754z" fill="#4254b7"/><path d="M49.518 34.935h3.15v-1.606h-7.094v-2.013h-2.417v2.016h-3.9v1.606h8.408c-.249.922-1.034 3.387-2.6 4.618a13.182 13.182 0 01-1.91-2.678h-1.7a12.5 12.5 0 002.439 4.015l-1.949 2.027.9 1.637a18.78 18.78 0 002.261-2.417s3.547 3.7 4.522 4.522l1.053-1.286s-3.524-3.249-4.327-4.756c-.001-.004 2.807-2.739 3.164-5.685z" fill="#627d88"/><path d="M44.17 47.673H19.964a3 3 0 01-3-3v-24.9a3 3 0 013-3h14.15z" fill="#4f8ff5"/><path d="M27.803 31.391V33.5h3.3a3.711 3.711 0 11-1.057-3.841l1.547-1.657a6 6 0 101.849 3.388h-5.637z" fill="#eee"/></svg>