<svg xmlns="http://www.w3.org/2000/svg" width="72" height="72"><path d="M72 36A36 36 0 1136 0a36 36 0 0136 36zm0 0" fill="#e18bb9"/><path d="M71.956 37.756l-20.57-20.567a19.193 19.193 0 00-3.029-2.637l-8.842-8.9h-2.639a24.526 24.526 0 00-16.862 42.347l11.172 11.186h-3v5.268l7.543 7.543h.27a36 36 0 0035.957-34.24zm0 0" fill="#d03788"/><path d="M35.315 7.561h4.2v51.873h-4.2zm0 0" fill="#fff"/><path d="M37.417 7.562h2.1v51.874h-2.1zm0 0" fill="#fff5cb"/><path d="M56.506 30.194a19.09 19.09 0 11-19.09-19.09 19.09 19.09 0 0119.09 19.09zm0 0" fill="#00e8f2"/><path d="M56.506 30.194a19.081 19.081 0 01-19.089 19.09v-38.18a19.081 19.081 0 0119.089 19.09zm0 0" fill="#00b7be"/><path d="M49.584 38.784h-6.441a1.962 1.962 0 01-1.957-1.957v-.038a1.962 1.962 0 011.957-1.957h6.441a1.962 1.962 0 011.957 1.957v.038a1.962 1.962 0 01-1.957 1.957zm.903-22.503h-6.076a2.14 2.14 0 00-2.134 2.134v.272a2.118 2.118 0 00.392 1.226h-1.8a2.141 2.141 0 00-2.135 2.135v.272a2.141 2.141 0 002.135 2.135h7.405a2.108 2.108 0 00-.185.862v.273a2.14 2.14 0 002.134 2.134h6.124a19.039 19.039 0 00-5.86-11.443zm0 0" fill="#ffd400"/><g fill="#ffec97"><path d="M36.917 40.396v-.273a2.14 2.14 0 00-2.134-2.134h-7.406a2.109 2.109 0 00.185-.863v-.272a2.116 2.116 0 00-.392-1.226h1.8a2.141 2.141 0 002.134-2.135v-.272a2.14 2.14 0 00-2.134-2.134H18.348a19.006 19.006 0 004.5 11.444h11.933a2.14 2.14 0 002.136-2.135zM27.52 21.64a2.68 2.68 0 100-5.359h-3.17a19.156 19.156 0 00-3.962 5.283 2.665 2.665 0 00.621.076zm0 0"/><path d="M39.519 54.733h-2.64a24.54 24.54 0 010-49.079h2.64v2.725h-2.64a21.814 21.814 0 100 43.628h2.64zm0 0"/></g><path d="M37.417 5.655h2.1v2.724h-2.1zm0 46.352h2.1v2.726h-2.1zm0 0" fill="#ffd400"/><path d="M28.187 59.185h18.462v5.268H28.187zm0 0" fill="#ff9a00"/><path d="M37.417 59.185h9.23v5.267h-9.23zm0 0" fill="#c06100"/></svg>