<svg xmlns="http://www.w3.org/2000/svg" width="40" height="40"><circle cx="20" cy="20" r="20" fill="#303f9e"/><path d="M40 20a20.082 20.082 0 00-.416-4.075l-9.063-9.063L9.479 33.138l6.446 6.446A20.016 20.016 0 0040 20z" fill="#1a237e"/><path fill="#fff" d="M9.479 6.862H30.52v26.276H9.479z"/><g fill="#e0e0e0"><path d="M19.996 6.862H30.52v26.276H19.996z"/><path d="M12.474 26.745h12.084v1.562H12.474z"/></g><path fill="silver" d="M19.996 26.745h4.561v1.562h-4.561z"/><path fill="#e0e0e0" d="M12.474 29.506h7.344v1.562h-7.344z"/><g fill="#546e7a"><path d="M11 9h2v16h-2z"/><path d="M10.312 22.07h18.672v1.562H10.312z"/></g><path fill="#455a64" d="M19.996 22.071h8.988v1.562h-8.988z"/><path fill="#fec007" d="M15.312 10.99h3.203v10.338h-3.203z"/><path fill="#be360c" d="M25 13h3v9h-3z"/><path fill="#fe5722" d="M19.974 15h3.203v6.328h-3.203z"/></svg>