<svg xmlns="http://www.w3.org/2000/svg" width="72.019" height="72.018"><circle cx="36" cy="36" r="36" fill="#e54b2c"/><path d="M72.019 36.009a35.891 35.891 0 00-2.885-14.146l-7.6-7.577-3.255-.927-1.994-2.047-45.252 7.1 12.122 12.146-2.547 20.924-9.94 6.468 10.8 11.01a36.022 36.022 0 0050.549-32.95z" fill="#c12d1a"/><path d="M18.288 18.287h35.444v35.445H18.288z" fill="#fde997"/><path d="M36.01 18.287h17.722v35.444H36.01z" fill="#fddb45"/><path d="M59.013 19.102H13.007a3.039 3.039 0 110-6.076h46.006a3.039 3.039 0 110 6.076z" fill="#fcb42d"/><path d="M62.119 16.067a2.994 2.994 0 01-.91 2.148 3.128 3.128 0 01-2.2.89H36.01V13.03h23a3.073 3.073 0 013.109 3.037z" fill="#f59b20"/><path d="M53.773 21.999H18.247a3.258 3.258 0 01-3.258-3.258v-5.348a3.258 3.258 0 013.258-3.258h35.526a3.258 3.258 0 013.258 3.258v5.347a3.258 3.258 0 01-3.258 3.259z" fill="#fff5cc"/><path d="M57.032 13.394v5.346a3.115 3.115 0 01-.021.364 3.258 3.258 0 01-3.238 2.895H36.01V10.135h17.763a3.258 3.258 0 013.237 2.895 3.116 3.116 0 01.022.364z" fill="#fde997"/><path d="M59.013 58.99H13.007a3.039 3.039 0 110-6.076h46.006a3.039 3.039 0 110 6.076z" fill="#fcb42d"/><path d="M62.119 55.952a2.989 2.989 0 01-.91 2.146 3.128 3.128 0 01-2.2.89H36.01v-6.074h23a3.073 3.073 0 013.109 3.038z" fill="#f59b20"/><path d="M53.773 61.884H18.247a3.258 3.258 0 01-3.258-3.258v-5.347a3.258 3.258 0 013.258-3.258h35.526a3.258 3.258 0 013.258 3.258v5.347a3.258 3.258 0 01-3.258 3.258z" fill="#fff5cc"/><path d="M57.032 53.278v5.346a3.115 3.115 0 01-.021.364 3.258 3.258 0 01-3.238 2.895H36.01V50.019h17.763a3.258 3.258 0 013.237 2.895 3.116 3.116 0 01.022.364z" fill="#fde997"/><path d="M23.568 28.955h5.684v4.22h-5.684zm10.426 0h14.453v4.22H33.994z" fill="#fcb42d"/><path d="M36.01 28.955h12.441v4.22H36.01zm6.758 9.889h5.684v4.22h-5.684z" fill="#f59b20"/><path d="M23.568 38.844h14.455v4.22H23.568z" fill="#fcb42d"/><path d="M36.01 38.844h2.011v4.22H36.01z" fill="#f59b20"/></svg>