<svg xmlns="http://www.w3.org/2000/svg" width="71.737" height="72"><ellipse cx="35.766" cy="36" rx="35.766" ry="36" fill="#e9336d"/><path d="M71.737 35.938a36.048 36.048 0 00-.911-8.073L59.489 16.55a1.421 1.421 0 00-1.069-.487H13.177a1.431 1.431 0 00-1.427 1.427v29.747a1.431 1.431 0 00.753 1.257H7.964v3.658l18.5 18.5a35.96 35.96 0 0045.273-34.714z" fill="#b9277e"/><path d="M58.42 48.666H13.176a1.431 1.431 0 01-1.427-1.427V17.491a1.431 1.431 0 011.427-1.427h45.243a1.431 1.431 0 011.427 1.427v29.747a1.431 1.431 0 01-1.426 1.428z" fill="#00d4d1"/><path d="M59.847 17.492v29.742a1.43 1.43 0 01-1.428 1.428H35.798v-32.6H58.42a1.433 1.433 0 011.427 1.43z" fill="#009ca0"/><path fill="#fff" d="M13.991 18.222h43.615V46.02H13.991z"/><path fill="#fff4aa" d="M35.798 18.222h21.807v27.799H35.798z"/><path fill="#fee572" d="M7.964 48.496h55.67v3.657H7.964z"/><path fill="#ffc100" d="M35.798 48.496h27.834v3.657H35.798z"/><path d="M26.472 48.495l1.244 1.829h16.167l1.244-1.829z" fill="#ffa700"/><path d="M45.125 48.496l-.115.17-1.129 1.658h-8.083v-1.828z" fill="#ff6900"/><path fill="#ffa700" d="M20.437 24.099h12.531v16.045H20.437z"/><path fill="#006ef5" d="M37.433 26.916h13.46v1.853h-13.46zm0 4.279h13.46v1.853h-13.46zm0 4.279h13.46v1.853h-13.46z"/><path fill="#006ef5" d="M37.433 26.916h13.46v1.853h-13.46zm0 4.279h13.46v1.853h-13.46zm0 4.279h13.46v1.853h-13.46z"/></svg>