<svg xmlns="http://www.w3.org/2000/svg" width="72" height="72"><path d="M72 36A36 36 0 1136 0a36 36 0 0136 36zm0 0" fill="#ff9a00"/><path d="M72 36c0-.832-.031-1.656-.086-2.473l-16.883-16.87a25.523 25.523 0 00-37.729 34.378l-2.76 7.428 12.382 12.382A36.027 36.027 0 0072 36zm0 0" fill="#e67500"/><path d="M36.351 8.524a25.523 25.523 0 00-19.049 42.512l-2.76 7.427L24.73 56.78A25.527 25.527 0 1036.351 8.524zm0 0" fill="#fff"/><path d="M61.875 34.048a25.525 25.525 0 01-25.52 25.525V8.524a25.525 25.525 0 0125.52 25.524zm0 0" fill="#fff5cb"/><path d="M27.392 23.305L21.31 37.196l-3.707-6.306-2.879 1.567 6.959 11.383 7.883-17.258h24.793v-3.277zm0 0" fill="#ff328e"/><path d="M36.355 23.305h18v3.277h-18zm0 0" fill="#c50a5b"/><path d="M30.852 42.481a3.232 3.232 0 01-1.155-.2 2.783 2.783 0 01-.927-.569 2.65 2.65 0 01-.61-.854 2.584 2.584 0 01-.22-1.074 2.362 2.362 0 01.269-1.114 2.546 2.546 0 01.748-.871 3.712 3.712 0 011.147-.561 5 5 0 011.464-.2 6.286 6.286 0 011.115.1 4.53 4.53 0 01.968.276v-.488a1.709 1.709 0 00-.48-1.3 2 2 0 00-1.423-.455 3.769 3.769 0 00-1.334.244 6.224 6.224 0 00-1.334.716l-.667-1.383a6.293 6.293 0 013.547-1.09 4.154 4.154 0 012.855.9 3.307 3.307 0 011.017 2.611v2.652a.767.767 0 00.122.488.533.533 0 00.4.163v1.854a4.87 4.87 0 01-.96.114 1.452 1.452 0 01-.951-.277 1.184 1.184 0 01-.415-.732l-.049-.472a3.784 3.784 0 01-1.383 1.139 3.98 3.98 0 01-1.744.383zm.619-1.594a2.85 2.85 0 001.049-.2 1.907 1.907 0 00.773-.521.783.783 0 00.358-.619v-.973a5.4 5.4 0 00-.846-.236 4.583 4.583 0 00-.878-.09 2.331 2.331 0 00-1.383.382 1.148 1.148 0 00-.537.968 1.164 1.164 0 00.423.92 1.536 1.536 0 001.04.369zm0 0" fill="#9331b2"/><path d="M43.362 35.666v1.757h-1.675v1.839h-1.968v-1.839h-1.675v-1.757h1.675v-1.839h1.969v1.839zm7.012 6.816a3.43 3.43 0 01-1.741-.439 3.2 3.2 0 01-1.2-1.2v1.48h-1.9v-11.88h2.18v4.848a3.294 3.294 0 011.2-1.212 3.389 3.389 0 011.733-.431 3.214 3.214 0 011.513.358 3.815 3.815 0 011.179.96 4.344 4.344 0 01.765 1.416 5.413 5.413 0 01.269 1.708 4.844 4.844 0 01-.3 1.724 4.335 4.335 0 01-.838 1.391 3.942 3.942 0 01-1.269.935 3.685 3.685 0 01-1.591.342zm-.6-1.854a2.255 2.255 0 00.96-.2 2.3 2.3 0 00.748-.545 2.467 2.467 0 00.48-.8 2.757 2.757 0 00.171-.976 3.03 3.03 0 00-.163-.992 2.6 2.6 0 00-.464-.83 2.317 2.317 0 00-.708-.569 1.914 1.914 0 00-.895-.211 2 2 0 00-1.31.48 3.187 3.187 0 00-.887 1.18v2.034a1.848 1.848 0 00.333.586 2.408 2.408 0 00.5.447 2.366 2.366 0 00.6.293 2.038 2.038 0 00.632.103zm0 0" fill="#5c1b6f"/></svg>