<svg xmlns="http://www.w3.org/2000/svg" width="72.02" height="72.02"><path d="M72.02 36.01A36.01 36.01 0 1136.01 0a36.009 36.009 0 0136.01 36.01zm0 0" fill="#9331b2"/><path d="M72.019 35.981c0-1.08-.05-2.148-.144-3.2L60.541 21.414a6.643 6.643 0 00-4.469-2.47 3.612 3.612 0 00-.173-.215 3.651 3.651 0 00-7.027.461c-.216.04-.434.084-.652.128l-6.525-8.012c-1.679-2.546-3.638-3.9-5.728-3.9-3.176 0-6.051 3.129-8.1 8.811a40.192 40.192 0 00-1.155 3.825 41.763 41.763 0 00-3.9-.9c-5.95-1.045-10.095-.1-11.671 2.654s-.286 6.8 3.634 11.4a40.381 40.381 0 002.626 2.783 40.154 40.154 0 00-2.626 2.783c-3.92 4.6-5.21 8.644-3.634 11.4a4.9 4.9 0 001.2 1.392l20.35 20.316c1.079.1 2.171.15 3.276.15a36.045 36.045 0 0036.052-36.039zm0 0" fill="#5c1b6f"/><path d="M41.227 36.01a5.215 5.215 0 11-5.215-5.215 5.215 5.215 0 015.215 5.215zm0 0" fill="#ff9a00"/><path d="M54.6 36.01a40.258 40.258 0 002.63-2.785c3.926-4.6 5.218-8.653 3.64-11.411s-5.731-3.7-11.691-2.657c-1.251.22-2.556.521-3.9.9a40.477 40.477 0 00-1.157-3.829c-2.049-5.688-4.93-8.82-8.111-8.82s-6.062 3.132-8.111 8.82a40.477 40.477 0 00-1.157 3.829 41.957 41.957 0 00-3.9-.9c-5.96-1.046-10.112-.1-11.691 2.657s-.287 6.811 3.64 11.411c.79.926 1.671 1.857 2.63 2.785a40.258 40.258 0 00-2.63 2.785c-3.926 4.6-5.219 8.653-3.64 11.411 1.159 2.026 3.7 3.073 7.334 3.073a25.413 25.413 0 004.357-.416 39.849 39.849 0 003.9-.9 40.477 40.477 0 001.157 3.829c2.049 5.688 4.93 8.82 8.111 8.82s6.062-3.132 8.111-8.82c.43-1.193.816-2.475 1.157-3.829 1.346.376 2.651.677 3.9.9a25.413 25.413 0 004.357.416c3.63 0 6.175-1.047 7.334-3.073 1.579-2.758.287-6.811-3.64-11.411a40.018 40.018 0 00-2.63-2.785zm-5.006-14.494a23.169 23.169 0 013.958-.38c2.665 0 4.535.642 5.236 1.866 1.01 1.764-.255 5-3.382 8.668-.769.9-1.63 1.808-2.571 2.714a63.614 63.614 0 00-6.006-4.644 63.717 63.717 0 00-1.022-7.348 38.508 38.508 0 013.788-.876zm-9.278 22.017a74.625 74.625 0 01-4.306 2.278 75.89 75.89 0 01-4.306-2.278q-2.184-1.247-4.209-2.59-.157-2.373-.16-4.934t.16-4.934q2.02-1.338 4.209-2.59a74.625 74.625 0 014.306-2.278 75.89 75.89 0 014.306 2.278q2.184 1.247 4.209 2.59.157 2.373.16 4.934c0 1.7-.056 3.352-.16 4.934q-2.02 1.338-4.209 2.59zm3.943.432a58.902 58.902 0 01-.755 4.949 59.437 59.437 0 01-4.714-1.82q1.359-.706 2.717-1.48 1.405-.804 2.751-1.648zM33.23 47.094c-1.6.7-3.179 1.3-4.714 1.82-.306-1.544-.56-3.2-.755-4.949q1.346.844 2.753 1.648 1.355.775 2.716 1.481zm-8.228-7.879a59.175 59.175 0 01-4.038-3.205 59.857 59.857 0 014.038-3.205q-.065 1.585-.066 3.205t.066 3.205zm2.759-11.161c.195-1.75.449-3.405.755-4.949a59.437 59.437 0 014.714 1.82q-1.359.706-2.717 1.48-1.405.804-2.752 1.649zm11.028-3.128c1.6-.7 3.179-1.3 4.714-1.82.306 1.544.56 3.2.755 4.949q-1.346-.844-2.752-1.648-1.356-.775-2.717-1.481zm8.228 7.879a59.175 59.175 0 014.038 3.205 59.857 59.857 0 01-4.038 3.205q.065-1.585.066-3.205t-.066-3.21zm-11.008-23c2.543 0 5.266 4.136 6.969 10.956a64 64 0 00-6.969 2.8 64.11 64.11 0 00-6.969-2.8C30.744 13.935 33.467 9.8 36.01 9.8zm-19.4 21.87c-3.128-3.664-4.392-6.9-3.383-8.668.7-1.224 2.57-1.866 5.236-1.866a23.163 23.163 0 013.958.38 38.507 38.507 0 013.788.876 63.835 63.835 0 00-1.022 7.348 63.693 63.693 0 00-6.007 4.644 40.632 40.632 0 01-2.565-2.719zM22.425 50.5c-4.748.833-8.185.277-9.194-1.486s.255-5 3.383-8.668c.769-.9 1.629-1.808 2.57-2.714a63.684 63.684 0 006.006 4.644 63.717 63.717 0 001.022 7.348 38.5 38.5 0 01-3.787.876zM36.01 62.216c-2.543 0-5.266-4.136-6.969-10.956a63.994 63.994 0 006.969-2.8 64.149 64.149 0 006.969 2.8c-1.703 6.824-4.426 10.96-6.969 10.96zm22.779-13.2c-1.009 1.763-4.445 2.319-9.194 1.486a38.505 38.505 0 01-3.788-.876 63.717 63.717 0 001.022-7.348 63.685 63.685 0 006.006-4.644c.941.905 1.8 1.813 2.571 2.714 3.127 3.665 4.392 6.906 3.382 8.67zm0 0" fill="#fff"/><path d="M54.668 36.009a38.676 38.676 0 002.6-2.786c3.888-4.6 5.167-8.653 3.6-11.41s-5.674-3.7-11.576-2.658c-1.239.22-2.531.522-3.864.9a41.448 41.448 0 00-1.145-3.83c-2.023-5.689-4.873-8.822-8.023-8.822v2.4c2.519 0 5.214 4.136 6.9 10.958a62.823 62.823 0 00-6.9 2.8v2.642a75.181 75.181 0 018.431 4.868q.157 2.374.159 4.934t-.159 4.934a73.999 73.999 0 01-4.168 2.59 73.31 73.31 0 01-4.263 2.278v2.655a62.829 62.829 0 006.9 2.8c-1.686 6.822-4.382 10.958-6.9 10.958v2.4c3.15 0 6-3.133 8.032-8.82a40.84 40.84 0 001.145-3.83 40.71 40.71 0 003.864.9 24.985 24.985 0 004.313.416c3.594 0 6.116-1.047 7.263-3.074 1.563-2.757.284-6.81-3.6-11.41a39.494 39.494 0 00-2.609-2.793zm-12.966-9.606q-1.343-.774-2.691-1.481a59.618 59.618 0 014.669-1.819c.3 1.543.554 3.2.747 4.948q-1.332-.841-2.725-1.648zm1.978 22.51a58.987 58.987 0 01-4.669-1.819q1.347-.708 2.691-1.481 1.393-.8 2.725-1.647a59.296 59.296 0 01-.747 4.947zm6.032-27.4a22.732 22.732 0 013.919-.38c2.639 0 4.491.643 5.184 1.866 1 1.764-.253 5-3.35 8.668-.761.9-1.613 1.809-2.545 2.714a63.076 63.076 0 00-5.948-4.645 64.109 64.109 0 00-1.012-7.348 37.477 37.477 0 013.752-.872zm-2.552 11.29a60.357 60.357 0 014 3.2 57.392 57.392 0 01-4 3.2q.065-1.585.065-3.2t-.065-3.2zm11.655 16.212c-1 1.763-4.4 2.319-9.1 1.486a37.481 37.481 0 01-3.751-.875 64.109 64.109 0 001.012-7.348 63.077 63.077 0 005.948-4.645c.932.9 1.784 1.812 2.545 2.714 3.091 3.667 4.346 6.906 3.346 8.67zm0 0" fill="#fff5cb"/><path d="M41.243 36.01a5.213 5.213 0 01-5.214 5.214V30.796a5.213 5.213 0 015.214 5.214zm0 0" fill="#e67500"/><path d="M23.731 52.069a3.623 3.623 0 11-3.623-3.623 3.623 3.623 0 013.623 3.623zm0 0" fill="#00e8f2"/><path d="M56.109 19.951a3.623 3.623 0 11-3.623-3.623 3.623 3.623 0 013.623 3.623zm0 0" fill="#fdc000"/></svg>