<svg xmlns="http://www.w3.org/2000/svg" width="72" height="72"><path d="M72 36A36 36 0 1136 0a36 36 0 0136 36zm0 0" fill="#3680a1"/><path d="M72 36.055a36.146 36.146 0 00-.615-6.641l-17.9-17.9-34.854 45.773 14.607 14.607q1.4.109 2.82.11A35.945 35.945 0 0072 36.055zm0 0" fill="#145e72"/><path d="M26.886 11.453l-8.318 8.319v37.454h34.854V11.453zm0 0" fill="#fff"/><path d="M35.984 11.453h17.46v45.773h-17.46zm0 0" fill="#e9edf5"/><path d="M23.048 21.473h25.9v2.216h-25.9zm0 0" fill="#dce1eb"/><path d="M35.979 21.473h12.986v2.216H35.979zm0 0" fill="#cdd2e1"/><path d="M25.418 27.076h7.422v2.215h-7.422zm0 0" fill="#dce1eb"/><path d="M41.546 27.076h7.422v2.215h-7.422zm0 0" fill="#cdd2e1"/><path d="M25.418 38.14h7.422v2.215h-7.422zm0 0" fill="#dce1eb"/><path d="M41.546 38.14h7.422v2.215h-7.422zm0 0" fill="#cdd2e1"/><path d="M25.418 49.716h7.422v2.215h-7.422zm0 0" fill="#dce1eb"/><path d="M41.546 49.716h7.422v2.215h-7.422zm0 0" fill="#cdd2e1"/><path d="M23.048 32.681h25.9v2.217h-25.9zm0 0" fill="#dce1eb"/><path d="M35.979 32.681h12.986v2.217H35.979zm0 0" fill="#cdd2e1"/><path d="M23.048 43.889h25.9v2.214h-25.9zm0 0" fill="#dce1eb"/><path d="M35.979 43.889h12.986v2.214H35.979zm-9.115-24.15v-8.314l-8.318 8.319zm0 0" fill="#cdd2e1"/><path d="M25.961 29.864l-3.8-3.8 1.818-1.818 1.983 1.983 5.786-5.786 1.818 1.818zm9.453 11.691l-3.8-3.8 1.818-1.818 1.983 1.983 5.786-5.786 1.818 1.818zm0 0" fill="#414952"/><path d="M41.204 32.132l-5.231 5.231v3.636l7.05-7.05zm0 0" fill="#333940"/><path d="M26.437 54.428l-3.8-3.8 1.818-1.818 1.983 1.983 5.786-5.786 1.818 1.818zm0 0" fill="#414952"/><path d="M61.499 21.825l5.592 5.592-25.022 25.022-5.592-5.592zm0 0" fill="#ffd400"/><path d="M39.246 49.616l25.022-25.023 2.827 2.827-25.022 25.022zm0 0" fill="#fdba12"/><path d="M42.019 52.461l-7.6 2.011 2.011-7.6zm0 0" fill="#f5e3a7"/><path d="M34.438 54.388l-.022.085 7.6-2.011-2.827-2.827zm0 0" fill="#f5d882"/><path d="M34.412 54.474l3.573-.945-2.628-2.627zm0 0" fill="#414952"/><path d="M34.412 54.474l3.573-.945-1.345-1.345zm0 0" fill="#23272b"/></svg>