<svg xmlns="http://www.w3.org/2000/svg" width="40.016" height="40"><circle cx="20" cy="20" r="20" fill="#ed2f54"/><path d="M40.016 19.904a19.968 19.968 0 00-1.225-6.908l-5.783-5.783-2.67.276-2.861-2.829-2.533 4.38-6.069-.665-3.7-3.715-8.186 28.62 4.929 4.929a20.016 20.016 0 0028.1-18.3z" fill="#a5003c"/><path d="M6.989 12.634h26.038v19.708H6.989z" fill="#f5f5f7"/><path d="M20.008 12.634h13.018v19.708H20.008z" fill="#e0e3ee"/><path d="M6.989 29.326h26.038v3.954H6.989z" fill="#e0e3ee"/><path d="M20.008 29.326h13.018v3.954H20.008z" fill="#c3cadd"/><path d="M7.007 7.215h26v6.455h-26z" fill="#fed940"/><path d="M20.008 7.216h13v6.455h-13z" fill="#fdbf2d"/><path d="M24.62 8.962V5.469a1.543 1.543 0 113.086 0v3.493a1.543 1.543 0 11-3.086 0z" fill="#ef7a06"/><path d="M12.31 8.962V5.469a1.543 1.543 0 113.086 0v3.493a1.543 1.543 0 11-3.086 0z" fill="#fd9827"/><path d="M18.328 25.348h-1.173v-6.664h-1.424v-1.172h2.6z" fill="#726565"/><path d="M24.941 25.319l-4.581-.014v-1.041l.161-.169a31.99 31.99 0 002.328-3.07 3.831 3.831 0 00.611-1.216l.024-.186a1.119 1.119 0 00-2.216-.184l-.113.575-1.15-.226.113-.575a2.291 2.291 0 014.54.443v.037l-.048.353a4.9 4.9 0 01-.8 1.65c-.812 1.16-1.4 1.94-1.8 2.44l2.929.009z" fill="#514747"/></svg>