<svg xmlns="http://www.w3.org/2000/svg" width="72" height="72"><path d="M72 36a35.835 35.835 0 01-6.934 21.243C58.517 66.189 47.936 62.8 36 62.8s-22.517 3.389-29.066-5.557A36 36 0 1172 36z" fill="#ef9b14"/><path d="M36 62.801c11.936 0 22.517 3.389 29.066-5.558A35.835 35.835 0 0072 36c0-.211 0-.421-.008-.631L46.924 10.305 22.076 30.948l5.089 5.122c.6 2.22 3.044 8.252 3.044 8.252L6.934 57.243c6.549 8.946 17.13 5.558 29.066 5.558z" fill="#db8200"/><path d="M24.222 42.233h23.554v6.141H24.222z" fill="#584b66"/><path d="M36 42.233h11.777v6.141H36z" fill="#4a3e56"/><path d="M28.121 36.631h15.758v16.712H28.121z" fill="#ffbb7d"/><path d="M36 36.631h7.879V53.34H36z" fill="#efa36a"/><path d="M18.923 46.728h34.154v16.073H18.923z" fill="#ffd4a6"/><path d="M36 46.728h17.077V62.8H36z" fill="#ffbb7d"/><path d="M65.066 57.238a36 36 0 01-58.132 0 10.856 10.856 0 0110.851-10.51h10.339l7.879 7.553 7.879-7.553h10.334a10.852 10.852 0 0110.85 10.51z" fill="#7b7284"/><path d="M65.066 57.238A35.949 35.949 0 0136 72V54.281l6.161-5.906 1.718-1.647h10.337a10.852 10.852 0 0110.85 10.51z" fill="#635a6d"/><path d="M49.165 21.255C48.609 12.811 41.779 9.691 36 9.691s-12.609 3.12-13.165 11.564c-1.495.289-2.556 2.249-2.389 3.834l.256 3.607a2.983 2.983 0 003.251 2.7l.278-.03c3.3 8.868 8.482 9.793 11.769 10.312 3.288-.519 8.467-1.444 11.769-10.312l.278.03a2.983 2.983 0 003.251-2.7l.256-3.607c.167-1.585-.895-3.545-2.389-3.834z" fill="#ffd4a6"/><path d="M51.554 25.089l-.256 3.607a2.983 2.983 0 01-3.251 2.7l-.278-.03a18.881 18.881 0 01-3.89 6.605 12.637 12.637 0 01-7.88 3.704V9.691c5.779 0 12.609 3.12 13.165 11.564 1.496.289 2.557 2.249 2.39 3.834z" fill="#ffbb7d"/><path d="M38.788 28.761a4.3 4.3 0 00-5.576 0 10.531 10.531 0 01-6.4 2.5l-2.586.1.173 1.043a11.755 11.755 0 0011.6 9.827A12.573 12.573 0 0047.706 31.74l.063-.378-2.586-.1a10.531 10.531 0 01-6.395-2.501z" fill="#efebdc"/><path d="M47.769 31.364l-.062.378A12.571 12.571 0 0136 42.233v-14.5a4.294 4.294 0 012.789 1.025 10.517 10.517 0 006.394 2.5z" fill="#d6cfbd"/><path d="M24.222 42.233L36 54.28l-5.889 6.328-10.072-13.88z" fill="#9d97a5"/><path d="M47.778 42.233L36 54.28l5.889 6.328 10.072-13.881z" fill="#7f7887"/><path d="M28.019 4.148s-7.614 7.422-6.04 14.746l1.1 7.3h3.023l1.445-5.381a3.579 3.579 0 014.4-2.541q.275.077.548.174l.529.188a8.538 8.538 0 005.955-.13 8.413 8.413 0 011.175-.361 3.592 3.592 0 014.266 2.574l1.471 5.475h3.023l1.1-7.6c.236-6.51-4.999-14.444-21.995-14.444z" fill="#494949"/><path d="M50.015 18.595l-1.1 7.6H45.9l-1.471-5.475a3.592 3.592 0 00-4.267-2.573 8.246 8.246 0 00-1.174.361 8.775 8.775 0 01-2.984.6V4.847c10.7 2.076 14.207 8.392 14.015 13.747z" fill="#333"/></svg>