<svg xmlns="http://www.w3.org/2000/svg" width="72" height="72"><path d="M35.933 0A36 36 0 110 35.9 36.118 36.118 0 0135.933 0z" fill="#9454f5"/><path d="M72 36.568c0-1.027-.046-2.042-.132-3.047L55.123 16.776 45.845 30.76l-4.639-4.706-9.278 13.984-4.639-4.706-9.278 21.029 15.508 15.508c1 .086 2.02.132 3.047.132A35.432 35.432 0 0072 36.568z" fill="#7024c6"/><path d="M54.853 15.837v37.969l-2.741 1.323H45.4V15.837z" fill="#fdbf00"/><path fill="#7d0" d="M31.251 25.266h9.453v29.839h-9.453z"/><path d="M26.556 34.705v20.387H18.45l-1.347-1.323V34.705z" fill="#ff3636"/><path d="M54.85 15.837v37.969l-2.741 1.323h-1.985V15.837z" fill="#ff9f00"/><path fill="#6b0" d="M35.973 25.266h4.726v29.839h-4.726z"/><path fill="#f40000" d="M21.822 34.704h4.726V55.09h-4.726z"/><path fill="#5a5a5a" d="M17.14 53.747h37.676v2.363H17.14z"/><path fill="#444" d="M35.954 53.747h18.905v2.363H35.954z"/></svg>