<svg xmlns="http://www.w3.org/2000/svg" width="72" height="72"><path d="M36 0A36 36 0 110 36 36 36 0 0136 0z" fill="#17b221"/><path d="M32.697 53.041L49.08 69.424a35.971 35.971 0 0022.627-29.368l-29-29z" fill="#129018"/><path fill="#fcd088" d="M30.014 41.023h11.979v14.642H30.014z"/><path fill="#ddab62" d="M35.924 41.023h6.07v14.642h-6.07z"/><path d="M50.29 51.335l-6.348-1.27-1.122-1.638a.779.779 0 00-.949-.276l-5.867 6.668-5.832-6.665a.779.779 0 00-.948.266l-1.158 1.645-6.348 1.27a6.915 6.915 0 00-5.559 6.781v7.788a35.948 35.948 0 0039.69 0v-7.788a6.915 6.915 0 00-5.559-6.781z" fill="#ffad9e"/><path d="M50.29 51.335l-6.348-1.27-1.122-1.638a.779.779 0 00-.949-.276l-5.867 6.668-.081-.092v17.148h.081a35.767 35.767 0 0019.845-5.974v-7.788a6.915 6.915 0 00-5.559-6.778z" fill="#ff6262"/><path d="M48.853 28.841a16.361 16.361 0 00.1-1.756c0-7.577-5.8-13.72-12.948-13.72s-12.948 6.142-12.948 13.72a16.4 16.4 0 00.1 1.756c-1.256.327-1.853 2.258-1.335 4.326s1.967 3.5 3.231 3.181a1.466 1.466 0 00.327-.13c2.34 4.7 6.226 8.506 10.626 8.506s8.286-3.81 10.626-8.506a1.46 1.46 0 00.327.13c1.264.317 2.711-1.107 3.231-3.181s-.081-4.005-1.337-4.326z" fill="#ffedb5"/><path d="M48.853 28.841a16.357 16.357 0 00.1-1.756c0-7.577-5.8-13.72-12.948-13.72h-.081v31.357h.081c4.4 0 8.287-3.81 10.626-8.506a1.458 1.458 0 00.327.13c1.264.317 2.711-1.107 3.231-3.181s-.08-4.003-1.336-4.324z" fill="#e8cf89"/><g transform="translate(27.251 47.457)" fill="#fff"><circle cx=".605" cy=".605" r=".605" transform="translate(8.148 9.943)"/><circle cx=".605" cy=".605" r=".605" transform="translate(8.148 12.443)"/><path d="M8.749 7.378L3.097.211a.6.6 0 00-.916 0L-.003 2.779l4.713 7.54a1.025 1.025 0 001.717.033z"/></g><path d="M36.004 54.835l5.652-7.167a.6.6 0 01.916 0l2.184 2.568-4.713 7.54a1.025 1.025 0 01-1.717.033z" fill="#e0e0e0"/><path d="M41.575 28.135a3.692 3.692 0 00-3.572 2.786h-4a3.686 3.686 0 00-6.968-.537l-2.991-2.991a.605.605 0 10-.855.855l3.554 3.555v.022a3.687 3.687 0 007.362.306h3.8a3.688 3.688 0 103.673-4zm-11.142 6.168a2.479 2.479 0 112.479-2.479 2.482 2.482 0 01-2.479 2.479zm11.142 0a2.479 2.479 0 112.479-2.479 2.482 2.482 0 01-2.479 2.479z" fill="#444"/><path d="M41.574 28.135a3.692 3.692 0 00-3.572 2.786h-2.079v1.21h1.978a3.688 3.688 0 103.673-4zm0 6.168a2.479 2.479 0 112.479-2.479 2.482 2.482 0 01-2.479 2.479z" fill="#333"/><path d="M44.734 32.081a.6.6 0 01-.428-1.033l3.656-3.656a.605.605 0 01.855.855l-3.656 3.656a.6.6 0 01-.427.178z" fill="#444"/><path d="M49.315 20.288a18.37 18.37 0 00-6.97-6.866 2.623 2.623 0 00.517-1.524c0-2.228-3.124-4.034-6.978-4.034s-6.978 1.806-6.978 4.034a2.69 2.69 0 00.636 1.682c-.071.032-.141.06-.212.093-9.378 4.356-8.127 18.211-7.563 16.759s1.388-1.592 1.388-1.592a21.125 21.125 0 007.929-7.06s16.779 3.187 14.359 21.741c-.001 0 10.592-12.264 3.872-23.233z" fill="#494948"/><path d="M49.314 20.289a18.37 18.37 0 00-6.97-6.866 2.623 2.623 0 00.517-1.524c0-2.22-3.1-4.02-6.938-4.033v15.72c4.748 2.478 11.069 8.057 9.519 19.936 0 0 10.593-12.265 3.872-23.233z" fill="#333"/></svg>