<svg xmlns="http://www.w3.org/2000/svg" width="72" height="72"><circle cx="36" cy="36" r="36" fill="#ffa700"/><path d="M72.002 35.898a36.109 36.109 0 00-.583-6.474L60.184 18.187a3.565 3.565 0 00-2.555-1.081H14.578a3.587 3.587 0 00-3.576 3.576v30.436a3.569 3.569 0 001.2 2.667l17.47 17.433a35.925 35.925 0 0042.33-35.32z" fill="#ff6900"/><path d="M57.626 54.689H14.578a3.587 3.587 0 01-3.576-3.572V20.682a3.587 3.587 0 013.576-3.576h43.048a3.587 3.587 0 013.576 3.576v30.435a3.587 3.587 0 01-3.576 3.572z" fill="#006ef5"/><path d="M61.203 20.682v30.434a3.586 3.586 0 01-3.576 3.576H36.103V17.106h21.524a3.586 3.586 0 013.576 3.576z" fill="#0043a3"/><path d="M14.953 21.916h4.489v4.489h-4.489zm0 7.825h4.489v4.489h-4.489zm0 7.825h4.489v4.489h-4.489zm0 7.825h4.489v4.489h-4.489z" fill="#fff"/><path d="M52.765 21.916h4.489v4.489h-4.489zm0 7.825h4.489v4.489h-4.489zm0 7.825h4.489v4.489h-4.489zm0 7.825h4.489v4.489h-4.489z" fill="#fff4aa"/><path d="M29.442 27.06v17.667l15.144-8.834z" fill="#fff"/><path d="M44.587 35.898l-8.484 4.948v-9.9z" fill="#fff4aa"/></svg>