<svg width="56" height="56" fill="none" xmlns="http://www.w3.org/2000/svg"><rect width="55.999" height="55.999" rx="12" fill="#994AFF"/><path d="M40.398 47.266a22.926 22.926 0 01-24.806-.005l-2.667-2.01a22.908 22.908 0 1130.142.004l-2.67 2.01z" fill="#994AFF"/><path d="M44.97 56C52.605 56 56 50.06 56 46.242v-9.757l-20.83-22.62-20.596 17.003L15.273 56h29.696z" fill="#5E00D8"/><path d="M12.926 31.834v24.165h2.684V31.832a2.26 2.26 0 012.258-2.258h2.96v-2.683h-2.96a4.948 4.948 0 00-4.942 4.943z" fill="#DCE1EB"/><path d="M38.13 26.891h-2.958v2.685h2.959a2.26 2.26 0 012.258 2.258v24.165h2.684V31.834a4.949 4.949 0 00-4.943-4.943z" fill="#BEC3D2"/><path d="M37.853 34.336l-12.157.066-7.552-.066V20.625A9.852 9.852 0 0128 10.77a9.855 9.855 0 019.854 9.854v13.712z" fill="#00D65B"/><path d="M37.851 20.624a9.854 9.854 0 00-9.843-9.854v23.673h9.526l.318-.106V20.623z" fill="#06BF51"/><path d="M33.686 37.067a2.88 2.88 0 00.364-5.736 2.882 2.882 0 00-3.853-1.718 2.877 2.877 0 00-4.391 0 2.88 2.88 0 00-3.854 1.718 2.88 2.88 0 00.365 5.736h11.369z" fill="#09AF4C"/><path d="M34.046 31.331a2.882 2.882 0 00-3.853-1.718 2.872 2.872 0 00-2.185-1.015v8.47h5.674a2.88 2.88 0 00.365-5.737h-.001z" fill="#0A9154"/><path d="M18.145 34.336a8.684 8.684 0 004.487 7.606 5.096 5.096 0 005.038 4.339h.657a5.096 5.096 0 005.039-4.339 8.682 8.682 0 004.487-7.605H18.144z" fill="#fff"/><path d="M28.008 34.336v11.945h.317a5.096 5.096 0 005.04-4.338 8.684 8.684 0 004.486-7.605h-9.843v-.002z" fill="#E9EDF5"/><path d="M26.724 39.788c.542-1.12-.469-2.73-2.258-3.597-1.79-.867-3.68-.662-4.222.457-.543 1.12.468 2.73 2.258 3.597s3.68.662 4.222-.457z" fill="#414952"/><path d="M33.497 40.261c1.79-.867 2.8-2.477 2.258-3.596-.542-1.12-2.432-1.325-4.222-.458-1.79.867-2.8 2.477-2.258 3.597.542 1.12 2.433 1.324 4.222.457z" fill="#23272B"/><path d="M22.14 26.834a1.487 1.487 0 100-2.974 1.487 1.487 0 000 2.974z" fill="#2AF27A"/><path d="M32.196 15.988a1.137 1.137 0 100-2.274 1.137 1.137 0 000 2.274zm2.099 11.546a1.224 1.224 0 100-2.449 1.224 1.224 0 000 2.449z" fill="#02CC4A"/><path d="M24.632 18.087a.83.83 0 100-1.661.83.83 0 000 1.661zm3.193 5.686a1.4 1.4 0 100-2.799 1.4 1.4 0 000 2.799z" fill="#2AF27A"/><path d="M29.222 22.374a1.398 1.398 0 00-1.214-1.386v2.772a1.399 1.399 0 001.214-1.386z" fill="#02CC4A"/></svg>