<svg width="56" height="56" fill="none" xmlns="http://www.w3.org/2000/svg"><rect width="56" height="56" rx="12" fill="#41A497"/><path d="M28 47.937c11.046 0 20-8.94 20-19.969C48 16.94 39.046 8 28 8S8 16.94 8 27.968c0 11.029 8.954 19.969 20 19.969z" fill="#00C8C8"/><path d="M47.95 28c0-1.087-.088-2.172-.264-3.245l-9.825-9.812-19.884 26.114 6.69 6.681a20.078 20.078 0 0016.212-4.496 20.019 20.019 0 005.215-6.844A19.989 19.989 0 0047.95 28z" fill="#13AAAA"/><path d="M24.145 14.943l-6.168 6.159v19.955H37.86V14.943H24.145z" fill="#fff"/><path d="M27.918 14.943h9.942v26.114h-9.942V14.943zm-3.773 6.159v-6.159l-6.168 6.159h6.168z" fill="#E9EDF5"/><path d="M20.945 32.505h13.947v2.344H20.945v-2.344z" fill="#9196AA"/><path d="M27.918 32.505h6.974v2.344h-6.974v-2.344z" fill="#707789"/><path d="M23.383 35.888h9.075v2.343h-9.075v-2.343z" fill="#9196AA"/><path d="M27.918 35.888h4.538v2.343h-4.538v-2.343z" fill="#707789"/><path d="M29.8 30.692l-.376-1.09h-2.99l-.374 1.09h-2.216l2.853-7.57h2.455l2.864 7.57h-2.217zm-1.88-5.64l-.962 2.848h1.932l-.97-2.848z" fill="#7584F2"/><path d="M27.918 25.052l.97 2.848h-.97v1.702h1.504l.375 1.09h2.217l-2.865-7.57h-1.231v1.93zm8.078-5.04h-1.613v-1.61h-2.348v1.61h-1.613v2.344h1.613v1.611h2.348v-1.61h1.614v-2.345z" fill="#606AEA"/></svg>