<svg width="24" height="24" fill="none" xmlns="http://www.w3.org/2000/svg"><g clip-path="url(#clip0)" fill="#fff"><path d="M24 3.194c0-.843-.708-1.51-1.551-1.463-5.014.278-7.716 1.896-9.111 3.235a1.466 1.466 0 00-.447 1.053v15.517c0 .606.694.95 1.178.583 1.558-1.19 4.195-2.406 8.541-2.621.78-.04 1.39-.684 1.39-1.463V3.195zM1.388 19.498c4.346.215 6.983 1.43 8.541 2.622a.733.733 0 001.178-.584V6.019c0-.399-.161-.78-.447-1.053-1.395-1.34-4.097-2.957-9.11-3.236A1.464 1.464 0 000 3.194v14.843c0 .777.61 1.424 1.388 1.461z"/></g><defs><clipPath id="clip0"><path fill="#fff" d="M0 0h24v24H0z"/></clipPath></defs></svg>