<svg width="24" height="24" fill="none" xmlns="http://www.w3.org/2000/svg"><g clip-path="url(#clip0)"><path d="M1.904 3.402a6.454 6.454 0 014.8-2.09c1.386 0 2.655.438 3.772 1.302.563.436 1.074.97 1.524 1.592a7.71 7.71 0 011.525-1.592c1.117-.864 2.385-1.301 3.77-1.301 1.854 0 3.559.742 4.801 2.09C23.324 4.732 24 6.552 24 8.524c0 2.03-.756 3.888-2.38 5.848-1.453 1.752-3.541 3.532-5.959 5.592-.826.704-1.761 1.502-2.733 2.351a1.408 1.408 0 01-1.855 0c-.972-.85-1.909-1.647-2.735-2.351-2.417-2.06-4.505-3.84-5.958-5.593C.756 12.412 0 10.555 0 8.525c0-1.972.676-3.791 1.904-5.123z" fill="#fff"/></g><defs><clipPath id="clip0"><path fill="#fff" transform="matrix(-1 0 0 1 24 0)" d="M0 0h24v24H0z"/></clipPath></defs></svg>