<svg width="24" height="24" fill="none" xmlns="http://www.w3.org/2000/svg"><path d="M20.988 1.406h.05a.703.703 0 100-1.406H4.846A2.589 2.589 0 002.26 2.586v18.828A2.589 2.589 0 004.846 24h14.309a2.589 2.589 0 002.586-2.586V6.352a2.58 2.58 0 00-.753-1.823V1.406zm-4.355 12.05l-1.806 1.761.42 2.448a.703.703 0 01-.685.86h-.002a.703.703 0 01-.327-.08L12 17.27l-2.232 1.174a.703.703 0 01-1.02-.742l.426-2.486-1.807-1.76a.703.703 0 01.39-1.2l2.497-.363 1.116-2.262a.703.703 0 011.26 0l1.117 2.262 2.497.363a.703.703 0 01.39 1.2zm2.949-9.654a2.591 2.591 0 00-.427-.036H4.845a1.181 1.181 0 010-2.36h14.737v2.396z" fill="#fff"/></svg>