<svg width="24" height="24" fill="none" xmlns="http://www.w3.org/2000/svg"><path d="M23.4 21.6h-.6V8.4c0-.72-.48-1.2-1.2-1.2V6c0-.72-.48-1.2-1.2-1.2h-3L12 0 6 4.8H3.6c-.72 0-1.2.48-1.2 1.2v1.2c-.72 0-1.2.48-1.2 1.2v13.2H.6c-.36 0-.6.24-.6.6v1.2c0 .36.24.6.6.6h22.8c.36 0 .6-.24.6-.6v-1.2c0-.36-.24-.6-.6-.6zM11.64 2.4c.72 0 1.2.48 1.2 1.2s-.48 1.2-1.2 1.2c-.6 0-1.2-.48-1.2-1.2s.48-1.2 1.2-1.2zM7.2 19.2H3.6v-3.6h3.6v3.6zm0-6H3.6V9.6h3.6v3.6zm7.2 8.4H9.6V18c0-1.32 1.08-2.4 2.4-2.4 1.32 0 2.4 1.08 2.4 2.4v3.6zm0-8.4H9.6V9.6h4.8v3.6zm6 6h-3.6v-3.6h3.6v3.6zm0-6h-3.6V9.6h3.6v3.6z" fill="#fff"/></svg>