<svg width="24" height="24" fill="none" xmlns="http://www.w3.org/2000/svg"><path d="M20.535 12.812H18.68a4.81 4.81 0 01.293 1.66v7.014c0 .243-.042.476-.12.693h3.07A2.081 2.081 0 0024 20.101v-3.825a3.468 3.468 0 00-3.465-3.464zm-15.507 1.66c0-.583.103-1.142.293-1.66H3.465A3.468 3.468 0 000 16.277V20.1c0 1.146.932 2.079 2.079 2.079h3.068a2.069 2.069 0 01-.119-.693v-7.015zm9.093-3.465H9.878a3.468 3.468 0 00-3.464 3.465v7.014c0 .383.31.693.693.693h9.786c.383 0 .693-.31.693-.692v-7.015a3.468 3.468 0 00-3.464-3.465zM12 1.82a4.171 4.171 0 00-4.167 4.167A4.17 4.17 0 0012 10.154a4.17 4.17 0 004.166-4.167A4.171 4.171 0 0012 1.821zM4.683 5.704A3.12 3.12 0 001.567 8.82a3.12 3.12 0 004.344 2.864 3.136 3.136 0 001.522-1.4 3.09 3.09 0 00.366-1.464 3.12 3.12 0 00-3.116-3.116zm14.633 0A3.12 3.12 0 0016.2 8.82c0 .529.133 1.027.366 1.464a3.14 3.14 0 001.522 1.4 3.12 3.12 0 004.344-2.863 3.12 3.12 0 00-3.116-3.117z" fill="#fff"/></svg>