<svg xmlns="http://www.w3.org/2000/svg" xmlns:xlink="http://www.w3.org/1999/xlink" width="85.657" height="19.956" viewBox="0 0 85.657 19.956"><defs><clipPath id="a"><circle cx="6.266" cy="6.266" r="6.266" fill="none"/></clipPath></defs><g transform="translate(-58 -98)"><g transform="translate(58 98)"><g transform="translate(23.841 4.148)"><g style="isolation:isolate"><path d="M57.2,17.211V22.69h-2.44V17.607c0-1.371-.495-2.029-1.579-2.029-1.257,0-2.024.906-2.024,2.361V22.69H48.71V13.648h1.678l.495,1.119a3.875,3.875,0,0,1,2.97-1.336C55.916,13.43,57.2,14.92,57.2,17.211Z" transform="translate(-48.71 -11.287)" fill="#fff"/><path d="M78.544,18.175a5.822,5.822,0,0,1-.049.718H71.659a2.108,2.108,0,0,0,2.207,1.915,2.153,2.153,0,0,0,1.92-1.049h2.564a4.882,4.882,0,1,1,.193-1.589Zm-6.82-.96H76.1a2.222,2.222,0,0,0-2.237-1.7A2.118,2.118,0,0,0,71.723,17.214Z" transform="translate(-59.048 -11.325)" fill="#fff"/><path d="M103.092,13.87l-2.97,9.042h-1.98L96.1,18.235l-1.98,4.677H92.14L89.17,13.87h2.475l1.787,5.39,2.346-5.325h.688L98.9,19.28l1.777-5.4Z" transform="translate(-69.145 -11.509)" fill="#fff"/><path d="M124.468,18.325V20.5h-1.732a2.981,2.981,0,0,1-3.212-3.227V13.426H117.89V12.9l3.568-3.8h.445v2.361h2.475v1.98H121.9v3.529a1.257,1.257,0,0,0,1.391,1.376Z" transform="translate(-83.651 -9.1)" fill="#fff"/><path d="M133.18,18.015a4.885,4.885,0,1,1,4.885,4.885A4.885,4.885,0,0,1,133.18,18.015Zm7.3,0a2.41,2.41,0,1,0-4.816,0,2.41,2.41,0,1,0,4.816,0Z" transform="translate(-91.373 -11.135)" fill="#fff"/><path d="M164.948,17.211V22.69h-2.44V17.607c0-1.371-.52-2.029-1.579-2.029-1.257,0-2.029.906-2.029,2.361V22.69h-2.44V13.647h1.678l.495,1.119a3.875,3.875,0,0,1,2.994-1.336C163.656,13.429,164.948,14.919,164.948,17.211Z" transform="translate(-103.131 -11.286)" fill="#fff"/></g></g><circle cx="9.978" cy="9.978" r="9.978" transform="translate(0 0)" fill="#4d95b0"/><g transform="translate(3.712 3.712)" opacity="0.95"><g clip-path="url(#a)"><g transform="translate(-0.235 -0.115)"><g transform="translate(0 0)"><path d="M14.85,18.59l4.692,2.836,2.821,1.712L19.112,26.6s-.584.643-2.6-.109a12.148,12.148,0,0,1-3.959-.4c-.495-.559.238-2.658.173-3.405-.035-.356.292-.812.668-1.94A6.2,6.2,0,0,1,14.85,18.59Z" transform="translate(-9.997 -13.343)" fill="#d4edf1"/><path d="M9.8,9.365a7.429,7.429,0,0,1,4.152-1.376,6.07,6.07,0,0,1,3.93,1.079c.124.168,2.044,1.7,1.8,1.925l-5.469,3.316c-.495.426-4.633,2.311-3.232,5.5.99.836-.525.148-1.213-.421a6.842,6.842,0,0,1-1.935-3.474c-.436-2.386-.257-2.2-.064-3.158A4.569,4.569,0,0,1,9.8,9.365Z" transform="translate(-7.565 -7.988)" fill="#fff"/></g></g></g></g></g></g></svg>