<svg xmlns="http://www.w3.org/2000/svg" xmlns:xlink="http://www.w3.org/1999/xlink" width="19.956" height="19.955" viewBox="0 0 19.956 19.955"><defs><clipPath id="a"><circle cx="6.266" cy="6.266" r="6.266" fill="none"/></clipPath></defs><g transform="translate(-58 -98)"><g transform="translate(58 98)"><circle cx="9.978" cy="9.978" r="9.978" transform="translate(0 0)" fill="#4d95b0"/><g transform="translate(3.712 3.712)" opacity="0.95"><g clip-path="url(#a)"><g transform="translate(-0.235 -0.115)"><g transform="translate(0 0)"><path d="M14.85,18.59l4.692,2.836,2.821,1.712L19.112,26.6s-.584.643-2.6-.109a12.148,12.148,0,0,1-3.959-.4c-.495-.559.238-2.658.173-3.405-.035-.356.292-.812.668-1.94A6.2,6.2,0,0,1,14.85,18.59Z" transform="translate(-9.997 -13.343)" fill="#d4edf1"/><path d="M9.8,9.365a7.429,7.429,0,0,1,4.152-1.376,6.07,6.07,0,0,1,3.93,1.079c.124.168,2.044,1.7,1.8,1.925l-5.469,3.316c-.495.426-4.633,2.311-3.232,5.5.99.836-.525.148-1.213-.421a6.842,6.842,0,0,1-1.935-3.474c-.436-2.386-.257-2.2-.064-3.158A4.569,4.569,0,0,1,9.8,9.365Z" transform="translate(-7.565 -7.988)" fill="#fff"/></g></g></g></g></g></g></svg>