<svg xmlns="http://www.w3.org/2000/svg" width="19.956" height="19.955"><defs><clipPath id="a"><circle cx="6.266" cy="6.266" r="6.266" fill="none"/></clipPath></defs><circle cx="9.978" cy="9.978" r="9.978" fill="#4d95b0"/><g clip-path="url(#a)" transform="translate(3.712 3.712)" opacity=".95"><path d="M4.618 5.132L9.31 7.968l2.821 1.712-3.251 3.462s-.584.643-2.6-.109a12.148 12.148 0 01-3.959-.4c-.495-.559.238-2.658.173-3.405-.035-.356.292-.812.668-1.94a6.2 6.2 0 011.456-2.156z" fill="#d4edf1"/><path d="M2 1.262A7.429 7.429 0 016.152-.114a6.07 6.07 0 013.93 1.079c.124.168 2.044 1.7 1.8 1.925L6.413 6.206c-.495.426-4.633 2.311-3.232 5.5.99.836-.525.148-1.213-.421A6.842 6.842 0 01.033 7.811c-.436-2.386-.257-2.2-.064-3.158A4.569 4.569 0 012 1.262z" fill="#fff"/></g></svg>