<svg xmlns="http://www.w3.org/2000/svg" width="259.19" height="303.97" viewBox="0 0 259.19 303.97"><g transform="translate(-77.515 -402.602)"><path d="M941.495,385.037a6.2,6.2,0,0,1,7.6-4.6,9.121,9.121,0,0,1,10.967-4.845,11.235,11.235,0,0,1,20.181,1.963,7.707,7.707,0,0,1,11.454,6.735c0,.252-.013.5-.037.748Z" transform="translate(-749.031 66.396)" fill="#fff"/><path d="M1379.693,862.037a6.2,6.2,0,0,0-7.6-4.6,9.122,9.122,0,0,0-10.967-4.845,11.235,11.235,0,0,0-20.181,1.963,7.707,7.707,0,0,0-11.454,6.735c0,.252.013.5.037.748Z" transform="translate(-1071.307 -329.803)" fill="#fff"/><path d="M486.495,945.38a6.931,6.931,0,0,1,8.5-5.147,10.2,10.2,0,0,1,12.268-5.419,12.568,12.568,0,0,1,22.576,2.2,8.622,8.622,0,0,1,12.813,7.534c0,.282-.015.561-.041.837Z" transform="translate(-371.104 -397.561)" fill="#fff"/><path d="M1483.863,1178.78a4.073,4.073,0,0,1,4.993-3.025,6,6,0,0,1,7.208-3.184,7.384,7.384,0,0,1,13.264,1.29,5.066,5.066,0,0,1,7.528,4.427c0,.166-.009.33-.024.492Z" transform="translate(-1199.525 -597.127)" fill="#fff"/><path d="M550.569,476.694a4.1,4.1,0,0,1,5.029-3.046,6.038,6.038,0,0,1,7.261-3.207,7.438,7.438,0,0,1,13.361,1.3A5.1,5.1,0,0,1,583.8,476.2c0,.167-.009.332-.024.5Z" transform="translate(-424.324 -13.91)" fill="#fff"/><rect width="7.967" height="2.577" transform="translate(241.328 444.297) rotate(25.059)" fill="#feb546"/><rect width="7.967" height="2.577" transform="matrix(0.962, 0.273, -0.273, 0.962, 210.395, 427.742)" fill="#ff5b7e"/><rect width="7.967" height="2.577" transform="matrix(0.707, -0.707, 0.707, 0.707, 206.908, 409.32)" fill="#feb546"/><rect width="7.967" height="2.577" transform="matrix(0.707, -0.707, 0.707, 0.707, 135.471, 473.816)" fill="#02ccc0"/><rect width="7.967" height="2.577" transform="translate(139.543 498.914) rotate(18.12)" fill="#ff5b7e"/><rect width="7.967" height="2.577" transform="matrix(0.822, 0.57, -0.57, 0.822, 140.389, 420.963)" fill="#02ccc0"/><rect width="7.967" height="2.577" transform="translate(140.9 445.861)" fill="#ff5b7e"/><rect width="7.967" height="2.577" transform="translate(114.896 466.578) rotate(-18.518)" fill="#07085b"/><rect width="7.967" height="2.577" transform="translate(117.199 504.588) rotate(-16.311)" fill="#feb546"/><rect width="7.967" height="2.577" transform="matrix(0.673, 0.74, -0.74, 0.673, 170.096, 402.602)" fill="#ff5b7e"/><rect width="7.967" height="2.577" transform="matrix(0.809, -0.587, 0.587, 0.809, 177.398, 429.934)" fill="#02ccc0"/><rect width="7.967" height="2.577" transform="matrix(0.98, -0.2, 0.2, 0.98, 236.51, 419.82)" fill="#02ccc0"/><rect width="7.967" height="2.577" transform="matrix(0.98, -0.2, 0.2, 0.98, 299.523, 511.631)" fill="#02ccc0"/><rect width="7.967" height="2.577" transform="matrix(0.98, -0.2, 0.2, 0.98, 277.164, 483.854)" fill="#ff5b7e"/><rect width="7.967" height="2.577" transform="translate(234.686 474.242) rotate(25.059)" fill="#ff5b7e"/><rect width="7.967" height="2.577" transform="translate(260.105 480.857) rotate(-40.018)" fill="#feb546"/><rect width="7.967" height="2.577" transform="matrix(0.766, -0.643, 0.643, 0.766, 276.027, 563.014)" fill="#feb546"/><rect width="7.967" height="2.577" transform="translate(263.396 459.426) rotate(-40.018)" fill="#07085b"/><rect width="7.967" height="2.577" transform="translate(238.006 498.555) rotate(-110.901)" fill="#07085b"/><rect width="7.967" height="2.577" transform="matrix(0.11, -0.994, 0.994, 0.11, 278.164, 512.313)" fill="#ff5b7e"/><rect width="7.967" height="2.577" transform="translate(286.949 543.533) rotate(-40.018)" fill="#07085b"/><rect width="7.967" height="2.577" transform="translate(103.521 539.885) rotate(-40.018)" fill="#ff5b7e"/><rect width="7.967" height="2.577" transform="matrix(-0.068, -0.998, 0.998, -0.068, 158, 566.578)" fill="#ff5b7e"/><rect width="7.967" height="2.577" transform="matrix(-0.068, -0.998, 0.998, -0.068, 311.301, 551.84)" fill="#ff5b7e"/><rect width="7.967" height="2.577" transform="matrix(-0.913, 0.408, -0.408, -0.913, 145.063, 535.477)" fill="#07085b"/><rect width="7.967" height="2.577" transform="matrix(-0.53, -0.848, 0.848, -0.53, 126.383, 566.576)" fill="#feb546"/><path d="M987.948,669.141l-.12,8.734-9.231,1.671.307-12.326Z" transform="translate(-779.848 -180.346)" fill="#ffc0bb"/><path d="M979.575,672.894l.141-5.674,9.043,2.9-.049,2.63A15,15,0,0,1,979.575,672.894Z" transform="translate(-780.66 -180.346)" fill="#fc8d84" opacity="0.6"/><path d="M917.616,482.255s-7.1-4.045-14.889-3.258c-11.994,1.211-13.471,13.024-17.832,13.214,0,0,1,1.107,4.339.665,0,0-1.981,3.223-1.635,5.27,0,0,2.449-3.024,3.537-3.519,0,0-2.537,10.754,5.155,14.3,4.57,2.106,14.088-14.113,14.088-14.113Z" transform="translate(-702.02 -23.92)" fill="#07085b"/><path d="M1047.379,621.03s.529,6.626,4.606,7.58a6.925,6.925,0,0,1-.944-4.413s3.066,4.276,6.458,1.6c0,0-5.77-3.067-4.042-7.365s-6.492.969-6.492.969Z" transform="translate(-836.635 -138.424)" fill="#07085b"/><path d="M919.325,586.058c.521,1.637-.12,3.3-1.431,3.719s-2.8-.572-3.319-2.209.119-3.3,1.431-3.719S918.8,584.421,919.325,586.058Z" transform="translate(-726.52 -111.018)" fill="#f99893"/><path d="M932.993,533.592a12.933,12.933,0,0,1-.825-2.247,24.554,24.554,0,0,1-.843-6.2c-.007-.408-.038-.815-.077-1.222a13.307,13.307,0,1,1,26.517-.212,2.879,2.879,0,0,1,2.6,0c1.519.827,1.91,3.033.875,4.929s-3.106,2.762-4.624,1.936a2.533,2.533,0,0,1-.564-.422,12.481,12.481,0,0,1-13.273,10.411,11.941,11.941,0,0,1-7.809-4,5.908,5.908,0,0,1-.415-.456A11.507,11.507,0,0,1,932.993,533.592Z" transform="translate(-740.471 -49.238)" fill="#ffc0bb"/><path d="M1017.191,590.092a1.162,1.162,0,1,0,1.267-1.044A1.16,1.16,0,0,0,1017.191,590.092Z" transform="translate(-811.9 -115.41)" fill="#333"/><path d="M958.2,588.329a1.162,1.162,0,1,0,1.268-1.044A1.16,1.16,0,0,0,958.2,588.329Z" transform="translate(-762.898 -113.947)" fill="#333"/><path d="M1010.279,574.738a10.917,10.917,0,0,1,1.7-.39,5.74,5.74,0,0,1,1.626,0,5.314,5.314,0,0,1,1.55.464l.194.081c.065.028.122.07.186.1l.38.2c.255.141.49.317.773.458a5.111,5.111,0,0,0-.506-.774,4.211,4.211,0,0,0-.688-.639,3.782,3.782,0,0,0-1.771-.728,3.958,3.958,0,0,0-1.9.194A3.665,3.665,0,0,0,1010.279,574.738Z" transform="translate(-806.162 -102.479)" fill="#07085b"/><path d="M950.959,572.206a3.661,3.661,0,0,0-1.444-1.161,3.955,3.955,0,0,0-1.878-.362,3.783,3.783,0,0,0-1.83.568,4.23,4.23,0,0,0-.743.576,5.109,5.109,0,0,0-.573.726c.295-.116.545-.27.811-.388l.4-.169c.067-.026.127-.061.194-.084l.2-.064a5.324,5.324,0,0,1,1.585-.324,5.747,5.747,0,0,1,1.62.145A10.908,10.908,0,0,1,950.959,572.206Z" transform="translate(-751.52 -100.154)" fill="#07085b"/><path d="M979.53,637.485a4.037,4.037,0,0,0,7.806-.763Z" transform="translate(-780.623 -155.012)" fill="#fff"/><path d="M986.435,587.28a17.42,17.42,0,0,0-1.057,2.135,16.3,16.3,0,0,0-.773,2.255,6.068,6.068,0,0,0-.186,1.208,2.193,2.193,0,0,0,.024.33c.008.057.028.118.042.177a.791.791,0,0,0,.1.188c.026.032.052.062.08.092l.066.051c.044.032.086.068.132.1.092.056.182.115.276.162a6.007,6.007,0,0,0,1.156.458,8.225,8.225,0,0,0,1.2.257,13.556,13.556,0,0,1-2.151-1.035c-.082-.051-.154-.11-.229-.166l-.1-.088-.05-.044a.083.083,0,0,0-.014-.024.874.874,0,0,1-.052-.443,6.163,6.163,0,0,1,.2-1.11c.183-.749.424-1.494.653-2.242S986.221,588.042,986.435,587.28Z" transform="translate(-784.684 -113.947)" fill="#f99893"/><path d="M994.453,502.835c1.89-1.04,3.459.766,3.459.766.679-1.622,3.158-8.641-2.437-13.489l3.763-1.614a7.144,7.144,0,0,0-4.3-.582,9.475,9.475,0,0,0,.538-3.674s-1.613,2.2-2.554,2.576l-17.562.2s1.209,7.527,6.048,10.3c0,0-1.971-4.568-1.433-7.212,0,0,.941,6.988,7.975,8.78l3.9,7.8.917-.425C992.985,504.927,993.456,503.384,994.453,502.835Z" transform="translate(-777.158 -28.361)" fill="#07085b"/><path d="M758.385,676.006s1.359,18.163,9.94,22.382,24.456-6.332,24.456-6.332l-15.589-3.035s-7.437,1.645-8.295,1.5-5.792-10.941-5.792-10.941Z" transform="translate(-596.938 -187.643)" fill="#ffc0bb"/><path d="M885.759,721.832l-16.351,1.891,2.431,14.159,8.009-2.646Z" transform="translate(-689.154 -225.707)" fill="#e03268"/><path d="M879.29,907.117s-5.292,47.2-4.434,63.642l9.347,1.114,9.734-54.6,1.232.048,6.27,54.918h8.486s1.4-54.823-3.176-70.268S879.29,907.117,879.29,907.117Z" transform="translate(-693.602 -370.559)" fill="#feb546"/><path d="M926.045,726.9a6.874,6.874,0,0,0-4.94-5.056,14.178,14.178,0,0,0-3.043-.442l-.516-.019h0c-6.093,1.948-9.032-.544-9.033-.545-2.265-.381-8.754.009-11.331,15.938-3.146,19.45-3.289,25.886-3.289,25.886s18.163,8.724,30.748,1.859C924.64,764.524,928.81,738.378,926.045,726.9Z" transform="translate(-709.49 -224.82)" fill="#ff5b7e"/><path d="M796.5,814.265c-.873-1.816-1.552-3.3-1.552-3.3l-4.237-3.21s.1,1.381.44,3.43Z" transform="translate(-623.787 -297.074)" fill="#fc8d84" opacity="0.6"/><path d="M887.4,1348.191l-.193,6.835-4.538,3.29s-2.145-2.89-2.1-3.29.421-8.632.421-8.632Z" transform="translate(-698.426 -744.471)" fill="#ffc0bb"/><path d="M1041.564,1348.191l.193,6.835,4.538,3.29s2.145-2.89,2.1-3.29-.421-8.632-.421-8.632Z" transform="translate(-832.148 -744.471)" fill="#ffc0bb"/><path d="M870.947,1332.6l9.834,1.172a.471.471,0,0,1,.407.556l-.666,3.467a.471.471,0,0,1-.527.378l-9.21-1.272a.471.471,0,0,1-.406-.472l.042-3.367A.471.471,0,0,1,870.947,1332.6Z" transform="translate(-689.961 -733.01)" fill="#f4a640"/><path d="M1036.96,1334.145l-9.834,1.172a.471.471,0,0,0-.406.556l.665,3.467a.471.471,0,0,0,.527.378l9.21-1.273a.471.471,0,0,0,.406-.472l-.042-3.366A.471.471,0,0,0,1036.96,1334.145Z" transform="translate(-819.813 -734.295)" fill="#f4a640"/><path d="M1377.219,1727.811a15.3,15.3,0,0,0-2.438,4.406,41.608,41.608,0,0,1-2.261,4.624h-23.456c.636-.4,1.287-.773,1.957-1.115a47.707,47.707,0,0,1,4.413-1.9c2-.781,3.9-1.52,4.867-2.49a15.728,15.728,0,0,0,2.411-4.383,25.508,25.508,0,0,1,5.337-8.589c3.72-3.61,8.453-4.816,12.255-5.786,2.66-.678,5.172-1.318,6.347-2.5a14.81,14.81,0,0,0,1.946-3.085c.426-.794.866-1.615,1.389-2.471a28.671,28.671,0,0,1,19.968-13.266c.464-.07.9-.125,1.317-.177.673-.084,6.878-1.35,8.947.072h0a6.485,6.485,0,0,1-.311,10.911,13.6,13.6,0,0,1-1.482.758,19.056,19.056,0,0,1-5.525,1.325c-.351.044-.683.085-.979.13a15.569,15.569,0,0,0-10.7,7.106c-.331.543-.668,1.171-1.025,1.835-.112.209-.228.425-.347.645l-5.8.194,4.184,2.52a18.559,18.559,0,0,1-2.256,2.788c-3.737,3.756-8.557,4.985-12.43,5.973C1380.916,1726.008,1378.422,1726.643,1377.219,1727.811Z" transform="translate(-1087.559 -1030.27)" fill="#9cdedc"/><path d="M1294.9,1504.893c-.911,1.341-1.414,3.729-1.946,6.256-.793,3.765-1.691,8.032-4.363,12.1-2.955,4.5-7.161,7.227-10.539,9.42-.824.535-1.62,1.052-2.355,1.564h-21.784a34.833,34.833,0,0,1,9.688-12.349,62.136,62.136,0,0,1,5.123-3.588c2.349-1.524,4.567-2.964,5.547-4.455.892-1.359,1.39-3.72,1.916-6.221.771-3.662,1.731-8.219,4.538-12.352,3.79-5.581,9.5-8.365,14.093-10.6,3.211-1.565,6.244-3.043,7.43-4.857a19.287,19.287,0,0,0,1.667-4.445c.334-1.124.678-2.287,1.118-3.515a37.088,37.088,0,0,1,9.861-14.75l3.923,6.2-1.728-8.058a36.572,36.572,0,0,1,9.894-5.556c.574-.212,1.111-.4,1.631-.572.836-.284,8.41-3.532,11.421-2.266h0a8.491,8.491,0,0,1,4.882,10.119l-7.8.658,5.915,2.687c-.166.179-.337.355-.522.523a17.71,17.71,0,0,1-1.688,1.357,24.794,24.794,0,0,1-6.692,3.144c-.436.149-.848.289-1.213.424a20.259,20.259,0,0,0-11.758,11.874c-.279.78-.543,1.668-.822,2.609a50.322,50.322,0,0,1-1.633,4.853l-8.825,1.7,7.373,1.3c-.209.366-.43.73-.666,1.092-3.772,5.772-9.591,8.607-14.266,10.886C1299.135,1501.621,1296.124,1503.089,1294.9,1504.893Z" transform="translate(-1008.525 -827.66)" fill="#8fd0d6"/><path d="M1401.837,1479.146c-16.787,23.454-10.83,20.38-28.269,33.037-13.271,9.631-9.028,27.3-20.194,35.29h4.936c.734-.511,1.53-1.029,2.355-1.564,3.378-2.192,7.584-4.921,10.539-9.419,2.672-4.067,3.57-8.334,4.363-12.1.532-2.528,1.035-4.916,1.946-6.257,1.226-1.8,4.237-3.271,7.425-4.825,4.675-2.279,10.494-5.115,14.266-10.886.236-.362.457-.727.666-1.092l-7.373-1.3,8.825-1.7a50.325,50.325,0,0,0,1.633-4.853c.279-.94.543-1.829.822-2.609a20.26,20.26,0,0,1,11.758-11.874c.365-.135.777-.275,1.213-.424a24.793,24.793,0,0,0,6.692-3.144,17.62,17.62,0,0,0,1.688-1.357c.185-.168.357-.344.523-.523l-5.915-2.687,7.8-.658a8.547,8.547,0,0,0-1.63-7.71C1418.931,1463.421,1410.215,1467.441,1401.837,1479.146Z" transform="translate(-1091.139 -840.904)" fill="#74bdc1" opacity="0.2" style="mix-blend-mode:multiply;isolation:isolate"/><path d="M1288.081,1276.655a41.749,41.749,0,0,1-.257,9.858c-4.534,2.553-13.39,7.542-12.38,7.005.946-.5,7.475-2.018,11.3-2.88-2.278,6.433-6.807,11.116-10.532,14.967-2.88,2.976-5.6,5.788-6.225,8.256-.465,1.835-.065,4.656.358,7.643.631,4.448,1.345,9.49.034,15.019-1.451,6.115-4.978,10.787-7.812,14.54-1.155,1.529-2.245,2.973-3.069,4.326-.151.249-.3.5-.435.758h-21.3a40.28,40.28,0,0,1,4.647-11.162,72.418,72.418,0,0,1,4.192-5.98c1.97-2.609,3.831-5.073,4.312-7.1.438-1.848.042-4.638-.376-7.592-.614-4.326-1.377-9.71.056-15.366,1.935-7.637,7.1-12.97,11.242-17.255,2.9-3,5.64-5.829,6.218-8.293a22.513,22.513,0,0,0,.059-5.543c-.082-1.366-.167-2.78-.174-4.3a43.624,43.624,0,0,1,13.426-31.438l3.911,1.726-1.93-3.5c.489-.41.957-.787,1.411-1.151.8-.645,7.823-7.23,11.632-7.041h0a9.855,9.855,0,0,1,8.3,14.363,20.519,20.519,0,0,1-1.312,2.162,28.961,28.961,0,0,1-6.091,6.119c-.419.337-.815.655-1.162.948a23.659,23.659,0,0,0-8.172,17.72C1287.947,1274.43,1288.012,1275.511,1288.081,1276.655Z" transform="translate(-995.107 -649.578)" fill="#74bdc1"/><path d="M1335.815,1282.807c-8.009,25.443-.582,24.013-10.016,37.743s-12.418,12.585-9.782,28.031c1.232,7.216-4.188,17.991-10.312,27.424h9.793c.14-.256.284-.51.436-.758.823-1.353,1.914-2.8,3.069-4.326,2.834-3.753,6.362-8.425,7.812-14.54,1.311-5.529.6-10.57-.034-15.019-.424-2.987-.823-5.808-.359-7.643.625-2.469,3.346-5.28,6.225-8.256,3.726-3.851,8.254-8.534,10.532-14.967-3.825.862-10.354,2.377-11.3,2.88-1.01.537,7.846-4.452,12.381-7.005a41.763,41.763,0,0,0,.257-9.858c-.069-1.144-.134-2.225-.138-3.192a23.66,23.66,0,0,1,8.172-17.72c.347-.294.743-.612,1.162-.948a28.964,28.964,0,0,0,6.091-6.118,20.591,20.591,0,0,0,1.312-2.162,9.7,9.7,0,0,0-.794-10.318C1351.618,1260.207,1340.415,1268.194,1335.815,1282.807Z" transform="translate(-1051.547 -669.436)" fill="#74bdc1" opacity="0.2" style="mix-blend-mode:multiply;isolation:isolate"/><path d="M1377.219,1727.811a15.3,15.3,0,0,0-2.438,4.406,41.608,41.608,0,0,1-2.261,4.624h-23.456c.636-.4,1.287-.773,1.957-1.115a47.707,47.707,0,0,1,4.413-1.9c2-.781,3.9-1.52,4.867-2.49a15.728,15.728,0,0,0,2.411-4.383,25.508,25.508,0,0,1,5.337-8.589c3.72-3.61,8.453-4.816,12.255-5.786,2.66-.678,5.172-1.318,6.347-2.5a14.81,14.81,0,0,0,1.946-3.085c.426-.794.866-1.615,1.389-2.471a28.671,28.671,0,0,1,19.968-13.266c.464-.07.9-.125,1.317-.177.673-.084,6.878-1.35,8.947.072h0a6.485,6.485,0,0,1-.311,10.911,13.6,13.6,0,0,1-1.482.758,19.056,19.056,0,0,1-5.525,1.325c-.351.044-.683.085-.979.13a15.569,15.569,0,0,0-10.7,7.106c-.331.543-.668,1.171-1.025,1.835-.112.209-.228.425-.347.645l-5.8.194,4.184,2.52a18.559,18.559,0,0,1-2.256,2.788c-3.737,3.756-8.557,4.985-12.43,5.973C1380.916,1726.008,1378.422,1726.643,1377.219,1727.811Z" transform="translate(-1087.559 -1030.27)" fill="#9cdedc"/><path d="M1472.472,1731.835c-13.729,12.013-15.418,14.141-22.954,17.669-5.333,2.5-10.1,10.55-12.432,15.047h8.546a41.636,41.636,0,0,0,2.26-4.624,15.3,15.3,0,0,1,2.438-4.406c1.2-1.167,3.7-1.8,6.338-2.476,3.873-.987,8.693-2.216,12.43-5.973a18.548,18.548,0,0,0,2.256-2.788l-4.184-2.52,5.8-.194c.119-.22.235-.436.348-.645.357-.665.693-1.292,1.025-1.835a15.571,15.571,0,0,1,10.7-7.106c.3-.045.628-.086.979-.13a19.049,19.049,0,0,0,5.525-1.324,13.565,13.565,0,0,0,1.481-.759,6.376,6.376,0,0,0,3.124-5.931C1488.488,1724.132,1479.232,1725.92,1472.472,1731.835Z" transform="translate(-1160.672 -1057.98)" fill="#74bdc1" opacity="0.2" style="mix-blend-mode:multiply;isolation:isolate"/><path d="M315.914,1727.811a15.308,15.308,0,0,1,2.438,4.406,41.594,41.594,0,0,0,2.261,4.624h23.456c-.636-.4-1.287-.773-1.957-1.115a47.65,47.65,0,0,0-4.413-1.9c-2-.781-3.9-1.52-4.867-2.49a15.725,15.725,0,0,1-2.41-4.383,25.514,25.514,0,0,0-5.337-8.589c-3.721-3.61-8.453-4.816-12.255-5.786-2.66-.678-5.172-1.318-6.347-2.5a14.82,14.82,0,0,1-1.946-3.085c-.426-.794-.866-1.615-1.388-2.471a28.671,28.671,0,0,0-19.968-13.266c-.464-.07-.9-.125-1.317-.177-.674-.084-6.879-1.35-8.947.072h0a6.485,6.485,0,0,0,.311,10.911,13.633,13.633,0,0,0,1.482.758,19.059,19.059,0,0,0,5.525,1.325c.351.044.683.085.979.13a15.569,15.569,0,0,1,10.7,7.106c.332.543.668,1.171,1.025,1.835.112.209.228.425.347.645l5.8.194-4.184,2.52a18.566,18.566,0,0,0,2.256,2.788c3.737,3.756,8.557,4.985,12.43,5.973C312.217,1726.008,314.711,1726.643,315.914,1727.811Z" transform="translate(-191.354 -1030.27)" fill="#9cdedc"/><path d="M313.235,1504.893c.91,1.341,1.413,3.729,1.946,6.256.793,3.765,1.691,8.032,4.363,12.1,2.956,4.5,7.16,7.227,10.539,9.42.825.535,1.62,1.052,2.355,1.564h21.784a34.832,34.832,0,0,0-9.688-12.349,62.078,62.078,0,0,0-5.123-3.588c-2.348-1.524-4.567-2.964-5.547-4.455-.893-1.359-1.39-3.72-1.917-6.221-.771-3.662-1.731-8.219-4.538-12.352-3.79-5.581-9.5-8.365-14.093-10.6-3.211-1.565-6.244-3.043-7.43-4.857a19.306,19.306,0,0,1-1.668-4.445c-.333-1.124-.678-2.287-1.118-3.515a37.087,37.087,0,0,0-9.861-14.75l-3.923,6.2,1.728-8.058a36.571,36.571,0,0,0-9.894-5.556c-.573-.212-1.111-.4-1.631-.572-.836-.284-8.41-3.532-11.421-2.266h0a8.491,8.491,0,0,0-4.882,10.119l7.8.658L265.1,1460.3c.166.179.337.355.522.523a17.707,17.707,0,0,0,1.688,1.357,24.792,24.792,0,0,0,6.692,3.144c.436.149.848.289,1.213.424a20.258,20.258,0,0,1,11.758,11.874c.279.78.543,1.668.822,2.609a50.341,50.341,0,0,0,1.633,4.853l8.825,1.7-7.373,1.3c.209.366.43.73.666,1.092,3.772,5.772,9.591,8.607,14.266,10.886C309,1501.621,312.009,1503.089,313.235,1504.893Z" transform="translate(-185.389 -827.66)" fill="#8fd0d6"/><path d="M288.911,1479.146c16.787,23.454,10.83,20.38,28.269,33.037,13.271,9.631,9.028,27.3,20.194,35.29h-4.936c-.734-.511-1.53-1.029-2.355-1.564-3.379-2.192-7.584-4.921-10.539-9.419-2.672-4.067-3.571-8.334-4.363-12.1-.532-2.528-1.035-4.916-1.946-6.257-1.226-1.8-4.237-3.271-7.425-4.825-4.675-2.279-10.494-5.115-14.266-10.886-.236-.362-.457-.727-.666-1.092l7.373-1.3-8.825-1.7a50.312,50.312,0,0,1-1.633-4.853c-.279-.94-.543-1.829-.822-2.609a20.26,20.26,0,0,0-11.758-11.874c-.365-.135-.777-.275-1.213-.424a24.792,24.792,0,0,1-6.692-3.144,17.638,17.638,0,0,1-1.688-1.357c-.185-.168-.357-.344-.522-.523l5.915-2.687-7.8-.658a8.547,8.547,0,0,1,1.631-7.71C271.817,1463.421,280.534,1467.441,288.911,1479.146Z" transform="translate(-185.389 -840.904)" fill="#74bdc1" opacity="0.2" style="mix-blend-mode:multiply;isolation:isolate"/><path d="M434.157,1276.655a41.743,41.743,0,0,0,.257,9.858c4.535,2.553,13.39,7.542,12.381,7.005-.946-.5-7.476-2.018-11.3-2.88,2.278,6.433,6.806,11.116,10.533,14.967,2.88,2.976,5.6,5.788,6.225,8.256.465,1.835.065,4.656-.359,7.643-.631,4.448-1.345,9.49-.034,15.019,1.451,6.115,4.978,10.787,7.812,14.54,1.155,1.529,2.245,2.973,3.069,4.326.151.249.3.5.435.758h21.3a40.287,40.287,0,0,0-4.647-11.162,72.433,72.433,0,0,0-4.192-5.98c-1.97-2.609-3.831-5.073-4.312-7.1-.438-1.848-.042-4.638.376-7.592.614-4.326,1.377-9.71-.057-15.366-1.935-7.637-7.095-12.97-11.241-17.255-2.9-3-5.64-5.829-6.219-8.293a22.522,22.522,0,0,1-.058-5.543c.082-1.366.167-2.78.174-4.3a43.623,43.623,0,0,0-13.426-31.438l-3.91,1.726,1.93-3.5c-.489-.41-.958-.787-1.411-1.151-.8-.645-7.823-7.23-11.632-7.041h0a9.855,9.855,0,0,0-8.3,14.363,20.541,20.541,0,0,0,1.312,2.162,28.962,28.962,0,0,0,6.091,6.119c.419.337.815.655,1.162.948a23.66,23.66,0,0,1,8.172,17.72C434.291,1274.43,434.226,1275.511,434.157,1276.655Z" transform="translate(-312.91 -649.578)" fill="#74bdc1"/><path d="M442.861,1282.807c8.009,25.443.582,24.013,10.016,37.743s12.418,12.585,9.782,28.031c-1.232,7.216,4.188,17.991,10.312,27.424h-9.793c-.14-.256-.284-.51-.435-.758-.824-1.353-1.914-2.8-3.069-4.326-2.834-3.753-6.362-8.425-7.813-14.54-1.311-5.529-.6-10.57.034-15.019.424-2.987.824-5.808.359-7.643-.626-2.469-3.346-5.28-6.225-8.256-3.726-3.851-8.255-8.534-10.533-14.967,3.825.862,10.354,2.377,11.3,2.88,1.01.537-7.846-4.452-12.381-7.005a41.748,41.748,0,0,1-.257-9.858c.069-1.144.134-2.225.138-3.192a23.659,23.659,0,0,0-8.172-17.72c-.347-.294-.743-.612-1.162-.948a28.967,28.967,0,0,1-6.091-6.118,20.584,20.584,0,0,1-1.312-2.162,9.7,9.7,0,0,1,.794-10.318C427.058,1260.207,438.261,1268.194,442.861,1282.807Z" transform="translate(-312.912 -669.436)" fill="#74bdc1" opacity="0.2" style="mix-blend-mode:multiply;isolation:isolate"/><path d="M315.914,1727.811a15.308,15.308,0,0,1,2.438,4.406,41.594,41.594,0,0,0,2.261,4.624h23.456c-.636-.4-1.287-.773-1.957-1.115a47.65,47.65,0,0,0-4.413-1.9c-2-.781-3.9-1.52-4.867-2.49a15.725,15.725,0,0,1-2.41-4.383,25.514,25.514,0,0,0-5.337-8.589c-3.721-3.61-8.453-4.816-12.255-5.786-2.66-.678-5.172-1.318-6.347-2.5a14.82,14.82,0,0,1-1.946-3.085c-.426-.794-.866-1.615-1.388-2.471a28.671,28.671,0,0,0-19.968-13.266c-.464-.07-.9-.125-1.317-.177-.674-.084-6.879-1.35-8.947.072h0a6.485,6.485,0,0,0,.311,10.911,13.633,13.633,0,0,0,1.482.758,19.059,19.059,0,0,0,5.525,1.325c.351.044.683.085.979.13a15.569,15.569,0,0,1,10.7,7.106c.332.543.668,1.171,1.025,1.835.112.209.228.425.347.645l5.8.194-4.184,2.52a18.566,18.566,0,0,0,2.256,2.788c3.737,3.756,8.557,4.985,12.43,5.973C312.217,1726.008,314.711,1726.643,315.914,1727.811Z" transform="translate(-191.354 -1030.27)" fill="#9cdedc"/><path d="M293.787,1731.835c13.729,12.013,15.418,14.141,22.954,17.669,5.333,2.5,10.1,10.55,12.432,15.047h-8.546a41.631,41.631,0,0,1-2.261-4.624,15.3,15.3,0,0,0-2.438-4.406c-1.2-1.167-3.7-1.8-6.338-2.476-3.873-.987-8.693-2.216-12.43-5.973a18.553,18.553,0,0,1-2.256-2.788l4.184-2.52-5.8-.194c-.119-.22-.235-.436-.347-.645-.356-.665-.693-1.292-1.025-1.835a15.571,15.571,0,0,0-10.7-7.106c-.3-.045-.628-.086-.979-.13a19.051,19.051,0,0,1-5.525-1.324,13.582,13.582,0,0,1-1.482-.759,6.377,6.377,0,0,1-3.124-5.931C277.771,1724.132,287.027,1725.92,293.787,1731.835Z" transform="translate(-191.367 -1057.98)" fill="#74bdc1" opacity="0.2" style="mix-blend-mode:multiply;isolation:isolate"/><path d="M714.866,455.539a2.524,2.524,0,0,0-1.549-1.4l-5.489-1.751a33.617,33.617,0,0,0,.821-3.284l-12.7-3.6-12.7-3.6a33.616,33.616,0,0,0-1.026,3.226l-5.583-1.391a2.524,2.524,0,0,0-3.12,2.177,21.619,21.619,0,0,0,1.071,9.667,14.4,14.4,0,0,0,3.557,5.412,15.8,15.8,0,0,0,6.293,3.558,10.993,10.993,0,0,0,11.3,3.207,15.807,15.807,0,0,0,7.231.28,14.4,14.4,0,0,0,5.869-2.737,21.618,21.618,0,0,0,5.988-7.664A2.525,2.525,0,0,0,714.866,455.539ZM675.9,446.166a.115.115,0,0,1,.052-.087.117.117,0,0,1,.1-.018l5.605,1.4c-.812,3.9-1.3,9.181.5,13.515C675.552,457.2,675.53,449.6,675.9,446.166ZM712.661,456.6c-1.487,3.121-5.5,9.582-13.112,9.312,3.807-2.744,6.168-7.49,7.527-11.24l5.51,1.758a.123.123,0,0,1,.074.17Z" transform="translate(-526.332 6.813)" fill="#ffd103"/><path d="M723.625,603.557l3.983-22.677-1.526,1.926.014-.051-.287-2.44-8.52,21.39Z" transform="translate(-562.803 -108.16)" fill="#ffd103"/><path d="M760.334,584.21a2.269,2.269,0,1,1-1.564-2.8A2.269,2.269,0,0,1,760.334,584.21Z" transform="translate(-594.857 -108.998)" fill="#ffd103"/><path d="M741.121,639.354,736.364,638a.828.828,0,0,1-.57-1.023l.052-.181a.828.828,0,0,1,1.023-.571l4.756,1.35a.828.828,0,0,1,.571,1.023l-.052.181A.828.828,0,0,1,741.121,639.354Z" transform="translate(-578.146 -154.58)" fill="#ffd103"/><path d="M715.5,706.77l-7.41-2.1a.964.964,0,0,1-.664-1.19l.06-.211a.964.964,0,0,1,1.191-.664l7.41,2.1a.964.964,0,0,1,.664,1.191l-.06.211A.964.964,0,0,1,715.5,706.77Z" transform="translate(-554.578 -209.703)" fill="#ffd103"/><path d="M742.88,648.506l-4.215-1.2-.456,1.144,4.454,1.283Z" transform="translate(-580.18 -163.811)" fill="#feb546" opacity="0.5" style="mix-blend-mode:multiply;isolation:isolate"/><path d="M707.48,704.517a.825.825,0,0,0-.114.242l-.133.469a.83.83,0,0,0,.572,1.025l7.668,2.176a.83.83,0,0,0,1.025-.572l.133-.469a.826.826,0,0,0,.03-.265Z" transform="translate(-554.424 -211.326)" fill="#feb546" opacity="0.5" style="mix-blend-mode:multiply;isolation:isolate"/><path d="M1.462,0h10.58A1.463,1.463,0,0,1,13.5,1.463v0a1.463,1.463,0,0,1-1.463,1.463H1.462A1.462,1.462,0,0,1,0,1.463v0A1.462,1.462,0,0,1,1.462,0Z" transform="translate(150.992 493.209) rotate(15.84)" fill="#ffd103"/><path d="M748.461,452.163l-4.618-1.31c-.037.111-.076.223-.115.336-7.129-1.885-20.785-5.608-20.785-5.608l19.683,8.428c-2.625,5.979-7.65,12.867-16.539,10.831a12.627,12.627,0,0,1-4.775-2.823,11.9,11.9,0,0,0,8.126,8.828C744.484,474.291,748.461,452.163,748.461,452.163Z" transform="translate(-566.145 3.75)" fill="#feb546" opacity="0.3" style="mix-blend-mode:multiply;isolation:isolate"/><path d="M746.489,442.576l-25.863-7.338a1.73,1.73,0,0,1-1.192-2.137l.108-.379a1.73,1.73,0,0,1,2.136-1.192l25.863,7.338a1.73,1.73,0,0,1,1.192,2.136l-.108.379A1.73,1.73,0,0,1,746.489,442.576Z" transform="translate(-564.529 15.475)" fill="#ffe55a"/><path d="M732.087,469.542s-5.973,15.556,6.638,19.329C738.726,488.871,730.606,482.873,732.087,469.542Z" transform="translate(-573.92 -16.152)" fill="#f4c676" opacity="0.3" style="mix-blend-mode:screen;isolation:isolate"/><path d="M763.057,493.094l.807,4.385,4.07,1.821-3.921,2.123-.474,4.434-3.231-3.074-4.364.919,1.925-4.022-2.222-3.866,4.42.588Z" transform="translate(-594.664 -35.715)" fill="#feb546" opacity="0.3" style="mix-blend-mode:multiply;isolation:isolate"/><path d="M761.759,488.843l.807,4.385,4.07,1.821-3.921,2.123-.474,4.434-3.231-3.073-4.363.919,1.925-4.022-2.222-3.866,4.42.588Z" transform="translate(-593.586 -32.184)" fill="#ffe55a"/><path d="M774.275,650.472c-20.022-.191-40.914-22.167-42.291-23.472s-1.645-2.825-1.323-3.057,1.233.268,1.233.268-.565-1.96-.143-2.366c.6-.572,1.949.167,1.949.167s-.25-1.931.554-2.2,1.627,1.269,1.627,1.269c.679-.8,1.18-.84,1.18-.84,1.448.107,1.234,2.95,1.234,2.95l.93-.232c1.412-.286.441,3.009.441,3.009s2.288,3.528,14.683,9.534,20.88,4.576,20.88,4.576Z" transform="translate(-573.809 -140.943)" fill="#ffc0bb"/><path d="M981.979,730.267s10.8-.607,13.663-.349c3.88.349,5.024,5.307,1.687,8.453-3.141,2.962-15.35,5.339-15.35,5.339Z" transform="translate(-782.656 -232.369)" fill="#e03268"/><path d="M993.312,742.117q-.957.438-1.946.8t-1.991.684c-1.336.431-2.691.8-4.056,1.131q-1.024.245-2.056.456c-.628.128-1.259.255-1.889.363l-.012-3.178c0-1.12-.014-2.241-.028-3.361l-.043-3.361c-.023-1.12-.038-2.241-.07-3.361-.032,1.12-.048,2.241-.07,3.361l-.043,3.361c-.014,1.12-.027,2.241-.028,3.361l-.013,3.361v.18l.179-.028c1.4-.222,2.776-.52,4.147-.859s2.729-.722,4.068-1.172q1-.34,1.986-.735t1.939-.853a19.366,19.366,0,0,0,1.855-1.02,13.519,13.519,0,0,0,1.711-1.241A18.075,18.075,0,0,1,993.312,742.117Z" transform="translate(-781.898 -234.395)" fill="#eaf5f9"/><path d="M789.455,1431.98H697.8l-12.813,80.863H802.269Z" transform="translate(-535.973 -815.561)" fill="#fee4cb"/><path d="M687.663,1809.606l-2.677,16.9H802.269l-2.677-16.9Z" transform="translate(-535.973 -1129.219)" fill="#fee4cb" opacity="0.5" style="mix-blend-mode:multiply;isolation:isolate"/><path d="M11.519,0h107a11.519,11.519,0,0,1,11.519,11.519v0a0,0,0,0,1,0,0H0a0,0,0,0,1,0,0v0A11.519,11.519,0,0,1,11.519,0Z" transform="translate(141.34 685.764)" fill="#fee4cb"/><rect width="101.504" height="7.236" rx="3.618" transform="translate(156.775 616.42)" fill="#f2d0b3"/><rect width="76.37" height="5.148" transform="translate(167.895 640.531)" fill="#f2d0b3"/><rect width="76.37" height="5.149" transform="translate(167.895 651.113)" fill="#f2d0b3"/><rect width="56.053" height="5.149" transform="translate(178.053 661.699)" fill="#f2d0b3"/><path d="M640.668,1875.348a10.07,10.07,0,0,0-.983,4.351v1.408H769.724V1879.7a10.072,10.072,0,0,0-.983-4.351Z" transform="translate(-498.346 -1183.824)" fill="#fee4cb" opacity="0.5" style="mix-blend-mode:multiply;isolation:isolate"/><path d="M11.518,0H145.24a11.519,11.519,0,0,1,11.519,11.519v0a0,0,0,0,1,0,0H0a0,0,0,0,1,0,0v0A11.518,11.518,0,0,1,11.518,0Z" transform="translate(127.979 695.051)" fill="#fee4cb"/><path d="M823.008,1422.98l17.387.032a.541.541,0,0,0,.543-.541l0-.776a.542.542,0,0,0-.541-.542l-17.387-.032a.541.541,0,0,0-.543.541v.776A.542.542,0,0,0,823.008,1422.98Z" transform="translate(-650.164 -806.539)" fill="#294a5c"/><path d="M840.123,1382.993l.6,5.171c.074.638-.283,1.216-.752,1.215l-16.277-.031a1.186,1.186,0,0,1-1.061-.762,2.261,2.261,0,0,1,.46-2.3c1.446-2.036,6.152-2.54,8.522-4.251a.281.281,0,0,1,.165-.054l7.49.014C839.7,1381.993,840.057,1382.417,840.123,1382.993Z" transform="translate(-650.184 -774.027)" fill="#ff5b7e"/><path d="M866.732,1387.2h0a.349.349,0,0,0,.093-.421,3.144,3.144,0,0,0-3.347-2.085c-.118.02-.2.176-.178.337v.005c.019.156.125.258.238.239a2.711,2.711,0,0,1,2.926,1.808C866.52,1387.207,866.634,1387.257,866.732,1387.2Z" transform="translate(-684.078 -776.242)" fill="#294a5c"/><path d="M856.746,1391.107h0a.349.349,0,0,0,.093-.421,3.143,3.143,0,0,0-3.347-2.085c-.117.02-.2.176-.177.337v.005c.019.156.125.258.238.239a2.712,2.712,0,0,1,2.926,1.808C856.534,1391.117,856.648,1391.167,856.746,1391.107Z" transform="translate(-675.785 -779.49)" fill="#294a5c"/><path d="M847.457,1394.755h0a.349.349,0,0,0,.093-.421,3.144,3.144,0,0,0-3.347-2.085c-.117.02-.2.176-.178.337v.005c.019.156.125.258.238.239a2.712,2.712,0,0,1,2.926,1.808C847.245,1394.765,847.359,1394.815,847.457,1394.755Z" transform="translate(-668.068 -782.52)" fill="#294a5c"/><path d="M983.008,1422.98l17.387.032a.542.542,0,0,0,.543-.541v-.776a.541.541,0,0,0-.541-.542l-17.387-.032a.541.541,0,0,0-.543.541v.776A.542.542,0,0,0,983.008,1422.98Z" transform="translate(-783.063 -806.539)" fill="#294a5c"/><path d="M1000.124,1382.993l.6,5.171c.074.638-.283,1.216-.752,1.215l-16.276-.031a1.186,1.186,0,0,1-1.061-.762,2.262,2.262,0,0,1,.46-2.3c1.446-2.036,6.152-2.54,8.522-4.251a.281.281,0,0,1,.165-.054l7.49.014C999.7,1381.993,1000.056,1382.417,1000.124,1382.993Z" transform="translate(-783.082 -774.027)" fill="#ff5b7e"/><path d="M1026.732,1387.2h0a.349.349,0,0,0,.093-.421,3.144,3.144,0,0,0-3.347-2.085c-.117.02-.2.176-.178.337v.005c.019.156.125.258.239.239a2.712,2.712,0,0,1,2.926,1.808C1026.52,1387.207,1026.634,1387.257,1026.732,1387.2Z" transform="translate(-816.977 -776.242)" fill="#294a5c"/><path d="M1016.746,1391.107h0a.349.349,0,0,0,.094-.421,3.144,3.144,0,0,0-3.347-2.085c-.118.02-.2.176-.178.337v.005c.019.156.125.258.239.239a2.712,2.712,0,0,1,2.926,1.808C1016.534,1391.117,1016.648,1391.167,1016.746,1391.107Z" transform="translate(-808.682 -779.49)" fill="#294a5c"/><path d="M1007.457,1394.755h0a.35.35,0,0,0,.093-.421,3.144,3.144,0,0,0-3.347-2.085c-.117.02-.2.176-.178.337v.005c.019.156.125.258.238.239a2.712,2.712,0,0,1,2.926,1.808C1007.245,1394.765,1007.359,1394.815,1007.457,1394.755Z" transform="translate(-800.965 -782.52)" fill="#294a5c"/><path d="M890.332,1392.451a10.979,10.979,0,0,0-7.5,5.614l7.263.013c.468,0,.826-.577.752-1.215Z" transform="translate(-700.305 -782.727)" fill="#ff5b7e" opacity="0.3" style="mix-blend-mode:multiply;isolation:isolate"/></g></svg>