<svg width="56" height="56" fill="none" xmlns="http://www.w3.org/2000/svg"><rect width="56" height="56" rx="12" fill="#DF4D0E"/><path d="M47.5 27.987c0 10.762-8.73 19.488-19.5 19.488S8.5 38.749 8.5 27.987C8.5 17.225 17.23 8.5 28 8.5s19.5 8.725 19.5 19.487z" fill="#FE6A16"/><path d="M47.5 27.987c0 10.762-8.73 19.488-19.5 19.488S8.5 38.749 8.5 27.987C8.5 17.225 17.23 8.5 28 8.5s19.5 8.725 19.5 19.487z" stroke="#000"/><path d="M47.5 27.987c0 10.762-8.73 19.488-19.5 19.488S8.5 38.749 8.5 27.987C8.5 17.225 17.23 8.5 28 8.5s19.5 8.725 19.5 19.487z" stroke="url(#paint0_linear)"/><path d="M47.498 28.015v.155a19.49 19.49 0 01-6.718 14.553 19.518 19.518 0 01-15.35 4.61l-5.994-5.991 2.8-6.652.131-.31-.237-.238-4.699-4.695 1.253-.455.738-.268-.555-.556-3.623-3.62 5.207-2.532.631-.307-.497-.496-2.352-2.35 2.647-2.408 3.613 3.611.599.598.235-.813 1.61-5.558 3.922 3.92.506.505.301-.648 1.599-3.438 3.566 3.565.518.517.294-.67.722-1.645 8.95 8.944c.122.885.183 1.778.183 2.672z" fill="#E53F05"/><path d="M47.498 28.015v.155a19.49 19.49 0 01-6.718 14.553 19.518 19.518 0 01-15.35 4.61l-5.994-5.991 2.8-6.652.131-.31-.237-.238-4.699-4.695 1.253-.455.738-.268-.555-.556-3.623-3.62 5.207-2.532.631-.307-.497-.496-2.352-2.35 2.647-2.408 3.613 3.611.599.598.235-.813 1.61-5.558 3.922 3.92.506.505.301-.648 1.599-3.438 3.566 3.565.518.517.294-.67.722-1.645 8.95 8.944c.122.885.183 1.778.183 2.672z" stroke="#000"/><path d="M47.498 28.015v.155a19.49 19.49 0 01-6.718 14.553 19.518 19.518 0 01-15.35 4.61l-5.994-5.991 2.8-6.652.131-.31-.237-.238-4.699-4.695 1.253-.455.738-.268-.555-.556-3.623-3.62 5.207-2.532.631-.307-.497-.496-2.352-2.35 2.647-2.408 3.613 3.611.599.598.235-.813 1.61-5.558 3.922 3.92.506.505.301-.648 1.599-3.438 3.566 3.565.518.517.294-.67.722-1.645 8.95 8.944c.122.885.183 1.778.183 2.672z" stroke="url(#paint1_linear)"/><path d="M42.007 22.587a1.79 1.79 0 11-3.58-.002 1.79 1.79 0 013.58.002z" fill="#23272B"/><path d="M42.007 22.587a1.79 1.79 0 11-3.58-.002 1.79 1.79 0 013.58.002z" stroke="#000"/><path d="M42.007 22.587a1.79 1.79 0 11-3.58-.002 1.79 1.79 0 013.58.002z" stroke="url(#paint2_linear)"/><path d="M32.858 14.805a1.79 1.79 0 11-3.58-.002 1.79 1.79 0 013.58.002z" fill="#23272B"/><path d="M32.858 14.805a1.79 1.79 0 11-3.58-.002 1.79 1.79 0 013.58.002z" stroke="#000"/><path d="M32.858 14.805a1.79 1.79 0 11-3.58-.002 1.79 1.79 0 013.58.002z" stroke="url(#paint3_linear)"/><path d="M38.573 17.322a1.79 1.79 0 11-3.58-.001 1.79 1.79 0 013.58.001z" fill="#23272B"/><path d="M38.573 17.322a1.79 1.79 0 11-3.58-.001 1.79 1.79 0 013.58.001z" stroke="#000"/><path d="M38.573 17.322a1.79 1.79 0 11-3.58-.001 1.79 1.79 0 013.58.001z" stroke="url(#paint4_linear)"/><path d="M17.577 22.587a1.79 1.79 0 11-3.58-.002 1.79 1.79 0 013.58.002z" fill="#414952"/><path d="M17.577 22.587a1.79 1.79 0 11-3.58-.002 1.79 1.79 0 013.58.002z" stroke="#000"/><path d="M17.577 22.587a1.79 1.79 0 11-3.58-.002 1.79 1.79 0 013.58.002z" stroke="url(#paint5_linear)"/><path d="M26.721 14.805a1.79 1.79 0 11-3.579-.002 1.79 1.79 0 013.58.002z" fill="#414952"/><path d="M26.721 14.805a1.79 1.79 0 11-3.579-.002 1.79 1.79 0 013.58.002z" stroke="#000"/><path d="M26.721 14.805a1.79 1.79 0 11-3.579-.002 1.79 1.79 0 013.58.002z" stroke="url(#paint6_linear)"/><path d="M21.01 17.322a1.79 1.79 0 11-3.579-.001 1.79 1.79 0 013.58.001z" fill="#414952"/><path d="M21.01 17.322a1.79 1.79 0 11-3.579-.001 1.79 1.79 0 013.58.001z" stroke="#000"/><path d="M21.01 17.322a1.79 1.79 0 11-3.579-.001 1.79 1.79 0 013.58.001z" stroke="url(#paint7_linear)"/><path d="M40.25 26.224v.088c-.015.935-.266 1.617-.68 2.132-.433.538-1.082.94-1.954 1.233l-.34.115v9.939a2.22 2.22 0 01-2.223 2.22 2.223 2.223 0 01-2.222-2.22v-9.39l-.512.012a81.59 81.59 0 01-1.6.023l-.497.003v11.382A2.22 2.22 0 0128 43.98a2.223 2.223 0 01-2.222-2.22V30.377l-.498-.002c-.547-.003-1.08-.01-1.597-.023l-.513-.013v9.39a2.22 2.22 0 01-2.222 2.22 2.223 2.223 0 01-2.223-2.22v-9.938l-.34-.114c-.873-.293-1.522-.695-1.954-1.233-.428-.53-.681-1.24-.681-2.22 0-2.248 1.34-5.008 3.585-7.222 2.237-2.205 5.304-3.8 8.665-3.8 3.36 0 6.428 1.595 8.664 3.8 2.247 2.214 3.586 4.974 3.586 7.222z" fill="#555A66"/><path d="M40.25 26.224v.088c-.015.935-.266 1.617-.68 2.132-.433.538-1.082.94-1.954 1.233l-.34.115v9.939a2.22 2.22 0 01-2.223 2.22 2.223 2.223 0 01-2.222-2.22v-9.39l-.512.012a81.59 81.59 0 01-1.6.023l-.497.003v11.382A2.22 2.22 0 0128 43.98a2.223 2.223 0 01-2.222-2.22V30.377l-.498-.002c-.547-.003-1.08-.01-1.597-.023l-.513-.013v9.39a2.22 2.22 0 01-2.222 2.22 2.223 2.223 0 01-2.223-2.22v-9.938l-.34-.114c-.873-.293-1.522-.695-1.954-1.233-.428-.53-.681-1.24-.681-2.22 0-2.248 1.34-5.008 3.585-7.222 2.237-2.205 5.304-3.8 8.665-3.8 3.36 0 6.428 1.595 8.664 3.8 2.247 2.214 3.586 4.974 3.586 7.222z" stroke="#000"/><path d="M40.25 26.224v.088c-.015.935-.266 1.617-.68 2.132-.433.538-1.082.94-1.954 1.233l-.34.115v9.939a2.22 2.22 0 01-2.223 2.22 2.223 2.223 0 01-2.222-2.22v-9.39l-.512.012a81.59 81.59 0 01-1.6.023l-.497.003v11.382A2.22 2.22 0 0128 43.98a2.223 2.223 0 01-2.222-2.22V30.377l-.498-.002c-.547-.003-1.08-.01-1.597-.023l-.513-.013v9.39a2.22 2.22 0 01-2.222 2.22 2.223 2.223 0 01-2.223-2.22v-9.938l-.34-.114c-.873-.293-1.522-.695-1.954-1.233-.428-.53-.681-1.24-.681-2.22 0-2.248 1.34-5.008 3.585-7.222 2.237-2.205 5.304-3.8 8.665-3.8 3.36 0 6.428 1.595 8.664 3.8 2.247 2.214 3.586 4.974 3.586 7.222z" stroke="url(#paint8_linear)"/><path d="M29.572 43.332c-.3.3-.677.504-1.084.596V15.214c3.17.145 6.05 1.69 8.177 3.788 2.247 2.215 3.586 4.975 3.586 7.222 0 .981-.254 1.69-.681 2.22-.433.538-1.082.94-1.954 1.234l-.34.114v9.938a2.22 2.22 0 01-2.223 2.22 2.223 2.223 0 01-2.222-2.22v-9.39l-.512.012a81.59 81.59 0 01-1.6.023l-.496.003v11.383a2.22 2.22 0 01-.651 1.57z" fill="#333940"/><path d="M29.572 43.332c-.3.3-.677.504-1.084.596V15.214c3.17.145 6.05 1.69 8.177 3.788 2.247 2.215 3.586 4.975 3.586 7.222 0 .981-.254 1.69-.681 2.22-.433.538-1.082.94-1.954 1.234l-.34.114v9.938a2.22 2.22 0 01-2.223 2.22 2.223 2.223 0 01-2.222-2.22v-9.39l-.512.012a81.59 81.59 0 01-1.6.023l-.496.003v11.383s0 0 0 0a2.22 2.22 0 01-.651 1.57z" stroke="#000"/><path d="M29.572 43.332c-.3.3-.677.504-1.084.596V15.214c3.17.145 6.05 1.69 8.177 3.788 2.247 2.215 3.586 4.975 3.586 7.222 0 .981-.254 1.69-.681 2.22-.433.538-1.082.94-1.954 1.234l-.34.114v9.938a2.22 2.22 0 01-2.223 2.22 2.223 2.223 0 01-2.222-2.22v-9.39l-.512.012a81.59 81.59 0 01-1.6.023l-.496.003v11.383s0 0 0 0a2.22 2.22 0 01-.651 1.57z" stroke="url(#paint9_linear)"/><path d="M31.625 22.853a3.622 3.622 0 01-3.623 3.62 3.622 3.622 0 01-3.623-3.62c0-2 1.622-3.62 3.623-3.62a3.622 3.622 0 013.623 3.62z" fill="#fff"/><path d="M31.625 22.853a3.622 3.622 0 01-3.623 3.62 3.622 3.622 0 01-3.623-3.62c0-2 1.622-3.62 3.623-3.62a3.622 3.622 0 013.623 3.62z" stroke="#000"/><path d="M31.625 22.853a3.622 3.622 0 01-3.623 3.62 3.622 3.622 0 01-3.623-3.62c0-2 1.622-3.62 3.623-3.62a3.622 3.622 0 013.623 3.62z" stroke="url(#paint10_linear)"/><path d="M28.488 26.44v-7.176a3.624 3.624 0 013.136 3.588 3.619 3.619 0 01-3.136 3.587z" fill="#E9EDF5"/><path d="M28.488 26.44v-7.176a3.624 3.624 0 013.136 3.588 3.619 3.619 0 01-3.136 3.587z" stroke="#000"/><path d="M28.488 26.44v-7.176a3.624 3.624 0 013.136 3.588 3.619 3.619 0 01-3.136 3.587z" stroke="url(#paint11_linear)"/><path d="M29.669 22.852a1.67 1.67 0 11-3.34 0 1.67 1.67 0 013.34 0z" fill="#333940"/><path d="M29.669 22.852a1.67 1.67 0 11-3.34 0 1.67 1.67 0 013.34 0z" stroke="#000"/><path d="M29.669 22.852a1.67 1.67 0 11-3.34 0 1.67 1.67 0 013.34 0z" stroke="url(#paint12_linear)"/><path d="M28.488 24.45v-3.193a1.67 1.67 0 01.694 2.777 1.67 1.67 0 01-.694.416z" fill="#0C0E0F"/><path d="M28.488 24.45v-3.193a1.67 1.67 0 01.694 2.777 1.67 1.67 0 01-.694.416z" stroke="#000"/><path d="M28.488 24.45v-3.193a1.67 1.67 0 01.694 2.777 1.67 1.67 0 01-.694.416z" stroke="url(#paint13_linear)"/><path d="M33.727 26.869H22.275a1.79 1.79 0 01-1.79-1.789 1.788 1.788 0 011.79-1.789h11.452a1.791 1.791 0 011.79 1.789 1.788 1.788 0 01-1.79 1.789z" fill="#9196AA"/><path d="M33.727 26.869H22.275a1.79 1.79 0 01-1.79-1.789 1.788 1.788 0 011.79-1.789h11.452a1.791 1.791 0 011.79 1.789 1.788 1.788 0 01-1.79 1.789z" stroke="#000"/><path d="M33.727 26.869H22.275a1.79 1.79 0 01-1.79-1.789 1.788 1.788 0 011.79-1.789h11.452a1.791 1.791 0 011.79 1.789 1.788 1.788 0 01-1.79 1.789z" stroke="url(#paint14_linear)"/><path d="M28.488 26.868V23.29h5.239a1.791 1.791 0 011.79 1.79 1.788 1.788 0 01-1.79 1.788h-5.239z" fill="#707789"/><path d="M28.488 26.868V23.29h5.239a1.791 1.791 0 011.79 1.79 1.788 1.788 0 01-1.79 1.788h-5.239z" stroke="#000"/><path d="M28.488 26.868V23.29h5.239a1.791 1.791 0 011.79 1.79 1.788 1.788 0 01-1.79 1.788h-5.239z" stroke="url(#paint15_linear)"/><defs><linearGradient id="paint0_linear" x1="28" y1="8" x2="28" y2="47.975" gradientUnits="userSpaceOnUse"><stop stop-color="#fff"/><stop offset="1" stop-color="#fff" stop-opacity="0"/></linearGradient><linearGradient id="paint1_linear" x1="31.196" y1="13.341" x2="31.196" y2="48" gradientUnits="userSpaceOnUse"><stop stop-color="#fff"/><stop offset="1" stop-color="#fff" stop-opacity="0"/></linearGradient><linearGradient id="paint2_linear" x1="40.216" y1="20.298" x2="40.216" y2="24.876" gradientUnits="userSpaceOnUse"><stop stop-color="#fff"/><stop offset="1" stop-color="#fff" stop-opacity="0"/></linearGradient><linearGradient id="paint3_linear" x1="31.068" y1="12.516" x2="31.068" y2="17.094" gradientUnits="userSpaceOnUse"><stop stop-color="#fff"/><stop offset="1" stop-color="#fff" stop-opacity="0"/></linearGradient><linearGradient id="paint4_linear" x1="36.783" y1="15.033" x2="36.783" y2="19.611" gradientUnits="userSpaceOnUse"><stop stop-color="#fff"/><stop offset="1" stop-color="#fff" stop-opacity="0"/></linearGradient><linearGradient id="paint5_linear" x1="15.787" y1="20.298" x2="15.787" y2="24.876" gradientUnits="userSpaceOnUse"><stop stop-color="#fff"/><stop offset="1" stop-color="#fff" stop-opacity="0"/></linearGradient><linearGradient id="paint6_linear" x1="24.931" y1="12.516" x2="24.931" y2="17.094" gradientUnits="userSpaceOnUse"><stop stop-color="#fff"/><stop offset="1" stop-color="#fff" stop-opacity="0"/></linearGradient><linearGradient id="paint7_linear" x1="19.22" y1="15.033" x2="19.22" y2="19.611" gradientUnits="userSpaceOnUse"><stop stop-color="#fff"/><stop offset="1" stop-color="#fff" stop-opacity="0"/></linearGradient><linearGradient id="paint8_linear" x1="28" y1="14.702" x2="28" y2="44.481" gradientUnits="userSpaceOnUse"><stop stop-color="#fff"/><stop offset="1" stop-color="#fff" stop-opacity="0"/></linearGradient><linearGradient id="paint9_linear" x1="34.37" y1="14.702" x2="34.37" y2="44.482" gradientUnits="userSpaceOnUse"><stop stop-color="#fff"/><stop offset="1" stop-color="#fff" stop-opacity="0"/></linearGradient><linearGradient id="paint10_linear" x1="28.002" y1="18.732" x2="28.002" y2="26.973" gradientUnits="userSpaceOnUse"><stop stop-color="#fff"/><stop offset="1" stop-color="#fff" stop-opacity="0"/></linearGradient><linearGradient id="paint11_linear" x1="30.056" y1="18.731" x2="30.056" y2="26.972" gradientUnits="userSpaceOnUse"><stop stop-color="#fff"/><stop offset="1" stop-color="#fff" stop-opacity="0"/></linearGradient><linearGradient id="paint12_linear" x1="27.998" y1="20.684" x2="27.998" y2="25.021" gradientUnits="userSpaceOnUse"><stop stop-color="#fff"/><stop offset="1" stop-color="#fff" stop-opacity="0"/></linearGradient><linearGradient id="paint13_linear" x1="29.08" y1="20.685" x2="29.08" y2="25.023" gradientUnits="userSpaceOnUse"><stop stop-color="#fff"/><stop offset="1" stop-color="#fff" stop-opacity="0"/></linearGradient><linearGradient id="paint14_linear" x1="28.001" y1="22.791" x2="28.001" y2="27.369" gradientUnits="userSpaceOnUse"><stop stop-color="#fff"/><stop offset="1" stop-color="#fff" stop-opacity="0"/></linearGradient><linearGradient id="paint15_linear" x1="32.003" y1="22.79" x2="32.003" y2="27.368" gradientUnits="userSpaceOnUse"><stop stop-color="#fff"/><stop offset="1" stop-color="#fff" stop-opacity="0"/></linearGradient></defs></svg>