<svg width="56" height="56" fill="none" xmlns="http://www.w3.org/2000/svg"><g clip-path="url(#clip0)"><path d="M56 28A28 28 0 11.003 28 28 28 0 0156 28z" fill="#6BBFDA"/><path d="M56 28c0-.647-.023-1.288-.066-1.923-5.599-5.596-13.131-13.12-13.131-13.12a19.852 19.852 0 00-29.346 26.737L11.31 45.47l9.63 9.63A28.022 28.022 0 0056 27.998V28z" fill="#3F84A1"/><path d="M28.273 6.63a19.851 19.851 0 00-14.816 33.064L11.31 45.47l7.924-1.309A19.855 19.855 0 1028.27 6.628l.002.002z" fill="#fff"/><path d="M48.126 26.482a19.853 19.853 0 01-19.85 19.852V6.63a19.853 19.853 0 0119.85 19.852z" fill="#FFF5CB"/><path d="M21.306 18.126l-4.73 10.803-2.884-4.904-2.239 1.219 5.413 8.853 6.13-13.424H42.28v-2.55l-20.974.003z" fill="#FF328E"/><path d="M28.275 18.126h14.007v2.547H28.275v-2.547z" fill="#C50A5B"/><path d="M23.996 33.04a2.513 2.513 0 01-.899-.158 2.165 2.165 0 01-.721-.44 2.008 2.008 0 01-.645-1.5c-.003-.302.069-.6.209-.866.14-.268.338-.499.581-.678.27-.195.572-.343.893-.436.37-.109.753-.162 1.138-.158.291 0 .581.025.867.076.258.044.51.116.753.215v-.38a1.327 1.327 0 00-.373-1.014 1.553 1.553 0 00-1.107-.352c-.355 0-.706.064-1.038.19a4.84 4.84 0 00-1.037.556l-.52-1.075a4.894 4.894 0 012.76-.848 3.23 3.23 0 012.22.702 2.572 2.572 0 01.79 2.03v2.063a.597.597 0 00.096.38.414.414 0 00.308.127v1.442a3.79 3.79 0 01-.747.088 1.13 1.13 0 01-.74-.215.92.92 0 01-.322-.57l-.038-.366c-.283.377-.651.68-1.075.885a3.095 3.095 0 01-1.353.303zm.48-1.24c.28.002.557-.05.817-.151.23-.083.437-.223.6-.405a.61.61 0 00.279-.481v-.76a4.192 4.192 0 00-.658-.183 3.564 3.564 0 00-.683-.07 1.813 1.813 0 00-1.076.298.892.892 0 00-.418.753.905.905 0 00.33.715c.225.192.514.294.81.285z" fill="#9331B2"/><path d="M33.726 27.74v1.366h-1.303v1.43H30.89v-1.43h-1.303v-1.367h1.303v-1.43h1.532v1.43h1.303zm5.453 5.301a2.67 2.67 0 01-1.354-.341 2.492 2.492 0 01-.937-.936v1.151h-1.48v-9.238h1.696v3.771c.222-.39.543-.715.93-.943.411-.23.876-.346 1.348-.335a2.5 2.5 0 011.177.279c.352.184.664.438.917.746.265.327.467.7.595 1.102.14.429.21.877.209 1.329.004.457-.076.912-.235 1.34a3.371 3.371 0 01-.651 1.083 3.066 3.066 0 01-.987.727 2.865 2.865 0 01-1.228.265zM38.71 31.6a1.792 1.792 0 001.328-.582c.163-.181.29-.392.373-.62.09-.243.135-.5.132-.76a2.356 2.356 0 00-.126-.77 2.02 2.02 0 00-.36-.646 1.802 1.802 0 00-.551-.441 1.49 1.49 0 00-.696-.165 1.552 1.552 0 00-1.019.373 2.479 2.479 0 00-.69.918v1.582c.059.166.146.32.26.455a1.871 1.871 0 00.854.576c.16.053.326.08.495.08z" fill="#5C1B6F"/></g><defs><clipPath id="clip0"><path fill="#fff" d="M0 0h56v56H0z"/></clipPath></defs></svg>