<svg width="24" height="24" fill="none" xmlns="http://www.w3.org/2000/svg"><g clip-path="url(#clip0)" fill="#fff"><path d="M12.388 19.44H11.23c-.816 0-1.48.663-1.48 1.48v1.6c0 .817.664 1.48 1.48 1.48h1.16c.816 0 1.48-.663 1.48-1.48v-1.6a1.48 1.48 0 00-1.48-1.48zM4.215 7.049l2.138.266a1.48 1.48 0 001.566-.944c.308-.807.737-1.443 1.287-1.907.78-.656 1.75-.986 2.908-.986 1.201 0 2.158.315 2.869.944.71.632 1.063 1.386 1.063 2.272 0 .636-.2 1.218-.6 1.746-.259.335-1.055 1.04-2.385 2.118-1.332 1.078-2.217 2.05-2.66 2.913-.455.883-.612 1.862-.652 2.844a1.48 1.48 0 001.48 1.541h1.208c.77 0 1.406-.59 1.475-1.354.05-.55.14-.966.279-1.25.232-.486.831-1.127 1.793-1.926 1.862-1.542 3.075-2.76 3.645-3.658.567-.895.854-1.845.854-2.849 0-1.812-.772-3.403-2.319-4.77C16.62.684 14.54 0 11.924 0c-2.486 0-4.49.673-6.02 2.022-1.302 1.15-2.094 2.511-2.373 4.082a.797.797 0 00.684.945z"/></g><defs><clipPath id="clip0"><path fill="#fff" d="M0 0h24v24H0z"/></clipPath></defs></svg>