<svg width="56" height="56" viewBox="0 0 56 56" fill="none" xmlns="http://www.w3.org/2000/svg">
<rect width="56" height="56" rx="12" fill="#41A497"/>
<path d="M28 47.9369C39.0457 47.9369 48 38.9967 48 27.9684C48 16.9402 39.0457 8 28 8C16.9543 8 8 16.9402 8 27.9684C8 38.9967 16.9543 47.9369 28 47.9369Z" fill="#00C8C8"/>
<path d="M47.9502 28.0005C47.95 26.9133 47.8617 25.828 47.686 24.755L37.8607 14.9434L17.9766 41.0572L24.6679 47.738C27.5349 48.2059 30.4694 48.0462 33.2684 47.2698C36.0675 46.4935 38.6641 45.1191 40.8785 43.2419C43.093 41.3646 44.8724 39.0293 46.0935 36.3975C47.3147 33.7658 47.9485 30.9005 47.9509 28.0001L47.9502 28.0005Z" fill="#13AAAA"/>
<path d="M24.1449 14.9434L17.9766 21.1019V41.0572H37.8607V14.9434H24.1449Z" fill="white"/>
<path d="M27.918 14.9434H37.8599V41.0572H27.918V14.9434Z" fill="#E9EDF5"/>
<path d="M24.1449 21.1019V14.9434L17.9766 21.1019H24.1449Z" fill="#E9EDF5"/>
<path d="M20.9453 32.5049H34.8925V34.8488H20.9453V32.5049Z" fill="#9196AA"/>
<path d="M27.918 32.5049H34.8915V34.8488H27.918V32.5049Z" fill="#707789"/>
<path d="M23.3828 35.8877H32.4583V38.2315H23.3828V35.8877Z" fill="#9196AA"/>
<path d="M27.918 35.8877H32.4556V38.2315H27.918V35.8877Z" fill="#707789"/>
<path d="M29.7992 30.6917L29.4241 29.6021H26.4347L26.0596 30.6917H23.8438L26.6966 23.1221H29.1517L32.0158 30.6917H29.7992ZM27.92 25.0515L26.9577 27.8998H28.8902L27.92 25.0515Z" fill="#7584F2"/>
<path d="M27.918 25.0515L28.8878 27.8998H27.918V29.6021H29.4221L29.7972 30.6917H32.0138L29.1493 23.1221H27.918V25.0515Z" fill="#606AEA"/>
<path d="M35.9962 20.0124H34.3826V18.4014H32.0351V20.0124H30.4219V22.3563H32.0355V23.9673H34.383V22.3563H35.9966L35.9962 20.0124Z" fill="#606AEA"/>
</svg>
