<svg width="56" height="56" viewBox="0 0 56 56" fill="none" xmlns="http://www.w3.org/2000/svg">
<rect width="56" height="56" rx="12" fill="#4DBF54"/>
<path d="M48.0002 27.9999C48.0002 31.9555 46.8272 35.8223 44.6295 39.1113C42.4319 42.4002 39.3083 44.9637 35.6538 46.4774C31.9992 47.9912 27.9779 48.3872 24.0983 47.6155C20.2186 46.8438 16.655 44.939 13.8579 42.142C11.0608 39.3449 9.15601 35.7813 8.3843 31.9017C7.6126 28.0221 8.00867 24.0008 9.52242 20.3463C11.0362 16.6918 13.5996 13.5682 16.8886 11.3706C20.1776 9.17297 24.0444 8 28.0001 8C33.3044 8 38.3915 10.1071 42.1423 13.8578C45.893 17.6086 48.0002 22.6956 48.0002 27.9999Z" fill="#0EB221"/>
<path d="M47.999 27.9996C48.0007 25.9286 47.6804 23.87 47.0495 21.8974L42.5095 17.3574L13.4883 19.9524L23.3067 29.7707L14.8144 35.7341L22.9372 43.8568L21.5005 44.3279L24.94 47.7674C27.7909 48.2058 30.7029 48.0228 33.4765 47.2311C36.2501 46.4394 38.8198 45.0575 41.0097 43.1802C43.1996 41.3029 44.9578 38.9745 46.1641 36.3545C47.3703 33.7344 47.9961 30.8846 47.9984 28.0002L47.999 27.9996Z" fill="#109018"/>
<path d="M34.499 44.3269L29.095 38.9231V32.4004H26.9078V38.9237L21.5039 44.3275H24.5989L26.9095 42.017V44.3269H29.0973V42.0164L31.4078 44.3269H34.499Z" fill="#DCE1EB"/>
<path d="M29.0916 38.9237V32.4004H27.9805V44.3269H29.0916V42.0164L31.4021 44.3269H34.4955L29.0916 38.9237Z" fill="#CDD2E1"/>
<path d="M14.8164 19.0156H41.1849V35.7345H14.8164V19.0156Z" fill="white"/>
<path d="M27.9805 19.0156H41.1834V35.7345H27.9805V19.0156Z" fill="#E9EDF5"/>
<path d="M13.4883 17.3574H42.5073V19.9524H13.4883V17.3574Z" fill="#DCE1EB"/>
<path d="M27.9805 17.3574H42.5095V19.9524H27.9805V17.3574Z" fill="#CDD2E1"/>
</svg>
