<svg width="24" height="24" viewBox="0 0 24 24" fill="none" xmlns="http://www.w3.org/2000/svg">
<g clip-path="url(#clip0)">
<path d="M24.0004 3.19416C24.0004 2.35124 23.2918 1.68423 22.4489 1.73068C17.4354 2.00919 14.7331 3.62661 13.338 4.96551C13.0522 5.2416 12.8909 5.62275 12.8909 6.01858V21.5356C12.8909 22.1416 13.5848 22.486 14.0685 22.1195C15.6273 20.9297 18.2636 19.7129 22.6102 19.4979C23.3895 19.4588 24.0003 18.8138 24.0003 18.0345V3.19416H24.0004Z" fill="white"/>
<path d="M1.38776 19.4981C5.7343 19.7131 8.37056 20.9274 9.92937 22.1197C10.4107 22.4886 11.107 22.1441 11.107 21.5357V6.01869C11.107 5.62042 10.9457 5.2393 10.6599 4.96563C9.26479 3.62673 6.56256 2.0093 1.55146 1.73079C0.708541 1.68193 0 2.34894 0 3.19427V18.037C0 18.8139 0.610811 19.4614 1.38776 19.4981Z" fill="white"/>
</g>
<defs>
<clipPath id="clip0">
<rect width="24" height="24" fill="white"/>
</clipPath>
</defs>
</svg>
