<svg width="24" height="24" viewBox="0 0 24 24" fill="none" xmlns="http://www.w3.org/2000/svg">
<path d="M5.20312 23.2969H5.20642C5.20642 23.3915 5.22565 23.4877 5.2663 23.5798C5.42249 23.9332 5.83575 24.093 6.18915 23.9368L7.73438 23.2505L9.21405 23.9077C9.31677 23.9665 9.43579 24 9.5625 24C9.95087 24 10.2656 23.6852 10.2656 23.2969V21.8906H5.20312V23.2969Z" fill="white"/>
<path d="M19.1656 0.756226C18.6987 0.28949 18.0542 0 17.3438 0H16.1719V20.4844H17.3438C18.0542 20.4844 18.6987 20.1949 19.1656 19.7281C19.6324 19.2614 19.9219 18.6167 19.9219 17.9062V2.57812C19.9219 1.86768 19.6324 1.22314 19.1656 0.756226Z" fill="white"/>
<path d="M4.07812 0.703125V19.7812C4.07812 20.1696 4.39288 20.4844 4.78125 20.4844H14.7656V0H4.78125C4.39288 0 4.07812 0.314758 4.07812 0.703125Z" fill="white"/>
</svg>
