<svg width="24" height="24" viewBox="0 0 24 24" fill="none" xmlns="http://www.w3.org/2000/svg">
<g clip-path="url(#clip0)">
<path d="M1.90393 3.4021C3.1463 2.05463 4.85101 1.3125 6.70441 1.3125C8.08978 1.3125 9.35852 1.75049 10.4755 2.6142C11.0391 3.05017 11.5497 3.58356 12 4.20612C12.4501 3.58374 12.9609 3.05017 13.5247 2.6142C14.6415 1.75049 15.9102 1.3125 17.2956 1.3125C19.149 1.3125 20.8539 2.05463 22.0963 3.4021C23.3238 4.73383 24 6.55316 24 8.52521C24 10.5549 23.2436 12.4129 21.6196 14.3725C20.1669 16.1254 18.0789 17.9048 15.661 19.9653C14.8354 20.6689 13.8995 21.4666 12.9278 22.3162C12.6711 22.541 12.3417 22.6648 12 22.6648C11.6585 22.6648 11.3289 22.541 11.0726 22.3165C10.1008 21.4667 9.16443 20.6688 8.33844 19.9647C5.9209 17.9046 3.83295 16.1254 2.38019 14.3723C0.756226 12.4129 0 10.5549 0 8.52502C0 6.55316 0.676208 4.73383 1.90393 3.4021Z" fill="white"/>
</g>
<defs>
<clipPath id="clip0">
<rect width="24" height="24" fill="white" transform="matrix(-1 0 0 1 24 0)"/>
</clipPath>
</defs>
</svg>
