<svg width="24" height="24" viewBox="0 0 24 24" fill="none" xmlns="http://www.w3.org/2000/svg">
<path d="M20.9879 1.40625H21.0378C21.4262 1.40625 21.741 1.09144 21.741 0.703125C21.741 0.314812 21.4262 0 21.0378 0H4.84577C3.41983 0 2.25977 1.16006 2.25977 2.586V21.4141C2.25977 22.84 3.41983 24 4.84577 24H19.155C20.581 24 21.741 22.84 21.741 21.4141V6.35156C21.741 5.64131 21.4531 4.99716 20.9879 4.52939V1.40625H20.9879ZM16.6334 13.4564L14.827 15.2172L15.2469 17.6652C15.2584 17.7157 15.2645 17.7683 15.2645 17.8223C15.2645 18.2103 14.9502 18.5249 14.5623 18.5254C14.5617 18.5254 14.5611 18.5254 14.5604 18.5254C14.4485 18.5254 14.3362 18.4987 14.2333 18.4447L12.0004 17.2707L9.76755 18.4447C9.53064 18.5691 9.24358 18.5484 9.02706 18.3911C8.81055 18.2339 8.70208 17.9672 8.74736 17.7034L9.17383 15.2172L7.36745 13.4564C7.17578 13.2696 7.10683 12.9902 7.18952 12.7356C7.27225 12.4811 7.49228 12.2955 7.75713 12.2571L10.2535 11.8944L11.3699 9.6323C11.4883 9.3923 11.7327 9.24038 12.0004 9.24038C12.268 9.24038 12.5125 9.3923 12.6309 9.6323L13.7473 11.8944L16.2437 12.2571C16.5085 12.2955 16.7286 12.4811 16.8113 12.7356C16.894 12.9901 16.8251 13.2696 16.6334 13.4564ZM19.5816 3.80156C19.4427 3.77841 19.3004 3.7657 19.155 3.7657H4.84577C4.19523 3.7657 3.66602 3.23648 3.66602 2.586C3.66602 1.93547 4.19523 1.40625 4.84577 1.40625H19.5816V3.80156Z" fill="white"/>
</svg>
