<svg width="24" height="24" viewBox="0 0 24 24" fill="none" xmlns="http://www.w3.org/2000/svg">
<path d="M23.4 21.6H22.8V8.4C22.8 7.68 22.32 7.2 21.6 7.2V6C21.6 5.28 21.12 4.8 20.4 4.8H17.4L12 0L6 4.8H3.6C2.88 4.8 2.4 5.28 2.4 6V7.2C1.68 7.2 1.2 7.68 1.2 8.4V21.6H0.6C0.24 21.6 0 21.84 0 22.2V23.4C0 23.76 0.24 24 0.6 24H23.4C23.76 24 24 23.76 24 23.4V22.2C24 21.84 23.76 21.6 23.4 21.6ZM11.64 2.4C12.36 2.4 12.84 2.88 12.84 3.6C12.84 4.32 12.36 4.8 11.64 4.8C11.04 4.8 10.44 4.32 10.44 3.6C10.44 2.88 10.92 2.4 11.64 2.4ZM7.2 19.2H3.6V15.6H7.2V19.2ZM7.2 13.2H3.6V9.6H7.2V13.2ZM14.4 21.6H9.6V18C9.6 16.68 10.68 15.6 12 15.6C13.32 15.6 14.4 16.68 14.4 18V21.6ZM14.4 13.2H9.6V9.6H14.4V13.2ZM20.4 19.2H16.8V15.6H20.4V19.2ZM20.4 13.2H16.8V9.6H20.4V13.2Z" fill="white"/>
</svg>
